<svg width="50" height="50" viewBox="0 0 50 50" fill="none" xmlns="http://www.w3.org/2000/svg">
<path d="M31.6667 25.0015C32.5833 25.0015 33.3333 24.2515 33.3333 23.3348V21.6681C33.3333 20.7515 32.5833 20.0015 31.6667 20.0015C30.75 20.0015 30 20.7515 30 21.6681V23.3348C30 24.2515 30.75 25.0015 31.6667 25.0015Z" fill="#526F53"/>
<path d="M8.18332 7.50146C10.1333 7.50146 11.8 8.80146 12.3167 10.5848C11.75 11.1515 11.2833 11.8015 10.9 12.5015H8.48332C6.09999 12.5015 4.16666 10.5681 4.16666 8.1848V7.85146C4.16666 7.65146 4.31666 7.50146 4.51666 7.50146H8.18332Z" fill="#526F53"/>
<path d="M21.6667 33.3348C21.6667 34.2553 20.9205 35.0014 20 35.0014C19.0795 35.0014 18.3333 34.2553 18.3333 33.3348C18.3333 32.4143 19.0795 31.6681 20 31.6681C20.9205 31.6681 21.6667 32.4143 21.6667 33.3348Z" fill="#526F53"/>
<path d="M30 35.0014C30.9205 35.0014 31.6667 34.2553 31.6667 33.3348C31.6667 32.4143 30.9205 31.6681 30 31.6681C29.0795 31.6681 28.3333 32.4143 28.3333 33.3348C28.3333 34.2553 29.0795 35.0014 30 35.0014Z" fill="#526F53"/>
<path d="M20.2483 0.163805L20.231 0.170622C19.7337 0.369588 19.2213 0.621722 18.716 0.970955C16.6123 2.36301 15.2825 4.38479 15.0417 6.75262C14.2991 5.73266 13.3332 4.89421 12.2165 4.30221C11.0203 3.66809 9.68722 3.33597 8.33333 3.33476H2.5C1.83697 3.33476 1.20107 3.59816 0.732233 4.06699C0.2634 4.53582 0 5.17172 0 5.83476V8.33476C0 10.5449 0.877966 12.6645 2.44078 14.2273C3.2146 15.0011 4.13325 15.6149 5.1443 16.0338C6.15535 16.4526 7.23898 16.6681 8.33333 16.6681V19.1954L8.33252 19.2181V30.1294C7.2764 31.7906 6.69988 33.7114 6.66667 35.6798C6.62943 38.5068 7.6989 41.2364 9.64672 43.2858C11.5945 45.3351 14.2663 46.5418 17.0917 46.6481C18.1203 47.7041 19.35 48.5434 20.7083 49.1166C22.0665 49.6896 23.5258 49.9849 25 49.9849C26.4742 49.9849 27.9335 49.6896 29.2917 49.1166C30.65 48.5434 31.8797 47.7041 32.9083 46.6481C35.7337 46.5418 38.4055 45.3351 40.3533 43.2858C42.3012 41.2364 43.3705 38.5068 43.3333 35.6798C43.3008 33.7093 42.724 31.7861 41.6667 30.1231V16.6681C43.8768 16.6681 45.9965 15.7901 47.5592 14.2273C49.122 12.6645 50 10.5449 50 8.33476V5.83476C50 5.17172 49.7367 4.53582 49.2678 4.06699C48.799 3.59816 48.163 3.33476 47.5 3.33476H41.6667C40.3128 3.33597 38.9797 3.66809 37.7835 4.30221C37.255 4.58239 36.7603 4.91777 36.307 5.30147C35.7583 3.56736 34.5967 2.06046 32.9508 0.970989C32.4453 0.621739 31.9332 0.369488 31.4358 0.170522L31.4183 0.163805C29.456 -0.595817 27.6917 1.43204 28.5145 3.25406L28.5207 3.26787L28.5272 3.28156C29.0567 4.39922 29.1643 5.52029 28.7708 6.66809H23.198C23.1527 6.43806 23.1083 6.18679 23.0702 5.92421C22.991 5.37937 22.9437 4.82086 22.9587 4.32029C22.9742 3.79877 23.0545 3.46129 23.1395 3.28156L23.146 3.26787L23.1523 3.25406C23.9752 1.43204 22.2107 -0.595817 20.2483 0.163805ZM17.5 10.0014H26.6667L28.9667 12.3014C30.7 14.0348 33.05 15.0014 35.5 15.0014H38.278L38.2983 15.1848C38.3218 15.4006 38.3335 15.6176 38.3333 15.8348V29.1576C36.6603 28.1058 34.6185 27.4969 32.4655 27.5029H23.3325V25.2014C23.3325 20.9014 21.0667 16.5514 17.5 14.1681C15.7203 12.9766 11.6667 13.3347 11.6667 13.3347L8.33333 13.3348C7.00725 13.3348 5.73548 12.808 4.7978 11.8703C3.86012 10.9326 3.33333 9.66084 3.33333 8.33476V6.66809H8.33333C9.30448 6.66759 10.2547 6.94994 11.0681 7.48061C11.8814 8.01129 12.5226 8.76734 12.9133 9.65642L13.5883 11.1931L15.12 10.5064C15.8688 10.1723 16.68 10.0003 17.5 10.0014ZM17.5 43.3348C16.5057 43.3349 15.5212 43.1373 14.6038 42.7534C13.6865 42.3694 12.8547 41.8071 12.1568 41.0988C11.4589 40.3904 10.9088 39.5504 10.5385 38.6276C10.1682 37.7046 9.9852 36.7174 10 35.7231C10.0197 34.2239 10.4945 32.7661 11.3617 31.5431L11.4783 31.3781C13.0209 29.9981 15.2123 29.1276 17.669 29.1696H32.4667H32.469C34.8718 29.1628 37.0102 30.0224 38.5233 31.3748L38.6383 31.5381C39.5065 32.7626 39.9815 34.2223 40 35.7231C40.0148 36.7174 39.8317 37.7046 39.4615 38.6276C39.0912 39.5504 38.5412 40.3904 37.8432 41.0988C37.1453 41.8071 36.3135 42.3694 35.3962 42.7534C34.4788 43.1373 33.4943 43.3349 32.5 43.3348H17.5ZM20.2137 45.0023H29.773C29.3032 45.3703 28.791 45.6839 28.246 45.9358C27.2265 46.4071 26.1167 46.6513 24.9933 46.6513C23.87 46.6513 22.7602 46.4071 21.7407 45.9358C21.1957 45.6839 20.6835 45.3703 20.2137 45.0023ZM41.6667 13.3348H39.4795C39.3692 13.0485 39.2423 12.7703 39.1002 12.5014H41.5167C43.9 12.5014 45.8333 10.5681 45.8333 8.18476V7.85142C45.8333 7.65142 45.6833 7.50142 45.4833 7.50142H41.8167C39.8667 7.50142 38.2 8.80142 37.6833 10.5848C37.6993 10.6003 37.7122 10.6164 37.7225 10.633C37.4797 10.3895 37.221 10.162 36.948 9.95199L37.0783 9.65142C37.4703 8.76197 38.1132 8.00609 38.928 7.47624C39.743 6.94639 40.6947 6.66556 41.6667 6.66809H46.6667V8.33476C46.6667 9.66084 46.1398 10.9326 45.2022 11.8703C44.2645 12.808 42.9927 13.3348 41.6667 13.3348ZM16.6667 23.3348V21.6681C16.6667 20.7514 17.4167 20.0014 18.3333 20.0014C19.25 20.0014 20 20.7514 20 21.6681V23.3348C20 24.2514 19.25 25.0014 18.3333 25.0014C17.4167 25.0014 16.6667 24.2514 16.6667 23.3348Z" fill="#526F53"/>
</svg>
