<svg width="54" height="54" viewBox="0 0 54 54" fill="none" xmlns="http://www.w3.org/2000/svg">
<path fill-rule="evenodd" clip-rule="evenodd" d="M29.2758 47.4484C41.826 47.4484 52 37.2744 52 24.7242C52 12.174 41.826 2 29.2758 2C16.7256 2 6.55164 12.174 6.55164 24.7242C6.55164 37.2744 16.7256 47.4484 29.2758 47.4484Z" stroke="#37502D" stroke-width="3" stroke-linecap="round" stroke-linejoin="round"/>
<path fill-rule="evenodd" clip-rule="evenodd" d="M29.2758 39.1851C37.2623 39.1851 43.7366 32.7107 43.7366 24.7242C43.7366 16.7377 37.2623 10.2634 29.2758 10.2634C21.2893 10.2634 14.8149 16.7377 14.8149 24.7242C14.8149 32.7107 21.2893 39.1851 29.2758 39.1851Z" stroke="#37502D" stroke-width="3" stroke-linecap="round" stroke-linejoin="round"/>
<path fill-rule="evenodd" clip-rule="evenodd" d="M29.2758 30.9217C32.6985 30.9217 35.4733 28.147 35.4733 24.7242C35.4733 21.3014 32.6985 18.5267 29.2758 18.5267C25.853 18.5267 23.0782 21.3014 23.0782 24.7242C23.0782 28.147 25.853 30.9217 29.2758 30.9217Z" stroke="#37502D" stroke-width="3" stroke-linecap="round" stroke-linejoin="round"/>
<path d="M29.0252 25.0426L5.4137 48.6542" stroke="#37502D" stroke-width="3" stroke-linecap="round" stroke-linejoin="round"/>
<path d="M27.0339 23.6202H30.4477V27.034" stroke="#37502D" stroke-width="3" stroke-linecap="round" stroke-linejoin="round"/>
<path d="M2 48.6541H5.41372V52.0678" stroke="#37502D" stroke-width="3" stroke-linecap="round" stroke-linejoin="round"/>
</svg>
