<svg width="54" height="49" viewBox="0 0 54 49" fill="none" xmlns="http://www.w3.org/2000/svg">
<path d="M10.685 2V6.89331H2V11.6841C2 19.703 4.38261 24.1736 10.1086 26.9533C12.2373 28.0978 14.202 29.524 15.9498 31.1933C17.3545 32.6918 19.0678 33.8674 20.9712 34.6392L23.136 35.3053V41.1081H19.8311C15.8345 41.1081 14.4895 42.0176 14.4895 44.7204V46.5394H39.4684V44.9126C39.4684 42.2609 37.8288 41.0696 34.0371 41.0696H30.8219V35.3053L33.0251 34.652C34.9313 33.8794 36.6452 32.6989 38.0465 31.1933C39.8699 29.4555 41.9108 27.9614 44.1184 26.7484C45.8324 25.9235 47.3632 24.7625 48.6197 23.3343C49.8762 21.9062 50.8328 20.24 51.4327 18.4349C51.8405 16.1998 52.0293 13.9303 51.9963 11.6585V6.90612H43.2729V2H10.685ZM26.979 10.1598L29.6049 15.5911H35.9329L30.9756 20.1642L32.3975 26.0054L26.979 23.0976L21.5604 26.0438L22.9823 20.2026L18.0121 15.6295H24.353L26.979 10.1598ZM6.56026 11.7866H10.6081V21.8807C10.1854 22.1369 8.86601 20.5997 7.90528 18.8448C7.35984 17.5012 7.01041 16.0862 6.86769 14.6432L6.56026 11.7866ZM43.3498 11.7866H47.7563L47.3848 14.6048C47.2975 16.9507 46.3543 19.1835 44.7332 20.8815C44.3518 21.4012 43.8679 21.8372 43.3113 22.1625L43.3498 11.7866Z" stroke="#37502D" stroke-width="3" stroke-linecap="round" stroke-linejoin="round"/>
</svg>
