<?xml version="1.0" encoding="UTF-8"?>
<svg xmlns="http://www.w3.org/2000/svg" xmlns:xlink="http://www.w3.org/1999/xlink" viewBox="0 0 355.55 328.66">
  <defs>
    <style>
      .cls-1 {
        fill: #3f3832;
      }

      .cls-2 {
        fill: #9b6f67;
      }

      .cls-3 {
        fill: #efe7dc;
      }

      .cls-4 {
        fill: #d8c6b4;
      }

      .cls-5 {
        fill: url(#linear-gradient-2);
      }

      .cls-6 {
        fill: #b2936f;
      }

      .cls-7 {
        fill: #534741;
      }

      .cls-8 {
        fill: url(#linear-gradient);
      }

      .cls-9 {
        fill: #594c40;
      }

      .cls-10 {
        fill: #e5dcd3;
      }

      .cls-11 {
        fill: #a1b2c6;
      }

      .cls-12 {
        fill: #9e8871;
      }

      .cls-13 {
        fill: #efe8df;
      }

      .cls-14 {
        opacity: .12;
      }

      .cls-15 {
        fill: #eae2d8;
      }

      .cls-16 {
        fill: #bc9388;
      }

      .cls-17 {
        fill: #352d29;
      }

      .cls-18 {
        fill: #d1a79f;
      }

      .cls-19 {
        fill: #d8aa8b;
      }

      .cls-20 {
        fill: #5d68a3;
      }
    </style>
    <linearGradient id="linear-gradient" x1="254.02" y1="100.26" x2="248.5" y2="123.18" gradientTransform="translate(506.77 38.63) rotate(-171.45) scale(1 -1)" gradientUnits="userSpaceOnUse">
      <stop offset="0" stop-color="#e5dcd3"/>
      <stop offset="1" stop-color="#efe8df"/>
    </linearGradient>
    <linearGradient id="linear-gradient-2" x1="255.49" y1="99.93" x2="253.06" y2="124.22" gradientTransform="translate(-7.69 18.72) rotate(-4.12)" xlink:href="#linear-gradient"/>
  </defs>
  <g id="Layer_1" data-name="Layer 1">
    <ellipse class="cls-14" cx="218.5" cy="311.88" rx="125.43" ry="16.79"/>
    <g id="tail">
      <path id="tail-2" data-name="tail" class="cls-7" d="M305.67,135s41.48,13.92,26.64-30.86c0,0,30.11,28.47-11.71,53.01-41.82,24.54-14.92-22.15-14.92-22.15Z"/>
      <path class="cls-7" d="M333.44,103.37c-3.55.16-7.03-1.87-9.91-3.78s-3.6-5.45-3.25-8.77c.19-1.76.56-3.62,1.14-5.29.44-1.24,1.08-2.33,2.44-1.47,2.81,1.78,4.92,4.95,6.25,7.93.63,1.42,2.79.63,2.8-.76,0-1.94-.06-4.18,1.01-5.89.75-1.2,2.56-2.36,3.89-1.34,1.48,1.13,1.94,3.92,2.08,5.64.19,2.28-.18,4.48-1.01,6.61-.59,1.49,1.5,2.39,2.51,1.46.76-.71,1.63-1.3,2.61-1.68.27-.1.66-.3.66-.27,0,.35-.82.88-1.03,1.05-1.8,1.43-3.69,2.76-5.58,4.06-.95.65-1.91,1.3-2.88,1.92s-1.83,1.43-3,.79c-1.77-.97-3.44-2.55-4.9-3.93-1.59-1.51-3.03-3.24-3.84-5.31-.71-1.81-1.18-4.34-.03-6.07.42-.64,1-1.19,1.74-.7.83.55,1.44,1.94,1.91,2.79,1.08,1.95,1.9,4.02,2.45,6.19.07.28.14.57.2.86.13.58-.05.98.51.59.79-.55.18-.11,0-.33-.11-.14-.47-.3-.6-.43-.77-.74-1.21-1.84-1.63-2.81-1.09-2.49-1.88-5.11-2.43-7.77l-2.2,1.69c2.43,1.66,3.87,4.73,3.46,7.66l2.2-.9c-1.65-1.13-2.55-3.22-2.2-5.19l-1.45,1.1c.62.07,1.28,1.58,1.48,2.06.12.25.2.51.24.78.01.15-.03.29-.11.41.45-.13.5.02.15.46.02-.02,0,0-.02.06,1.28,1.45,3.39-.68,2.12-2.12s-3.9-1.15-4.67.7c-.82,1.98,1.07,4.25,3.17,3.78s2.7-3.03,2.03-4.85c-.75-2.03-2.11-4.02-4.39-4.28-.6-.07-1.34.51-1.45,1.1-.6,3.38.73,6.64,3.58,8.58.73.5,2.07.04,2.2-.9.6-4.36-1.18-8.56-4.84-11.05-1.16-.79-2.45.51-2.2,1.69.72,3.44,1.78,7.08,3.54,10.16.63,1.11,1.51,2.18,2.68,2.73,1.31.62,3.34.54,3.92-1.02.48-1.28-.27-3.19-.63-4.42-.48-1.68-1.13-3.31-1.9-4.88-1.24-2.51-3.27-6.55-6.74-5.51-3.11.93-4.01,4.78-3.7,7.59.35,3.23,2,6.11,4.16,8.47,1.14,1.24,2.42,2.34,3.74,3.39,1.22.97,2.5,2.2,4,2.7s2.88.03,4.19-.78c1.7-1.05,3.35-2.2,4.98-3.35s3.21-2.3,4.76-3.53c1.21-.96,2.25-2.21,1.98-3.86-.75-4.56-6.48-1.31-8.35.43l2.51,1.46c1.17-2.96,1.44-6.18.87-9.31-.47-2.56-1.57-5.76-4.2-6.79-2.32-.9-4.98.21-6.5,2.04-1.9,2.28-2.01,5.42-2.03,8.25l2.8-.76c-1.77-3.95-9.57-14.78-13.56-7.19-.77,1.47-1.11,3.15-1.44,4.76-.39,1.94-.66,3.95-.45,5.93.34,3.32,1.81,6.19,4.59,8.09,3.31,2.27,7.47,4.49,11.59,4.3,1.92-.09,1.93-3.09,0-3h0Z"/>
    </g>
    <path class="cls-7" d="M319.62,85.39c-1.45,8.48,3.34,14.95,10.29,19.27,1.16-2.74,2.31-5.48,3.47-8.22-1.46-.26-2.88-.56-4.28-1.05-.63-.2-1.25-.44-1.84-.74-1.08-.8-1.17-.43-.27,1.11l-4.34,3.3c2.36-.26,6.44,3.8,8.31,5.25l1.99-7.52c-2.49.48-5.07-.24-6.79-2.15-.83-.93-1.44-2.11-1.69-3.34-.13-.55-.17-1.1-.11-1.66-1,.27-1.29.51-.86.71.13.62,1.29,1.98,1.61,2.68.49,1.11.88,2.27,1.41,3.36,1.11,2.29,2.67,4.04,4.79,5.44,2.86,1.89,6.83-.6,6.77-3.89-.04-1.85-.07-3.71-.11-5.56-.02-.88.11-1.92-.05-2.78l-.03-1.39c-3.26-1.47-4.88-1.29-4.85.54-.52,1.26-.55,3.03-.91,4.38-.46,1.72-1.03,3.39-1.66,5.05-2.05,5.42,6.64,7.77,8.68,2.39,2.09-5.52,6.08-16.5-1.89-19.3-3.14-1.1-6.52.4-7.79,3.47-1.55,3.74-.47,9.24-.39,13.2l6.77-3.89c-1.79-1.18-2.29-4.18-3.15-6-1.13-2.41-2.8-4.54-5.22-5.75-4.67-2.33-10.4-.26-11.81,4.93-1.29,4.75.82,10.31,4.11,13.76,4.09,4.29,9.87,5.56,15.55,4.46,3.11-.6,4.6-5.48,1.99-7.52-3.86-3.01-9.37-8.48-14.67-7.88-2.08.23-3.68,1.25-4.34,3.3-2.45,7.58,7.04,10.76,12.67,11.75,4.87.86,8.02-5.4,3.47-8.22-3.07-1.91-6.86-4.98-6.16-9.1.97-5.66-7.7-8.1-8.68-2.39h0Z"/>
    <path class="cls-7" d="M334.77,104.31c5.79,0,5.8-9,0-9s-5.8,9,0,9h0Z"/>
    <path class="cls-7" d="M326.68,91.53v-2.29c0-.26.18-1.85,0-1.32l-1.16,1.99-.31.28-2.27.61c-1,.1-2.17-1.63-1.58-.49,2.11,4.03,8.38,2.06,8.39-2.27,0-4.99-5.53-8.37-9.97-5.99s-4.98,7.56-3.51,11.9c.72,2.11,2.66,3.57,4.94,3.22,2.15-.32,3.95-2.14,3.9-4.42-.03-1.34-.06-2.67-.09-4.01,0-.33.11-1.34,0-1.67-.71,1.89-1.69,2.6-2.94,2.11-.4-.04-.71-.24-.91-.62.12-.09,1.5,5.57,1.56,6.27.23,2.42,1.91,4.5,4.5,4.5,2.26,0,4.73-2.07,4.5-4.5-.48-5.17-1.51-12.86-7.54-14.33-3.36-.82-6.78,1.12-7.82,4.41-.77,2.43-.33,5.35-.27,7.85l8.84-1.2c-.04-.12-.55-2.17-.48-2.14.1.04-.56.62-.59.64-1.28.72-3.13-.64-3.13-2.01l8.39-2.27c-1.59-3.04-5.11-5.16-8.47-3.35s-3.01,5.72-3,9.11c.02,5.79,9.02,5.8,9,0h0Z"/>
    <path class="cls-7" d="M339.07,101.2c1.26,0,2.48-.34,3.6-.92s2.01-1.45,2.74-2.46c.29-.4.33-1.09.2-1.54s-.49-.97-.92-1.2c-.46-.25-1.03-.37-1.54-.2s-.88.47-1.2.92c-.04.06-.08.11-.13.17l.31-.4c-.29.37-.62.71-1,1l.4-.31c-.41.32-.86.58-1.34.78l.48-.2c-.46.19-.94.32-1.43.39l.53-.07c-.24.03-.47.05-.71.05-.52,0-1.05.22-1.41.59s-.61.92-.59,1.41c.05,1.08.88,2.01,2,2h0Z"/>
    <path class="cls-4" d="M232.45,242.54s7.08,72.45,18.35,68.59c0,0,3.09.64,4.29-6.75,0,0,.4,7.31,3.79,6.9,0,0,4.89.99,5.59-5.8.7-6.79,6.49-46.83,6.49-46.83l-38.52-16.1Z"/>
    <path class="cls-4" d="M108.1,243.65s7.08,72.45,18.35,68.59c0,0,3.09.64,4.29-6.75,0,0,.4,7.31,3.79,6.9,0,0,4.89.99,5.59-5.8s6.49-46.83,6.49-46.83l-38.52-16.1Z"/>
    <path class="cls-17" d="M133.78,293.82c-4.67.22-9.33-.3-13.89-1.34-1.53-.35-3.12-.72-4.61-1.21,2.98,13.38,6.83,24.08,11.34,22.53,0,0,3.09.64,4.29-6.75,0,0,.4,7.31,3.79,6.9,0,0,4.89.99,5.59-5.8.23-2.26,1.03-8.22,1.99-15.16-2.82.4-5.66.7-8.51.83Z"/>
    <path class="cls-17" d="M255.61,297.65c-4.84.11-9.83-.63-14.5-1.91,2.74,10.36,6.06,17.74,9.87,16.44,0,0,3.09.64,4.29-6.75,0,0,.4,7.31,3.79,6.9,0,0,4.89.99,5.59-5.8.18-1.72.68-5.55,1.33-10.33-3.34.86-6.79,1.37-10.37,1.46Z"/>
    <g id="body">
      <path class="cls-15" d="M83.28,143.66s-11.18,86.05,26.74,112.02c0,0,17.05,11.71,49.13,16.8,32.08,5.09,37.17,10.18,37.17,10.18,0,0,29.53-6.62,58.56-23.93l65.69,13.24s-3.06-45.5,13.75-90.47c0,0-.05-51.51-57.03-70.36,0,0-35.64-17.3-85.54,7.35,0,0-22.98,8.01-36.58-9.65l-71.88,34.81Z"/>
      <path class="cls-7" d="M192.02,118.97c.05,3.61-.22,7.17-.65,10.76-.28,2.17-.56,4.33-.86,6.5-.29,2.17-.32,2.38-.08.62-.14,1.18-.29,2.35-.4,3.53-.22,2.34-.18,4.66-.28,7-.01.34.11,1.24.16,1.61.17.76.37,1.51.61,2.25-.54-1.1-.59-1.16-.14-.2.47,1.1,1.03,2.16,1.62,3.2.33.57.67,1.13,1.03,1.68,0-.08,1.21,1.48,1.68,1.94.54.54,1.11,1.05,1.69,1.54.63.34,1.26.65,1.52.8.26.15.91.57,1.58.96.2.08.52.2.98.38.4.14.81.29,1.21.43,2.32.81,4.7,1.47,7.08,2.07,9.3,2.33,18.17,3.45,26.02,9.51,4.36,3.37,7.85,7.77,10.36,12.69.51,1,.96,2.03,1.42,3.06.49,1.17.89,2.1,1.18,2.8.08.18.16.35.25.53,1.2,2.23,2.41,4.41,3.69,6.59.07.12.12.22.18.31.08.08.15.15.25.24.75.74,1.53,1.53,2.24,2.31.27.3.78.71,1.14,1,.47.32.95.63,1.44.92.95.58,1.94,1.06,2.91,1.6.04.02.07.04.11.06.04,0,.07.02.11.03,2.44.62,4.8,1.53,7.28,2.08.51.11,1.35.4,2.13.59.25-.05.61-.08,1.08-.07,1.93.03,3.83.15,5.76.04.2-.01.41-.04.63-.07-.77-.05-.48-.53,1.58-.25,1.72-.45,3.43-.85,5.12-1.43.52-.42,1.68-.75,2.22-1.03,1.57-.83,3.1-1.74,4.58-2.72.65-.43,1.29-.89,1.93-1.34.04-.04.07-.06.12-.11,1.37-1.24,2.78-2.42,4.1-3.71,2.88-2.79,5.46-5.81,8.04-8.88.23-.28.47-.5.69-.68.43-.62.84-1.34,1.17-1.8,1.16-1.61,2.29-3.24,3.4-4.88,6.15-9.12,11.64-18.75,17.2-28.23-7.58-17.83-20.01-31.74-49.26-42.08,0,0-35.64-17.3-85.54,7.35,0,0-.1.03-.29.09,0,.13.02.25.03.38Z"/>
      <path class="cls-7" d="M118.13,168.22c-2.9-12.95-4.82-26.57-3.75-39.62l-31.09,15.06s-7.02,54.07,8.96,89.43c2.39-3.38,5.89-6.03,9.86-7.3.06-.02.1-.03.15-.05.04-.03.08-.05.12-.07.29-.16.56-.34.85-.52.68-.85,2.19-1.83,2.81-2.49.5-.53.99-1.07,1.46-1.63.13-.16.23-.29.33-.4,1.19-1.86,3-5.05,3.31-5.63.72-1.35,1.36-2.72,2.01-4.1.23-.59.46-1.18.68-1.78,2.12-5.8,3.51-11.74,4.63-17.8,0-.01,0-.02,0-.04.02-.25.05-.56.08-.94.13-1.44.23-2.87.27-4.32.03-1,.03-1.99,0-2.99-2.38-4.41-2.88-9.6-.69-14.82Z"/>
      <path class="cls-7" d="M200.32,197.33c2.02.28,5.32.96,7.31.12l1.1-.02-.26-2.96c-.14-.02-2.3,2.12-2.67,2.4-.71.53-2.59,1.15-3.05,1.89l-.84.27c1.39.93,1.91.9,1.57-.06.56-.47-.47-1.23.5-1.79.6-.35,2.33-.2,2.93.08,2.37,1.1,1.18,2.26-.56,2.94l-1.24.34c-1.41-.07-1.63.22-.67.88.65.82.76.82.35,0-.28-.57-.42-1.19-.43-1.84-.16-5.17,7.32-5.12,8.41-.76.83,3.34-7.84,6.19-10.45,5.46-3.85-1.08-1.98-7.62-.31-10.03,1.58-2.28,7.77-4.26,9.24-2.47.79.96,1.4,5.56.8,6.69-.9,1.7-3.93,1.83-5.58,2.07-6.98,1-4.01,11.6,2.92,10.61,4.79-.69,9.66-2.69,12.16-7.1,2.69-4.75,1.79-11.4-.11-16.3-4.1-10.6-20.3-8.98-26.94-1.75s-8.24,21.96,1.11,27.43c8.82,5.16,24.08-.42,27.56-10,3.91-10.77-8.98-21.37-19.2-18.43s-14.93,17.73-6.48,24.98c3.84,3.29,10.11,1.82,14.29-.15,4.9-2.31,8.05-6.84,7.39-12.36-1.35-11.26-18.21-15.95-24.87-6.45-3.05,4.34-2.57,12.49,1.13,16.39,4.28,4.5,10.9,2.35,15.33-.6s10.2-7.87,7.82-13.95c-1-2.55-2.98-4.33-5.48-5.41-3.42-1.48-6.4-.23-9.86-.71-6.92-.96-9.92,9.63-2.92,10.61h0Z"/>
    </g>
    <path class="cls-15" d="M155.8,244.7s7.08,72.45,18.35,68.59c0,0,3.09.64,4.29-6.75,0,0,.4,7.31,3.79,6.9,0,0,4.89.99,5.59-5.8.7-6.79,17.64-45.63,17.64-45.63l-49.67-17.3Z"/>
    <path class="cls-15" d="M248.7,245.73s10.16,44.98,41.22,41.78c0,0,.56,25.98,7.34,25.98s5.46-6.4,5.46-6.4c0,0,2.26,6.4,6.4,6.4s7.72-3.58,8.66-9.04c0,0,5.93-19.54,2.68-34.8-3.25-15.26-71.76-23.92-71.76-23.92Z"/>
    <path class="cls-7" d="M182.71,296.75c-6.64-.34-12.87-.55-18.98-2.1,2.84,11.49,6.36,20.03,10.43,18.63,0,0,3.09.64,4.29-6.75,0,0,.4,7.31,3.79,6.9,0,0,4.89.99,5.59-5.8.18-1.74,1.43-5.6,3.19-10.37-2.75-.06-5.47-.37-8.31-.51Z"/>
    <path class="cls-7" d="M295.81,296.61c-1.75.15-3.5.25-5.25.32.82,7.47,2.65,16.78,6.7,16.78,6.78,0,5.46-6.4,5.46-6.4,0,0,2.26,6.4,6.4,6.4s7.72-3.58,8.66-9.04c0,0,1.18-3.9,2.2-9.58-7.99,2.47-15.81,2.47-24.17,1.52Z"/>
    <g id="ear_left" data-name="ear left">
      <path class="cls-3" d="M54.07,81.95c-9.79,2.08-27.84,3.84-37.46-8.28-1.46-1.84-4.01-2.39-6.01-1.16-6.73,4.12-18.47,14.48-2.89,30.73.36.37.77.68,1.23.91,3.14,1.57,16.13,6.73,35.09-3.71,7.85-4.32,12.23-8.15,14.61-11.29,2.55-3.35-.46-8.08-4.58-7.21Z"/>
      <path class="cls-16" d="M8.53,73.89c9.44,13.96,27.27,23.76,43.63,21.41-2.18,1.62-4.84,3.34-8.12,5.14-18.96,10.43-31.95,5.27-35.09,3.71-.46-.23-.88-.54-1.23-.91-14.07-14.67-5.87-24.54.81-29.35Z"/>
    </g>
    <g id="ear_right" data-name="ear right">
      <path class="cls-7" d="M146.14,83.99c9.79,2.08,27.84,3.84,37.46-8.28,1.46-1.84,4.01-2.39,6.01-1.16,6.73,4.12,18.47,14.48,2.89,30.73-.36.37-.77.68-1.23.91-3.14,1.57-16.13,6.73-35.09-3.71-7.85-4.32-12.23-8.15-14.61-11.29-2.55-3.35.46-8.08,4.58-7.21Z"/>
      <path class="cls-16" d="M191.68,75.93c-9.44,13.96-27.27,23.76-43.63,21.41,2.18,1.62,4.84,3.34,8.12,5.14,18.96,10.43,31.95,5.27,35.09,3.71.46-.23.88-.54,1.23-.91,14.07-14.67,5.87-24.54-.81-29.35Z"/>
    </g>
    <g id="head">
      <path class="cls-6" d="M44.04,100.45s-2.07-35.77,8.12-43.05c10.19-7.28,6.89,16.12,14.16,16.5l-22.28,26.55Z"/>
      <path class="cls-6" d="M154.99,100.45s2.07-35.77-8.12-43.05c-10.19-7.28-6.89,16.12-14.16,16.5l22.28,26.55Z"/>
      <ellipse class="cls-3" cx="100.43" cy="123" rx="65.29" ry="62.83"/>
      <rect class="cls-16" x="68.16" y="155.8" width="64.55" height="33.97" rx="16.35" ry="16.35"/>
      <path class="cls-2" d="M85.41,170.4s9.65,1.49,10.8,10.92c.21,1.76-8.79-10.04-10.8-10.92Z"/>
      <path class="cls-2" d="M115.43,170.4s-9.65,1.49-10.8,10.92c-.21,1.76,8.79-10.04,10.8-10.92Z"/>
      <path class="cls-7" d="M104.27,62.49c-9.66,6.77-16.64,25.29-6.38,34.24,4.29,3.75,8.47,6.98,9.26,13,.71,5.43-2.28,12.63.86,17.5,7.56,11.71,21.02,3.28,31.35,1.71,8.1-1.23,18.45-.02,25.43,5.27.69-3.67,1.08-7.45,1.08-11.31,0-32.9-26.29-59.88-59.76-62.59-.36.81-.95,1.56-1.83,2.17Z"/>
      <path class="cls-7" d="M54.51,153.69c-4.32-4.09-5.28-8.49-2.3-13.85,1.78-3.2,2.15-5.09.97-8.65-.98-2.95-2.47-5.75-4.8-7.86-3.61-3.28-8.32-4.5-13.06-4.83-.11,1.49-.18,2.99-.18,4.51,0,16.9,6.95,32.24,18.24,43.53,3.95-3.47,5.96-8.26,1.13-12.84Z"/>
      <path class="cls-7" d="M54.86,105.88c.02.16.09.14.21-.06.9-.29.58-.69-.96-1.21.1-.08-.31,1.44-.36,1.52-.21.19-.46.32-.73.39,1.17,1.45,1.65,1.53,1.45.27.29-.63.29-1.29.7-1.89.27-.39,2.16-1.45,2.19-1.57-1.27-1.27-1.76-1.44-1.49-.53.02.35.02.71,0,1.06-.09.79-.4,1.6-.85,2.26-.34.5-1.09.84-1.36,1.29-.17.14-.36.22-.57.25.61.85.81.8.6-.16.38-.98-.15-2.22.38-3.25.69-1.34,2.32-1.87,3.7-2.15.25-.06.5-.11.75-.15.88.15.93-.07.15-.65-.47.7-.67,1.67-1.15,2.41-.52.81-1.14,1.66-1.91,2.26-.64.5-1.26.49-1.14.88-1.29-4.3-8.05-2.47-6.75,1.86,1.82,6.05,8.8,5.92,12.84,2.21,3.26-2.99,7.03-9.06,4.03-13.35s-9.96-2.7-13.58-.11c-4.11,2.93-6.08,10.25-3.1,14.61,3.35,4.9,10.03,2.01,12.78-1.85,2.4-3.37,3.64-10.2-.23-13.06-4.56-3.36-10.92,2.28-12.39,6.45-.81,2.3-.99,5.37.22,7.57,1.4,2.54,4.53,2.73,7.04,1.95,5.25-1.63,8.23-9.51,3.58-13.42-2.2-1.85-5.45-1.16-7.67.3-2.73,1.79-3.68,4.65-3.15,7.77.75,4.43,7.49,2.55,6.75-1.86h0Z"/>
      <path class="cls-1" d="M63.35,146.38c.71-1.35,1.52-2.66,2.46-3.87.73-.93,1.75-2.19,2.69-2.85.53-.38.88-.55,1.46-.48-.25-.03.23.08.24.08-.22-.1.25.22,0,0,.03.03.29.36.13.12.05.08.1.16.14.24-.05-.14-.05-.13.01.04.04.14.08.28.1.42-.04-.32-.02.15-.01.18.03.38.09-.24-.02.21-.03.11-.05.23-.09.34-.16.53-.6,1.18-.95,1.62-.86,1.09-1.96,2.14-3.01,2.88-.53.37-1.08.77-1.68,1.02.14-.06-.38.13-.32.11.05-.02-.52.11-.31.07-.33.07-.12-.05,0,.08.11.08.21.18.28.3.02.14.02.12,0-.07.06-1.3.38-2.45,1.24-3.56.71-.91,1.87-1.93,2.9-2.56l.15-.09c.17-.09.2-.11.1-.05-.06,0-.11,0-.17,0-.18-.04-.31-.13-.39-.29.28.29-.14-.21.05.14-.08-.15.02-.29-.05-.04-.1.35.08-.06-.11.25-.11.19-.23.38-.35.56.02-.03-.3.4-.16.23-.14.17-.29.34-.44.5-1.03,1.1-2.22,1.84-3.64,2.55l2.2,1.69c.38-1.59,1.09-3.03,2.13-4.23.67-.77.53-1.78-.3-2.36-1.06-.73-2.24-.12-3.1.59-.74.62-1.43,1.31-2.05,2.05-1.29,1.55-2.44,3.8-1.06,5.7l2.36-1.82c-.2-.2-.11-.09-.05-.01l-.04-.16c.02.1.02.1.02,0,.02-.33.03-.61-.04-.94-.17-.91-.87-1.42-1.76-1.5-.82-.07-1.49.75-1.5,1.5-.02.99.08,2,.72,2.81.67.85,1.75,1.28,2.81.98l-1.16-2.74c-.17.12-.06.04.07.02.09,0,.09,0,0,0-.11,0-.09,0,.06,0,.05.08.1.09-.01-.02-.01-.01.15.14.15.14.08.05-.08-.23-.04-.04,0-.04,0-.41-.01-.29,0,.1.08-.29.08-.3,0,0,.09-.25.04-.13.4-.94,1.16-1.91,1.71-2.58,1.39-1.68,2.87-2.88,4.86-3.75.74-.32.91-1.41.54-2.05-.45-.77-1.31-.86-2.05-.54-2.73,1.19-4.93,3.31-6.62,5.73-.93,1.33-1.85,2.87-1.46,4.56s2.58,3,4.19,1.86c.61-.43.93-1.15.61-1.87-.3-.67-1.04-1.08-1.77-.87.04-.01.6.06.24,0,.17.03.14.22.08.03-.04-.14-.03-.04-.04-.24-.01-.23,0-.46,0-.68l-1.5,1.5h.09c-.25-.06-.5-.13-.76-.2-.09-.04-.61-.63-.52-.79-.02.04,0,.19,0,.24-.02.32,0,.59.06.91.12.6.45,1.14.88,1.57.53.52,1.39.58,1.97.12.54-.43.83-1.32.39-1.94,0,0-.21-.31-.16-.24.07.12-.07-.26-.03-.04-.06-.34-.04-.25.04-.57.09-.37.48-.89.74-1.21.4-.48.83-.94,1.28-1.37.23-.22.46-.42.7-.63.11-.1-.01,0,.15-.12l.13-.07c-.22.15-.46.15-.75,0l-.3-2.36c-1.39,1.6-2.41,3.48-2.9,5.55-.31,1.32,1.03,2.28,2.2,1.69,1.64-.82,3.25-1.87,4.47-3.27,1.3-1.48,2.71-3.98.8-5.62s-4.34.56-5.76,1.88-2.61,3.06-2.98,5.01c-.2,1.08-.35,2.34.22,3.33.67,1.17,2.17,1.27,3.34.96,1.9-.5,3.68-1.98,5.06-3.32s2.86-3.02,3.2-4.95c.35-2.04-.61-4.34-2.79-4.82-2.53-.56-4.51,1.25-6.06,3s-2.81,3.58-3.86,5.59c-.38.72-.18,1.63.54,2.05.68.4,1.68.18,2.05-.54h0Z"/>
      <path class="cls-1" d="M136.63,145.68c-.94-1.8-2.08-3.47-3.38-5.03s-2.75-3.23-4.76-3.57c-2.19-.38-4.26.91-4.59,3.17s.88,4.01,2.25,5.59c1.26,1.45,2.81,2.76,4.5,3.69,1.01.56,2.18.96,3.35.73,1.32-.26,1.9-1.47,1.9-2.71,0-2.13-.86-4.08-2.21-5.69-.59-.71-1.28-1.32-2.01-1.89-.87-.68-1.78-1.48-2.93-1.57-1.32-.1-2.44.9-2.65,2.17s.39,2.38,1.13,3.35c1.31,1.73,3.09,2.99,5.02,3.96,1.17.59,2.52-.38,2.2-1.69-.49-2.07-1.51-3.95-2.9-5.55l-.3,2.36c-.27.14-.5.15-.7.02-.07-.04-.06-.03.02.01.03.03.27.19.15.09.25.19.47.41.7.62.48.45.93.93,1.35,1.43.17.2.24.29.4.55.13.2.27.47.31.58.04.13.09.27.1.4-.02-.2-.02.11-.02.17,0,.11,0,.11,0,0l-.04.15c.12-.19-.15.21-.15.2-.43.6-.16,1.53.39,1.94.59.44,1.43.42,1.97-.12.43-.43.76-.97.88-1.57.06-.29.08-.57.06-.86,0-.06,0-.17-.01-.23,0-.09,0-.08-.02.03-.04.29-.21.53-.5.7l-.76.2h.09c-.5-.51-1-1.01-1.5-1.51,0,.23,0,.46,0,.68-.01.2,0,.11-.04.24-.06.19-.09,0,.08-.03-.37.06.19-.01.24,0-.71-.2-1.5.19-1.77.87-.29.73-.01,1.43.61,1.87,1.6,1.13,3.69-.07,4.17-1.78s-.51-3.31-1.44-4.64c-1.69-2.41-3.89-4.54-6.62-5.73-.74-.32-1.61-.22-2.05.54-.37.64-.21,1.73.54,2.05,1.99.87,3.47,2.08,4.86,3.75.55.66,1.25,1.59,1.67,2.5.05.11.14.34.17.55-.03-.21-.01.13-.02.17,0,.11,0,.11,0,0l-.05.15s.04-.1.11-.15c.07-.04.06-.04-.01,0-.09.05-.08.05.05-.01.04-.07.22.06,0,0,.11.03.36.14.14-.02l-1.16,2.74c1.06.3,2.14-.13,2.81-.98.63-.81.73-1.82.72-2.81-.01-.76-.68-1.57-1.5-1.5-.89.08-1.59.59-1.76,1.5-.05.28-.08.57-.04.86,0,.17,0,.22.02.12.02-.09.01-.05-.03.12.05-.07.16-.2-.05.01l2.36,1.82c1.38-1.9.23-4.15-1.06-5.7-.6-.72-1.26-1.39-1.98-1.99-.87-.74-2.07-1.41-3.17-.65-.83.57-.97,1.59-.3,2.36,1.03,1.19,1.75,2.64,2.13,4.23l2.2-1.69c-1.24-.62-2.36-1.31-3.29-2.2-.5-.48-.8-.83-1.13-1.36-.16-.26-.23-.35-.28-.53-.1-.35.02-.04-.05.04.05-.17.04-.18-.02-.03.09-.15.09-.15,0-.01.39-.14-.52.31-.49.19l-.05-.03c.1.05.2.11.3.17.29.18.56.39.84.6.42.32,1.07.88,1.52,1.36.87.91,1.51,1.97,1.74,3.29.04.23.03.54.05.87s-.04.07.06,0c-.19.16.42-.41.41-.3,0,.07-.7-.13-.83-.19-.24-.1-.64-.35-.93-.53-1.15-.72-2.11-1.54-3.05-2.57-.47-.51-.83-.94-1.18-1.5-.17-.27-.32-.54-.4-.75-.04-.11-.07-.22-.1-.34-.03-.11-.05-.23-.07-.35.02.16.03.15.01-.03,0-.03.03-.5-.01-.18.02-.14.06-.28.1-.42.1-.38-.12.17.08-.16.22-.37-.19.18.1-.14.19-.21-.15,0,.16-.12-.22.08.26-.07.25-.07-.25.05.25,0,.25,0,.19.01.22.01.1,0,.11.02.22.05.32.08.22.06.57.27.86.49.12.09.43.39.62.58.6.6,1.17,1.24,1.71,1.9,1,1.23,1.92,2.69,2.68,4.14.38.72,1.38.93,2.05.54.73-.43.91-1.33.54-2.05h0Z"/>
    </g>
  </g>
  <g id="cat">
    <g id="Layer_14" data-name="Layer 14">
      <path class="cls-10" d="M267.72,107.5c-.39-4.55-2.92-8.32-4.48-12.49-1.93-5.16-2.41-10.57-1.78-16.02.33-2.83-4.1-2.8-4.43,0-.16,1.41-.24,2.82-.25,4.22-.63-.13-1.32.02-1.89.61-.65.67-1.35,1.21-2.1,1.68-1.57.45-3.66.15-4.97.16-2.42,0-4.85.02-7.27.03-.31-.07-2.3-5.02-2.62-4.92-.85.16,1.07,2.36-.58,7.38-.55,1.4-1.04,1.6-1.93,3.58-1.85,3.41-3.08,7.1-3.93,10.98-.64,2.91-2.75,9.04-.53,11.8.8,1.42,2.05,2.47,3.58,3.32,1.07.6,2.11.92,3.16,1.07,5.75,2.12,11.79,2.93,17.42,1.11,7-.63,13.29-4.62,12.6-12.52Z"/>
      <path class="cls-8" d="M241.49,98.89c1.42.33,2.45.95,3.2,1.74.03.03.05.05.07.08,2.42,2.66,1.73,7.18,1.71,9.4-.03,2.74-.38,5.45-.78,8.13-.14.93-.21,1.88-.49,2.73,1.29,1.38,1.34,3.04-1.27,3.59-1.41.3-3.21.03-4.48-.77-1.53-.97-1.29-1.85-1.39-2.88-1.77-4.61-1.55-9.46-2.06-14-.3-2.7-2.11-9.79,5.5-8.02Z"/>
      <path class="cls-5" d="M253.8,99.23c-1.43.34-2.46.96-3.21,1.76-.03.03-.05.05-.07.08-2.44,2.68-1.78,7.22-1.77,9.44.01,2.76.35,5.47.73,8.17.13.94.2,1.88.47,2.75-1.3,1.39-1.36,3.06,1.25,3.6,1.41.29,3.22.02,4.49-.79,1.54-.98,1.31-1.86,1.41-2.9,1.8-4.63,1.61-9.5,2.15-14.06.32-2.71,2.17-9.83-5.45-8.04Z"/>
      <path class="cls-10" d="M282.8,77.85c-5.87-1.15-12.44.8-11.4,8.01.64,4.45,1.55,8.1.5,12.63-.54,2.34-3.29,12.22-7.07,10.95-1.16-.39-2.03.17-2.44,1.01-1.62.59-3.58,5.39-1.63,6.33,7.11,3.41,13.79-5.01,15.88-11.37,1.37-4.17,1.84-8.76,1.05-13.09-.35-1.93-1.15-3.75-1.48-5.68-.69-3.94,1.99-5.03,5.41-4.51,2.76.42,4.01-3.71,1.18-4.27Z"/>
      <path class="cls-19" d="M275.09,100.2c-.02,2.21.63,3.76,1.6,5.2,1.11-3.45,1.6-7.18,1.28-10.81-1.68,1.4-2.86,3.42-2.88,5.61Z"/>
      <path class="cls-12" d="M277.4,77.73c-1.39,1.51-.86,3.18.43,4.68.98-.44,2.28-.51,3.71-.29,2.76.42,4.01-3.71,1.18-4.27-1.79-.35-3.64-.41-5.32-.13Z"/>
      <path class="cls-12" d="M253.19,118.19c-.76.14-2.6.59-3.6,1.35.08.65.17,1.29.36,1.88-1.3,1.39-1.36,3.06,1.25,3.6,1.41.29,3.22.02,4.49-.79,1.54-.98,1.31-1.86,1.41-2.9.33-.86.6-1.72.81-2.59-1.5-.56-3.02-.89-4.72-.57Z"/>
      <path class="cls-19" d="M236.32,101.39c2.57.09,4.43-.1,6.31-.86,1.07-.43,2.17-1.09,3.14-1.79-.51.32,1.24-1.29,1.52-1.57.09-.1.15-.17.2-.23.2-.29.41-.58.6-.88.22-.35,1.46-2.84,1.27-2.25.81-2.14,1.28-4.36,1.74-6.59.03-.16.06-.29.09-.39,0-.13,0-.29.02-.5.03-.65.08-1.29.12-1.93-1.15.04-2.33-.08-3.17-.08-2.42,0-4.85.02-7.27.03-.31-.07-2.3-5.02-2.62-4.92-.85.16,1.07,2.36-.58,7.38-.55,1.4-1.04,1.6-1.93,3.58-1.74,3.2-2.93,6.66-3.77,10.29,1.54.42,2.98.66,4.34.71Z"/>
    </g>
    <g id="Layer_13" data-name="Layer 13">
      <path class="cls-13" d="M267.39,65.13c-.06-3.38-.2-6.76-.65-10.11-.46-3.39-.31-4.34-1.75-7.45-.57-1.23-2.08-3.78-3.59-3.73-1.67.05-3.06.42-3.85,1.7-1.77,2.86-2.82,6.09-3.2,9.42-2.35-.84-4.93-1.3-7.63-1.3-1.6,0-3.15.17-4.63.47-.65-1.81-1.49-3.56-2.5-5.18-1.21-1.93-3.1-4.83-5.64-4.75-.39-.1-.8-.16-1.25-.14-1.1.04-2.22.77-2.49,1.9-1.98,8.39-3.17,16.92-3.57,25.53-.04.76-.02.81.27,1.96,1.58,7.91,10.04,13.73,19.82,13.73s17.17-5.51,19.22-12.91c1.3-2.88,1.51-6,1.46-9.13Z"/>
      <path class="cls-19" d="M247.46,68.58c1.81,3.04,6.77,4.07,9.54,6.24,2.4,1.87,3.96,4.12,6.12,4.89,1.29-1.64,2.27-3.48,2.82-5.45,1.3-2.88,1.51-6,1.46-9.13-.06-3.38-.2-6.76-.65-10.11-.46-3.39-.31-4.34-1.75-7.45-.57-1.23-2.08-3.78-3.59-3.73-1.67.05-3.06.42-3.85,1.7-1.77,2.86-2.82,6.09-3.2,9.42-2.17-.77-4.54-1.22-7.02-1.29-.94,5.1-2.24,10.94.14,14.93Z"/>
      <path class="cls-11" d="M241.03,70.96c-.15,0-.31-.03-.46-.05-.06-.01-.12-.03-.18-.05-.12-.05-.27-.1-.38-.18-.09-.06-.18-.13-.26-.2-.01-.01-.03-.02-.04-.03-.1-.08-.19-.18-.27-.3-.03-.04-.04-.09-.06-.13-.09-.16-.16-.33-.23-.49-.04-.14-.05-.27-.02-.41,0-.09.02-.18.07-.26.04-.13.11-.24.21-.33.07-.05.14-.11.21-.16.14-.07.29-.13.44-.19.06-.02.12-.04.18-.04.13-.02.27-.05.41-.04.13.01.22.03.3.05-.02-1.01-.04-2.03-.28-3-.14-.55-.52-1.11-1.39-1.13-.8-.01-1.47.51-1.82,1-.74,1.02-.56,2.25-.52,3.37.06,1.34.11,2.67.17,4.01.01.35.03.73.21,1.04.06.17.14.34.28.48.48.53,1.44.59,2.12.26.65-.32,1.07-.87,1.24-1.43.18-.58.2-1.19.16-1.8-.03,0-.06,0-.09,0Z"/>
      <path class="cls-20" d="M239.13,69.12c0-.09.02-.18.07-.26.04-.13.11-.24.21-.33.07-.05.14-.11.21-.16.14-.07.29-.13.44-.19.06-.02.12-.04.18-.04.13-.02.27-.05.41-.04.1,0,.18.02.25.04-.02-1.04-.03-2.11-.29-3.11-.14-.55-.52-1.11-1.39-1.13-.8-.01-1.47.51-1.82,1-.74,1.02-.56,2.25-.52,3.37.01.34.03.67.04,1.01h2.19c0-.05,0-.1.01-.16Z"/>
      <path class="cls-11" d="M255.15,70.87c-.14-.03-.27-.09-.4-.13-.23-.03-.44-.13-.61-.29-.13-.13-.21-.28-.26-.45-.01-.09-.02-.18-.04-.27,0-.14.02-.27.09-.39.04-.13.11-.24.21-.33.09-.1.2-.17.33-.21.12-.06.25-.09.39-.09.04,0,.08,0,.11,0,.03,0,.06,0,.09,0,.11,0,.22.01.33.02-.03-1.15-.01-2.34-.3-3.45-.14-.55-.52-1.11-1.39-1.13-.8-.01-1.47.51-1.82,1-.74,1.02-.56,2.25-.52,3.37.06,1.34.11,2.67.17,4.01.01.35.03.73.21,1.04.06.17.14.34.28.48.48.53,1.44.59,2.12.26.65-.32,1.07-.87,1.24-1.43.19-.63.2-1.3.15-1.96-.14,0-.28-.02-.41-.05Z"/>
      <path class="cls-20" d="M253.93,69.34c.04-.13.11-.24.21-.33.09-.1.2-.17.33-.21.12-.06.25-.09.39-.09.04,0,.08,0,.11,0,.03,0,.06,0,.09,0,.1,0,.19.01.28.02-.04-1.19,0-2.42-.3-3.57-.14-.55-.52-1.11-1.39-1.13-.8-.01-1.47.51-1.82,1-.74,1.02-.56,2.25-.52,3.37.01.34.03.67.04,1.01h2.53s.01-.05.03-.07Z"/>
      <path class="cls-12" d="M227.34,74.52c1.93,7.36,9.87,12.72,19.09,12.92-2.32-8.2-10.65-12.54-19.09-12.92Z"/>
      <path class="cls-9" d="M248.22,78.62c-.7-.08-1.35-.59-1.6-1.25-.1-.27-.52-.4-.67-.09-.27.55-.79.98-1.41,1.05-.2.02-.37.15-.37.37,0,.18.17.39.37.37.66-.08,1.28-.4,1.7-.89.45.65,1.16,1.09,1.98,1.18.2.02.37-.19.37-.37,0-.22-.17-.35-.37-.37Z"/>
      <path class="cls-9" d="M278.78,66.51c-5.36.18-10.62,1.82-15.13,4.74-.4.26-.03.9.37.64,4.4-2.85,9.52-4.46,14.76-4.64.47-.02.48-.75,0-.74Z"/>
      <path class="cls-9" d="M269.84,75.42c-2.26-.44-4.56-.59-6.86-.46-.47.03-.48.77,0,.74,2.23-.13,4.47,0,6.66.43.46.09.66-.62.2-.71Z"/>
      <path class="cls-9" d="M270.98,84.81c-1.14-1.51-2.42-2.9-3.83-4.15-1.31-1.15-2.8-2.39-4.63-2.44-.48-.01-.47.73,0,.74,1.7.05,3.12,1.34,4.32,2.42,1.29,1.16,2.46,2.43,3.5,3.81.28.37.92,0,.64-.37Z"/>
      <path class="cls-9" d="M214.6,65.5c5.36.18,10.62,1.82,15.13,4.74.4.26.03.9-.37.64-4.4-2.85-9.52-4.46-14.76-4.64-.47-.02-.48-.75,0-.74Z"/>
      <path class="cls-9" d="M223.54,74.41c2.26-.44,4.56-.59,6.86-.46.47.03.48.77,0,.74-2.23-.13-4.47,0-6.66.43-.46.09-.66-.62-.2-.71Z"/>
      <path class="cls-9" d="M222.41,83.8c1.14-1.51,2.42-2.9,3.83-4.15,1.31-1.15,2.8-2.39,4.63-2.44.48-.01.47.73,0,.74-1.7.05-3.12,1.34-4.32,2.42-1.29,1.16-2.46,2.43-3.5,3.81-.28.37-.92,0-.64-.37Z"/>
      <path class="cls-18" d="M246.93,74.99h-1c-.19,0-.38.17-.37.37,0,.2.16.37.37.37h1c.19,0,.38-.17.37-.37,0-.2-.16-.37-.37-.37Z"/>
    </g>
  </g>
</svg>