<?xml version="1.0" encoding="UTF-8"?>
<svg xmlns="http://www.w3.org/2000/svg" viewBox="0 0 355.55 328.66">
  <defs>
    <style>
      .cls-1 {
        fill: #98cdf4;
      }

      .cls-2 {
        fill: #3f3832;
      }

      .cls-3 {
        fill: #f2f0ff;
      }

      .cls-4 {
        fill: #9b6f67;
      }

      .cls-5 {
        fill: #efe7dc;
      }

      .cls-6 {
        fill: #d8c6b4;
      }

      .cls-7 {
        fill: #b2936f;
      }

      .cls-8 {
        fill: #efcb8e;
      }

      .cls-9 {
        fill: #e5c583;
      }

      .cls-10 {
        fill: #534741;
      }

      .cls-11 {
        fill: #f2da99;
      }

      .cls-12 {
        fill: #f7e0aa;
      }

      .cls-13 {
        fill: #a2a8e0;
      }

      .cls-14 {
        fill: #fff;
      }

      .cls-15 {
        fill: #c3bfef;
      }

      .cls-16 {
        fill: #d7f0ff;
      }

      .cls-17 {
        fill: #f0f2f7;
      }

      .cls-18 {
        fill: #88a5d3;
      }

      .cls-19 {
        opacity: .12;
      }

      .cls-20 {
        fill: #6b88b2;
      }

      .cls-21 {
        fill: #eae2d8;
      }

      .cls-22 {
        fill: #e8e7f7;
      }

      .cls-23 {
        fill: #bc9388;
      }

      .cls-24 {
        fill: #352d29;
      }

      .cls-25 {
        fill: #fff0ca;
      }

      .cls-26 {
        fill: #89afe5;
      }
    </style>
  </defs>
  <g id="Layer_1" data-name="Layer 1">
    <ellipse class="cls-19" cx="218.5" cy="311.88" rx="125.43" ry="16.79"/>
    <g id="tail">
      <path id="tail-2" data-name="tail" class="cls-10" d="M305.67,135s41.48,13.92,26.64-30.86c0,0,30.11,28.47-11.71,53.01-41.82,24.54-14.92-22.15-14.92-22.15Z"/>
      <path class="cls-10" d="M333.44,103.37c-3.55.16-7.03-1.87-9.91-3.78s-3.6-5.45-3.25-8.77c.19-1.76.56-3.62,1.14-5.29.44-1.24,1.08-2.33,2.44-1.47,2.81,1.78,4.92,4.95,6.25,7.93.63,1.42,2.79.63,2.8-.76,0-1.94-.06-4.18,1.01-5.89.75-1.2,2.56-2.36,3.89-1.34,1.48,1.13,1.94,3.92,2.08,5.64.19,2.28-.18,4.48-1.01,6.61-.59,1.49,1.5,2.39,2.51,1.46.76-.71,1.63-1.3,2.61-1.68.27-.1.66-.3.66-.27,0,.35-.82.88-1.03,1.05-1.8,1.43-3.69,2.76-5.58,4.06-.95.65-1.91,1.3-2.88,1.92s-1.83,1.43-3,.79c-1.77-.97-3.44-2.55-4.9-3.93-1.59-1.51-3.03-3.24-3.84-5.31-.71-1.81-1.18-4.34-.03-6.07.42-.64,1-1.19,1.74-.7.83.55,1.44,1.94,1.91,2.79,1.08,1.95,1.9,4.02,2.45,6.19.07.28.14.57.2.86.13.58-.05.98.51.59.79-.55.18-.11,0-.33-.11-.14-.47-.3-.6-.43-.77-.74-1.21-1.84-1.63-2.81-1.09-2.49-1.88-5.11-2.43-7.77l-2.2,1.69c2.43,1.66,3.87,4.73,3.46,7.66l2.2-.9c-1.65-1.13-2.55-3.22-2.2-5.19l-1.45,1.1c.62.07,1.28,1.58,1.48,2.06.12.25.2.51.24.78.01.15-.03.29-.11.41.45-.13.5.02.15.46.02-.02,0,0-.02.06,1.28,1.45,3.39-.68,2.12-2.12s-3.9-1.15-4.67.7c-.82,1.98,1.07,4.25,3.17,3.78s2.7-3.03,2.03-4.85c-.75-2.03-2.11-4.02-4.39-4.28-.6-.07-1.34.51-1.45,1.1-.6,3.38.73,6.64,3.58,8.58.73.5,2.07.04,2.2-.9.6-4.36-1.18-8.56-4.84-11.05-1.16-.79-2.45.51-2.2,1.69.72,3.44,1.78,7.08,3.54,10.16.63,1.11,1.51,2.18,2.68,2.73,1.31.62,3.34.54,3.92-1.02.48-1.28-.27-3.19-.63-4.42-.48-1.68-1.13-3.31-1.9-4.88-1.24-2.51-3.27-6.55-6.74-5.51-3.11.93-4.01,4.78-3.7,7.59.35,3.23,2,6.11,4.16,8.47,1.14,1.24,2.42,2.34,3.74,3.39,1.22.97,2.5,2.2,4,2.7s2.88.03,4.19-.78c1.7-1.05,3.35-2.2,4.98-3.35s3.21-2.3,4.76-3.53c1.21-.96,2.25-2.21,1.98-3.86-.75-4.56-6.48-1.31-8.35.43l2.51,1.46c1.17-2.96,1.44-6.18.87-9.31-.47-2.56-1.57-5.76-4.2-6.79-2.32-.9-4.98.21-6.5,2.04-1.9,2.28-2.01,5.42-2.03,8.25l2.8-.76c-1.77-3.95-9.57-14.78-13.56-7.19-.77,1.47-1.11,3.15-1.44,4.76-.39,1.94-.66,3.95-.45,5.93.34,3.32,1.81,6.19,4.59,8.09,3.31,2.27,7.47,4.49,11.59,4.3,1.92-.09,1.93-3.09,0-3h0Z"/>
    </g>
    <path class="cls-10" d="M319.62,85.39c-1.45,8.48,3.34,14.95,10.29,19.27,1.16-2.74,2.31-5.48,3.47-8.22-1.46-.26-2.88-.56-4.28-1.05-.63-.2-1.25-.44-1.84-.74-1.08-.8-1.17-.43-.27,1.11l-4.34,3.3c2.36-.26,6.44,3.8,8.31,5.25l1.99-7.52c-2.49.48-5.07-.24-6.79-2.15-.83-.93-1.44-2.11-1.69-3.34-.13-.55-.17-1.1-.11-1.66-1,.27-1.29.51-.86.71.13.62,1.29,1.98,1.61,2.68.49,1.11.88,2.27,1.41,3.36,1.11,2.29,2.67,4.04,4.79,5.44,2.86,1.89,6.83-.6,6.77-3.89-.04-1.85-.07-3.71-.11-5.56-.02-.88.11-1.92-.05-2.78l-.03-1.39c-3.26-1.47-4.88-1.29-4.85.54-.52,1.26-.55,3.03-.91,4.38-.46,1.72-1.03,3.39-1.66,5.05-2.05,5.42,6.64,7.77,8.68,2.39,2.09-5.52,6.08-16.5-1.89-19.3-3.14-1.1-6.52.4-7.79,3.47-1.55,3.74-.47,9.24-.39,13.2l6.77-3.89c-1.79-1.18-2.29-4.18-3.15-6-1.13-2.41-2.8-4.54-5.22-5.75-4.67-2.33-10.4-.26-11.81,4.93-1.29,4.75.82,10.31,4.11,13.76,4.09,4.29,9.87,5.56,15.55,4.46,3.11-.6,4.6-5.48,1.99-7.52-3.86-3.01-9.37-8.48-14.67-7.88-2.08.23-3.68,1.25-4.34,3.3-2.45,7.58,7.04,10.76,12.67,11.75,4.87.86,8.02-5.4,3.47-8.22-3.07-1.91-6.86-4.98-6.16-9.1.97-5.66-7.7-8.1-8.68-2.39h0Z"/>
    <path class="cls-10" d="M334.77,104.31c5.79,0,5.8-9,0-9s-5.8,9,0,9h0Z"/>
    <path class="cls-10" d="M326.68,91.53v-2.29c0-.26.18-1.85,0-1.32l-1.16,1.99-.31.28-2.27.61c-1,.1-2.17-1.63-1.58-.49,2.11,4.03,8.38,2.06,8.39-2.27,0-4.99-5.53-8.37-9.97-5.99s-4.98,7.56-3.51,11.9c.72,2.11,2.66,3.57,4.94,3.22,2.15-.32,3.95-2.14,3.9-4.42-.03-1.34-.06-2.67-.09-4.01,0-.33.11-1.34,0-1.67-.71,1.89-1.69,2.6-2.94,2.11-.4-.04-.71-.24-.91-.62.12-.09,1.5,5.57,1.56,6.27.23,2.42,1.91,4.5,4.5,4.5,2.26,0,4.73-2.07,4.5-4.5-.48-5.17-1.51-12.86-7.54-14.33-3.36-.82-6.78,1.12-7.82,4.41-.77,2.43-.33,5.35-.27,7.85l8.84-1.2c-.04-.12-.55-2.17-.48-2.14.1.04-.56.62-.59.64-1.28.72-3.13-.64-3.13-2.01l8.39-2.27c-1.59-3.04-5.11-5.16-8.47-3.35s-3.01,5.72-3,9.11c.02,5.79,9.02,5.8,9,0h0Z"/>
    <path class="cls-10" d="M339.07,101.2c1.26,0,2.48-.34,3.6-.92s2.01-1.45,2.74-2.46c.29-.4.33-1.09.2-1.54s-.49-.97-.92-1.2c-.46-.25-1.03-.37-1.54-.2s-.88.47-1.2.92c-.04.06-.08.11-.13.17l.31-.4c-.29.37-.62.71-1,1l.4-.31c-.41.32-.86.58-1.34.78l.48-.2c-.46.19-.94.32-1.43.39l.53-.07c-.24.03-.47.05-.71.05-.52,0-1.05.22-1.41.59s-.61.92-.59,1.41c.05,1.08.88,2.01,2,2h0Z"/>
    <path class="cls-6" d="M232.45,242.54s7.08,72.45,18.35,68.59c0,0,3.09.64,4.29-6.75,0,0,.4,7.31,3.79,6.9,0,0,4.89.99,5.59-5.8.7-6.79,6.49-46.83,6.49-46.83l-38.52-16.1Z"/>
    <path class="cls-6" d="M108.1,243.65s7.08,72.45,18.35,68.59c0,0,3.09.64,4.29-6.75,0,0,.4,7.31,3.79,6.9,0,0,4.89.99,5.59-5.8s6.49-46.83,6.49-46.83l-38.52-16.1Z"/>
    <path class="cls-24" d="M133.78,293.82c-4.67.22-9.33-.3-13.89-1.34-1.53-.35-3.12-.72-4.61-1.21,2.98,13.38,6.83,24.08,11.34,22.53,0,0,3.09.64,4.29-6.75,0,0,.4,7.31,3.79,6.9,0,0,4.89.99,5.59-5.8.23-2.26,1.03-8.22,1.99-15.16-2.82.4-5.66.7-8.51.83Z"/>
    <path class="cls-24" d="M255.61,297.65c-4.84.11-9.83-.63-14.5-1.91,2.74,10.36,6.06,17.74,9.87,16.44,0,0,3.09.64,4.29-6.75,0,0,.4,7.31,3.79,6.9,0,0,4.89.99,5.59-5.8.18-1.72.68-5.55,1.33-10.33-3.34.86-6.79,1.37-10.37,1.46Z"/>
    <g id="body">
      <path class="cls-21" d="M83.28,143.66s-11.18,86.05,26.74,112.02c0,0,17.05,11.71,49.13,16.8,32.08,5.09,37.17,10.18,37.17,10.18,0,0,29.53-6.62,58.56-23.93l65.69,13.24s-3.06-45.5,13.75-90.47c0,0-.05-51.51-57.03-70.36,0,0-35.64-17.3-85.54,7.35,0,0-22.98,8.01-36.58-9.65l-71.88,34.81Z"/>
      <path class="cls-10" d="M192.02,118.97c.05,3.61-.22,7.17-.65,10.76-.28,2.17-.56,4.33-.86,6.5-.29,2.17-.32,2.38-.08.62-.14,1.18-.29,2.35-.4,3.53-.22,2.34-.18,4.66-.28,7-.01.34.11,1.24.16,1.61.17.76.37,1.51.61,2.25-.54-1.1-.59-1.16-.14-.2.47,1.1,1.03,2.16,1.62,3.2.33.57.67,1.13,1.03,1.68,0-.08,1.21,1.48,1.68,1.94.54.54,1.11,1.05,1.69,1.54.63.34,1.26.65,1.52.8.26.15.91.57,1.58.96.2.08.52.2.98.38.4.14.81.29,1.21.43,2.32.81,4.7,1.47,7.08,2.07,9.3,2.33,18.17,3.45,26.02,9.51,4.36,3.37,7.85,7.77,10.36,12.69.51,1,.96,2.03,1.42,3.06.49,1.17.89,2.1,1.18,2.8.08.18.16.35.25.53,1.2,2.23,2.41,4.41,3.69,6.59.07.12.12.22.18.31.08.08.15.15.25.24.75.74,1.53,1.53,2.24,2.31.27.3.78.71,1.14,1,.47.32.95.63,1.44.92.95.58,1.94,1.06,2.91,1.6.04.02.07.04.11.06.04,0,.07.02.11.03,2.44.62,4.8,1.53,7.28,2.08.51.11,1.35.4,2.13.59.25-.05.61-.08,1.08-.07,1.93.03,3.83.15,5.76.04.2-.01.41-.04.63-.07-.77-.05-.48-.53,1.58-.25,1.72-.45,3.43-.85,5.12-1.43.52-.42,1.68-.75,2.22-1.03,1.57-.83,3.1-1.74,4.58-2.72.65-.43,1.29-.89,1.93-1.34.04-.04.07-.06.12-.11,1.37-1.24,2.78-2.42,4.1-3.71,2.88-2.79,5.46-5.81,8.04-8.88.23-.28.47-.5.69-.68.43-.62.84-1.34,1.17-1.8,1.16-1.61,2.29-3.24,3.4-4.88,6.15-9.12,11.64-18.75,17.2-28.23-7.58-17.83-20.01-31.74-49.26-42.08,0,0-35.64-17.3-85.54,7.35,0,0-.1.03-.29.09,0,.13.02.25.03.38Z"/>
      <path class="cls-10" d="M118.13,168.22c-2.9-12.95-4.82-26.57-3.75-39.62l-31.09,15.06s-7.02,54.07,8.96,89.43c2.39-3.38,5.89-6.03,9.86-7.3.06-.02.1-.03.15-.05.04-.03.08-.05.12-.07.29-.16.56-.34.85-.52.68-.85,2.19-1.83,2.81-2.49.5-.53.99-1.07,1.46-1.63.13-.16.23-.29.33-.4,1.19-1.86,3-5.05,3.31-5.63.72-1.35,1.36-2.72,2.01-4.1.23-.59.46-1.18.68-1.78,2.12-5.8,3.51-11.74,4.63-17.8,0-.01,0-.02,0-.04.02-.25.05-.56.08-.94.13-1.44.23-2.87.27-4.32.03-1,.03-1.99,0-2.99-2.38-4.41-2.88-9.6-.69-14.82Z"/>
      <path class="cls-10" d="M200.32,197.33c2.02.28,5.32.96,7.31.12l1.1-.02-.26-2.96c-.14-.02-2.3,2.12-2.67,2.4-.71.53-2.59,1.15-3.05,1.89l-.84.27c1.39.93,1.91.9,1.57-.06.56-.47-.47-1.23.5-1.79.6-.35,2.33-.2,2.93.08,2.37,1.1,1.18,2.26-.56,2.94l-1.24.34c-1.41-.07-1.63.22-.67.88.65.82.76.82.35,0-.28-.57-.42-1.19-.43-1.84-.16-5.17,7.32-5.12,8.41-.76.83,3.34-7.84,6.19-10.45,5.46-3.85-1.08-1.98-7.62-.31-10.03,1.58-2.28,7.77-4.26,9.24-2.47.79.96,1.4,5.56.8,6.69-.9,1.7-3.93,1.83-5.58,2.07-6.98,1-4.01,11.6,2.92,10.61,4.79-.69,9.66-2.69,12.16-7.1,2.69-4.75,1.79-11.4-.11-16.3-4.1-10.6-20.3-8.98-26.94-1.75s-8.24,21.96,1.11,27.43c8.82,5.16,24.08-.42,27.56-10,3.91-10.77-8.98-21.37-19.2-18.43s-14.93,17.73-6.48,24.98c3.84,3.29,10.11,1.82,14.29-.15,4.9-2.31,8.05-6.84,7.39-12.36-1.35-11.26-18.21-15.95-24.87-6.45-3.05,4.34-2.57,12.49,1.13,16.39,4.28,4.5,10.9,2.35,15.33-.6s10.2-7.87,7.82-13.95c-1-2.55-2.98-4.33-5.48-5.41-3.42-1.48-6.4-.23-9.86-.71-6.92-.96-9.92,9.63-2.92,10.61h0Z"/>
    </g>
    <path class="cls-21" d="M155.8,244.7s7.08,72.45,18.35,68.59c0,0,3.09.64,4.29-6.75,0,0,.4,7.31,3.79,6.9,0,0,4.89.99,5.59-5.8.7-6.79,17.64-45.63,17.64-45.63l-49.67-17.3Z"/>
    <path class="cls-21" d="M248.7,245.73s10.16,44.98,41.22,41.78c0,0,.56,25.98,7.34,25.98s5.46-6.4,5.46-6.4c0,0,2.26,6.4,6.4,6.4s7.72-3.58,8.66-9.04c0,0,5.93-19.54,2.68-34.8-3.25-15.26-71.76-23.92-71.76-23.92Z"/>
    <path class="cls-10" d="M182.71,296.75c-6.64-.34-12.87-.55-18.98-2.1,2.84,11.49,6.36,20.03,10.43,18.63,0,0,3.09.64,4.29-6.75,0,0,.4,7.31,3.79,6.9,0,0,4.89.99,5.59-5.8.18-1.74,1.43-5.6,3.19-10.37-2.75-.06-5.47-.37-8.31-.51Z"/>
    <path class="cls-10" d="M295.81,296.61c-1.75.15-3.5.25-5.25.32.82,7.47,2.65,16.78,6.7,16.78,6.78,0,5.46-6.4,5.46-6.4,0,0,2.26,6.4,6.4,6.4s7.72-3.58,8.66-9.04c0,0,1.18-3.9,2.2-9.58-7.99,2.47-15.81,2.47-24.17,1.52Z"/>
    <g id="ear_left" data-name="ear left">
      <path class="cls-5" d="M54.07,81.95c-9.79,2.08-27.84,3.84-37.46-8.28-1.46-1.84-4.01-2.39-6.01-1.16-6.73,4.12-18.47,14.48-2.89,30.73.36.37.77.68,1.23.91,3.14,1.57,16.13,6.73,35.09-3.71,7.85-4.32,12.23-8.15,14.61-11.29,2.55-3.35-.46-8.08-4.58-7.21Z"/>
      <path class="cls-23" d="M8.53,73.89c9.44,13.96,27.27,23.76,43.63,21.41-2.18,1.62-4.84,3.34-8.12,5.14-18.96,10.43-31.95,5.27-35.09,3.71-.46-.23-.88-.54-1.23-.91-14.07-14.67-5.87-24.54.81-29.35Z"/>
    </g>
    <g id="ear_right" data-name="ear right">
      <path class="cls-10" d="M146.14,83.99c9.79,2.08,27.84,3.84,37.46-8.28,1.46-1.84,4.01-2.39,6.01-1.16,6.73,4.12,18.47,14.48,2.89,30.73-.36.37-.77.68-1.23.91-3.14,1.57-16.13,6.73-35.09-3.71-7.85-4.32-12.23-8.15-14.61-11.29-2.55-3.35.46-8.08,4.58-7.21Z"/>
      <path class="cls-23" d="M191.68,75.93c-9.44,13.96-27.27,23.76-43.63,21.41,2.18,1.62,4.84,3.34,8.12,5.14,18.96,10.43,31.95,5.27,35.09,3.71.46-.23.88-.54,1.23-.91,14.07-14.67,5.87-24.54-.81-29.35Z"/>
    </g>
    <g id="head">
      <path class="cls-7" d="M44.04,100.45s-2.07-35.77,8.12-43.05c10.19-7.28,6.89,16.12,14.16,16.5l-22.28,26.55Z"/>
      <path class="cls-7" d="M154.99,100.45s2.07-35.77-8.12-43.05c-10.19-7.28-6.89,16.12-14.16,16.5l22.28,26.55Z"/>
      <ellipse class="cls-5" cx="100.43" cy="123" rx="65.29" ry="62.83"/>
      <rect class="cls-23" x="68.16" y="155.8" width="64.55" height="33.97" rx="16.35" ry="16.35"/>
      <path class="cls-4" d="M85.41,170.4s9.65,1.49,10.8,10.92c.21,1.76-8.79-10.04-10.8-10.92Z"/>
      <path class="cls-4" d="M115.43,170.4s-9.65,1.49-10.8,10.92c-.21,1.76,8.79-10.04,10.8-10.92Z"/>
      <path class="cls-10" d="M104.27,62.49c-9.66,6.77-16.64,25.29-6.38,34.24,4.29,3.75,8.47,6.98,9.26,13,.71,5.43-2.28,12.63.86,17.5,7.56,11.71,21.02,3.28,31.35,1.71,8.1-1.23,18.45-.02,25.43,5.27.69-3.67,1.08-7.45,1.08-11.31,0-32.9-26.29-59.88-59.76-62.59-.36.81-.95,1.56-1.83,2.17Z"/>
      <path class="cls-10" d="M54.51,153.69c-4.32-4.09-5.28-8.49-2.3-13.85,1.78-3.2,2.15-5.09.97-8.65-.98-2.95-2.47-5.75-4.8-7.86-3.61-3.28-8.32-4.5-13.06-4.83-.11,1.49-.18,2.99-.18,4.51,0,16.9,6.95,32.24,18.24,43.53,3.95-3.47,5.96-8.26,1.13-12.84Z"/>
      <path class="cls-10" d="M54.86,105.88c.02.16.09.14.21-.06.9-.29.58-.69-.96-1.21.1-.08-.31,1.44-.36,1.52-.21.19-.46.32-.73.39,1.17,1.45,1.65,1.53,1.45.27.29-.63.29-1.29.7-1.89.27-.39,2.16-1.45,2.19-1.57-1.27-1.27-1.76-1.44-1.49-.53.02.35.02.71,0,1.06-.09.79-.4,1.6-.85,2.26-.34.5-1.09.84-1.36,1.29-.17.14-.36.22-.57.25.61.85.81.8.6-.16.38-.98-.15-2.22.38-3.25.69-1.34,2.32-1.87,3.7-2.15.25-.06.5-.11.75-.15.88.15.93-.07.15-.65-.47.7-.67,1.67-1.15,2.41-.52.81-1.14,1.66-1.91,2.26-.64.5-1.26.49-1.14.88-1.29-4.3-8.05-2.47-6.75,1.86,1.82,6.05,8.8,5.92,12.84,2.21,3.26-2.99,7.03-9.06,4.03-13.35s-9.96-2.7-13.58-.11c-4.11,2.93-6.08,10.25-3.1,14.61,3.35,4.9,10.03,2.01,12.78-1.85,2.4-3.37,3.64-10.2-.23-13.06-4.56-3.36-10.92,2.28-12.39,6.45-.81,2.3-.99,5.37.22,7.57,1.4,2.54,4.53,2.73,7.04,1.95,5.25-1.63,8.23-9.51,3.58-13.42-2.2-1.85-5.45-1.16-7.67.3-2.73,1.79-3.68,4.65-3.15,7.77.75,4.43,7.49,2.55,6.75-1.86h0Z"/>
      <path class="cls-2" d="M63.35,146.38c.71-1.35,1.52-2.66,2.46-3.87.73-.93,1.75-2.19,2.69-2.85.53-.38.88-.55,1.46-.48-.25-.03.23.08.24.08-.22-.1.25.22,0,0,.03.03.29.36.13.12.05.08.1.16.14.24-.05-.14-.05-.13.01.04.04.14.08.28.1.42-.04-.32-.02.15-.01.18.03.38.09-.24-.02.21-.03.11-.05.23-.09.34-.16.53-.6,1.18-.95,1.62-.86,1.09-1.96,2.14-3.01,2.88-.53.37-1.08.77-1.68,1.02.14-.06-.38.13-.32.11.05-.02-.52.11-.31.07-.33.07-.12-.05,0,.08.11.08.21.18.28.3.02.14.02.12,0-.07.06-1.3.38-2.45,1.24-3.56.71-.91,1.87-1.93,2.9-2.56l.15-.09c.17-.09.2-.11.1-.05-.06,0-.11,0-.17,0-.18-.04-.31-.13-.39-.29.28.29-.14-.21.05.14-.08-.15.02-.29-.05-.04-.1.35.08-.06-.11.25-.11.19-.23.38-.35.56.02-.03-.3.4-.16.23-.14.17-.29.34-.44.5-1.03,1.1-2.22,1.84-3.64,2.55l2.2,1.69c.38-1.59,1.09-3.03,2.13-4.23.67-.77.53-1.78-.3-2.36-1.06-.73-2.24-.12-3.1.59-.74.62-1.43,1.31-2.05,2.05-1.29,1.55-2.44,3.8-1.06,5.7l2.36-1.82c-.2-.2-.11-.09-.05-.01l-.04-.16c.02.1.02.1.02,0,.02-.33.03-.61-.04-.94-.17-.91-.87-1.42-1.76-1.5-.82-.07-1.49.75-1.5,1.5-.02.99.08,2,.72,2.81.67.85,1.75,1.28,2.81.98l-1.16-2.74c-.17.12-.06.04.07.02.09,0,.09,0,0,0-.11,0-.09,0,.06,0,.05.08.1.09-.01-.02-.01-.01.15.14.15.14.08.05-.08-.23-.04-.04,0-.04,0-.41-.01-.29,0,.1.08-.29.08-.3,0,0,.09-.25.04-.13.4-.94,1.16-1.91,1.71-2.58,1.39-1.68,2.87-2.88,4.86-3.75.74-.32.91-1.41.54-2.05-.45-.77-1.31-.86-2.05-.54-2.73,1.19-4.93,3.31-6.62,5.73-.93,1.33-1.85,2.87-1.46,4.56s2.58,3,4.19,1.86c.61-.43.93-1.15.61-1.87-.3-.67-1.04-1.08-1.77-.87.04-.01.6.06.24,0,.17.03.14.22.08.03-.04-.14-.03-.04-.04-.24-.01-.23,0-.46,0-.68l-1.5,1.5h.09c-.25-.06-.5-.13-.76-.2-.09-.04-.61-.63-.52-.79-.02.04,0,.19,0,.24-.02.32,0,.59.06.91.12.6.45,1.14.88,1.57.53.52,1.39.58,1.97.12.54-.43.83-1.32.39-1.94,0,0-.21-.31-.16-.24.07.12-.07-.26-.03-.04-.06-.34-.04-.25.04-.57.09-.37.48-.89.74-1.21.4-.48.83-.94,1.28-1.37.23-.22.46-.42.7-.63.11-.1-.01,0,.15-.12l.13-.07c-.22.15-.46.15-.75,0l-.3-2.36c-1.39,1.6-2.41,3.48-2.9,5.55-.31,1.32,1.03,2.28,2.2,1.69,1.64-.82,3.25-1.87,4.47-3.27,1.3-1.48,2.71-3.98.8-5.62s-4.34.56-5.76,1.88-2.61,3.06-2.98,5.01c-.2,1.08-.35,2.34.22,3.33.67,1.17,2.17,1.27,3.34.96,1.9-.5,3.68-1.98,5.06-3.32s2.86-3.02,3.2-4.95c.35-2.04-.61-4.34-2.79-4.82-2.53-.56-4.51,1.25-6.06,3s-2.81,3.58-3.86,5.59c-.38.72-.18,1.63.54,2.05.68.4,1.68.18,2.05-.54h0Z"/>
      <path class="cls-2" d="M136.63,145.68c-.94-1.8-2.08-3.47-3.38-5.03s-2.75-3.23-4.76-3.57c-2.19-.38-4.26.91-4.59,3.17s.88,4.01,2.25,5.59c1.26,1.45,2.81,2.76,4.5,3.69,1.01.56,2.18.96,3.35.73,1.32-.26,1.9-1.47,1.9-2.71,0-2.13-.86-4.08-2.21-5.69-.59-.71-1.28-1.32-2.01-1.89-.87-.68-1.78-1.48-2.93-1.57-1.32-.1-2.44.9-2.65,2.17s.39,2.38,1.13,3.35c1.31,1.73,3.09,2.99,5.02,3.96,1.17.59,2.52-.38,2.2-1.69-.49-2.07-1.51-3.95-2.9-5.55l-.3,2.36c-.27.14-.5.15-.7.02-.07-.04-.06-.03.02.01.03.03.27.19.15.09.25.19.47.41.7.62.48.45.93.93,1.35,1.43.17.2.24.29.4.55.13.2.27.47.31.58.04.13.09.27.1.4-.02-.2-.02.11-.02.17,0,.11,0,.11,0,0l-.04.15c.12-.19-.15.21-.15.2-.43.6-.16,1.53.39,1.94.59.44,1.43.42,1.97-.12.43-.43.76-.97.88-1.57.06-.29.08-.57.06-.86,0-.06,0-.17-.01-.23,0-.09,0-.08-.02.03-.04.29-.21.53-.5.7l-.76.2h.09c-.5-.51-1-1.01-1.5-1.51,0,.23,0,.46,0,.68-.01.2,0,.11-.04.24-.06.19-.09,0,.08-.03-.37.06.19-.01.24,0-.71-.2-1.5.19-1.77.87-.29.73-.01,1.43.61,1.87,1.6,1.13,3.69-.07,4.17-1.78s-.51-3.31-1.44-4.64c-1.69-2.41-3.89-4.54-6.62-5.73-.74-.32-1.61-.22-2.05.54-.37.64-.21,1.73.54,2.05,1.99.87,3.47,2.08,4.86,3.75.55.66,1.25,1.59,1.67,2.5.05.11.14.34.17.55-.03-.21-.01.13-.02.17,0,.11,0,.11,0,0l-.05.15s.04-.1.11-.15c.07-.04.06-.04-.01,0-.09.05-.08.05.05-.01.04-.07.22.06,0,0,.11.03.36.14.14-.02l-1.16,2.74c1.06.3,2.14-.13,2.81-.98.63-.81.73-1.82.72-2.81-.01-.76-.68-1.57-1.5-1.5-.89.08-1.59.59-1.76,1.5-.05.28-.08.57-.04.86,0,.17,0,.22.02.12.02-.09.01-.05-.03.12.05-.07.16-.2-.05.01l2.36,1.82c1.38-1.9.23-4.15-1.06-5.7-.6-.72-1.26-1.39-1.98-1.99-.87-.74-2.07-1.41-3.17-.65-.83.57-.97,1.59-.3,2.36,1.03,1.19,1.75,2.64,2.13,4.23l2.2-1.69c-1.24-.62-2.36-1.31-3.29-2.2-.5-.48-.8-.83-1.13-1.36-.16-.26-.23-.35-.28-.53-.1-.35.02-.04-.05.04.05-.17.04-.18-.02-.03.09-.15.09-.15,0-.01.39-.14-.52.31-.49.19l-.05-.03c.1.05.2.11.3.17.29.18.56.39.84.6.42.32,1.07.88,1.52,1.36.87.91,1.51,1.97,1.74,3.29.04.23.03.54.05.87s-.04.07.06,0c-.19.16.42-.41.41-.3,0,.07-.7-.13-.83-.19-.24-.1-.64-.35-.93-.53-1.15-.72-2.11-1.54-3.05-2.57-.47-.51-.83-.94-1.18-1.5-.17-.27-.32-.54-.4-.75-.04-.11-.07-.22-.1-.34-.03-.11-.05-.23-.07-.35.02.16.03.15.01-.03,0-.03.03-.5-.01-.18.02-.14.06-.28.1-.42.1-.38-.12.17.08-.16.22-.37-.19.18.1-.14.19-.21-.15,0,.16-.12-.22.08.26-.07.25-.07-.25.05.25,0,.25,0,.19.01.22.01.1,0,.11.02.22.05.32.08.22.06.57.27.86.49.12.09.43.39.62.58.6.6,1.17,1.24,1.71,1.9,1,1.23,1.92,2.69,2.68,4.14.38.72,1.38.93,2.05.54.73-.43.91-1.33.54-2.05h0Z"/>
    </g>
  </g>
  <g id="royal_dress" data-name="royal dress">
    <g id="Layer_11" data-name="Layer 11">
      <path class="cls-18" d="M182.71,296.75c-6.64-.34-12.87-.55-18.98-2.1,2.84,11.49,6.36,20.03,10.43,18.63,0,0,3.09.64,4.29-6.75,0,0,.4,7.31,3.79,6.9,0,0,4.89.99,5.59-5.8.18-1.74,1.43-5.6,3.19-10.37-2.75-.06-5.47-.37-8.31-.51Z"/>
      <path class="cls-18" d="M295.81,296.61c-1.75.15-3.5.25-5.25.32.82,7.47,2.65,16.78,6.7,16.78,6.78,0,5.46-6.4,5.46-6.4,0,0,2.26,6.4,6.4,6.4s7.72-3.58,8.66-9.04c0,0,1.18-3.9,2.2-9.58-7.99,2.47-15.81,2.47-24.17,1.52Z"/>
      <path class="cls-20" d="M133.78,293.82c-4.67.22-9.33-.3-13.89-1.34-1.53-.35-3.12-.72-4.61-1.21,2.98,13.38,6.83,24.08,11.34,22.53,0,0,3.09.64,4.29-6.75,0,0,.4,7.31,3.79,6.9,0,0,4.89.99,5.59-5.8.23-2.26,1.03-8.22,1.99-15.16-2.82.4-5.66.7-8.51.83Z"/>
      <path class="cls-20" d="M255.61,297.65c-4.84.11-9.83-.63-14.5-1.91,2.74,10.36,6.06,17.74,9.87,16.44,0,0,3.09.64,4.29-6.75,0,0,.4,7.31,3.79,6.9,0,0,4.89.99,5.59-5.8.18-1.72.68-5.55,1.33-10.33-3.34.86-6.79,1.37-10.37,1.46Z"/>
      <circle class="cls-17" cx="124.21" cy="295.31" r="4.04"/>
      <circle class="cls-14" cx="175.26" cy="298.16" r="4.04"/>
    </g>
    <g id="Layer_8" data-name="Layer 8">
      <path class="cls-1" d="M334.32,181.31s-.05-51.51-57.03-70.36c0,0-35.64-17.3-85.54,7.35,0,0-9.55,3.32-19.99.95-1.42,20.17-5.31,38.72-13.9,57.1-6.57,14.06-16.65,28.32-30.3,36.24-12.94,7.51-29.47,7.56-41.8.2,3.85,17.4,11.09,33.67,24.27,42.7,0,0,17.05,11.71,49.13,16.8,32.08,5.09,37.17,10.18,37.17,10.18,0,0,29.53-6.62,58.56-23.93l65.69,13.24s-3.06-45.5,13.75-90.47Z"/>
      <path class="cls-3" d="M122.86,214.92c-12.07,5.08-26.22,4.36-37.11-2.13,3.85,17.4,11.09,33.67,24.27,42.7,0,0,16.41,11.26,47.32,16.5-18.18-13.59-30.73-34.65-34.48-57.07Z"/>
      <path class="cls-13" d="M157,262.65c-.34-.12-.56.12-.59.4-1.73-.46-3.48-.82-5.23-1.14.16-1.24.32-2.47.47-3.71.08-.64-.92-.63-1,0-.15,1.18-.3,2.35-.45,3.53-7.12-1.18-14.4-1.32-21.61-1.13-1.83.05-3.66.12-5.48.19.82-3.54,2.17-6.95,3.96-10.1.27-.12.52-.27.75-.47.66-.59.89-1.41,1.02-2.26,0-.03,0-.07.01-.1,1.2-1.74,2.54-3.4,4.02-4.91.2-.21.42-.39.63-.59,1.43.65,2.87,1.25,4.36,1.76.61.21.87-.76.27-.96-1.31-.45-2.58-.97-3.84-1.53,1.05-.96,2.13-1.88,3.28-2.72.52-.37.02-1.24-.5-.86-1.33.96-2.58,2.02-3.76,3.14-1.65-.77-3.26-1.63-4.86-2.5-.14-.58-.3-1.15-.48-1.71-.58-1.78-1.36-3.5-2.34-5.09-.97-1.57-2.12-3.17-3.58-4.31-1.57-1.22-3.44-1.49-5.37-1.32,1.22-.72,2.47-1.41,3.74-2.04,2.77-1.36,5.76-2.69,8.92-2.4.64.06.64-.94,0-1-2.86-.27-5.59.75-8.14,1.92-2.3,1.06-4.54,2.28-6.68,3.63-.09.06-.17.12-.26.17-1.02.17-2.04.4-2.97.81-.57.25-1.1.57-1.56.98-.93-.4-1.93-.65-2.97-.66-.17,0-.33.02-.49.04-1.68-.65-3.38-1.28-5.09-1.86-3.68-1.25-7.58-2.64-11.53-2.26-.63.06-.64,1.06,0,1,3.57-.34,7.04.83,10.38,1.93,1.6.53,3.19,1.09,4.77,1.69-.89.56-1.54,1.48-2.18,2.46-1.18,1.77-2.25,3.62-3.2,5.52-.94,1.87-1.82,3.8-2.51,5.78-.61,1.78-.92,3.87.22,5.52.88,1.27,2.41,1.94,3.9,1.34,1.42-.57,2.33-2.01,2.95-3.34.84-1.81,1.52-3.71,2.24-5.57-1.06,4.24-1.91,8.52-2.55,12.84-.32,2.2-.6,4.4-.81,6.61-.06.64.94.64,1,0,.94-9.43,2.89-18.74,5.78-27.77-.62,7.33-.25,14.73,1.15,21.95.43,2.21.95,4.4,1.56,6.56.17.62,1.14.36.96-.27-2.67-9.48-3.54-19.41-2.58-29.22.58.26,1.15.52,1.73.78,1.87,1.82,3.17,4.25,4.16,6.63,1.5,3.61,2.58,7.55,5.04,10.67,1,1.28,2.43,2.39,4.13,2.31-.8,1.47-1.51,2.99-2.11,4.56-.66,1.71-1.17,3.48-1.57,5.27-.58.02-1.15.05-1.73.07-.64.03-.64,1.03,0,1,.51-.02,1.02-.04,1.53-.06,0,.55.85.76.96.16.01-.07.03-.14.05-.21,8.72-.36,17.51-.6,26.16.72.35.05.7.12,1.05.17-.34,2.65-.68,5.29-1.02,7.94-.08.64.92.63,1,0,.33-2.59.66-5.18.99-7.78,1.98.36,3.95.81,5.88,1.36.22.06.45-.04.56-.23.34-.54.06-1.13-.5-1.33ZM132.53,241.91c-1.25,1.24-2.4,2.57-3.46,3.97.13-1.98.02-3.96-.35-5.91,1.26.68,2.52,1.33,3.81,1.95ZM104.12,242.39c-.65,1.65-1.22,3.55-2.52,4.83-1.33,1.31-3.17.89-3.95-.79-.49-1.06-.39-2.22-.09-3.36.18.25.63.35.87,0,2.75-3.94,6-7.51,9.63-10.65-1.31,3.32-2.62,6.64-3.94,9.96ZM108.83,230.49c-2.11,1.71-4.11,3.54-5.96,5.52-1.82,1.95-3.5,4.03-5.04,6.21.24-.67.51-1.32.76-1.92.82-2,1.78-3.94,2.84-5.82.52-.93,1.07-1.84,1.65-2.73.51-.8,1.01-1.68,1.7-2.35.38-.37.83-.57,1.31-.67.99.39,1.99.77,2.97,1.19-.08.19-.15.38-.23.58ZM111.71,229.5c.94-.69,1.91-1.35,2.89-1.99.05,0,.1-.02.16-.03,2.1-.32,4.37-.65,6.25.57,1.61,1.04,2.81,2.79,3.79,4.4,1,1.64,1.79,3.41,2.34,5.25.03.1.05.2.08.3-2.43-1.36-4.84-2.76-7.3-4.06-2.28-1.21-4.62-2.33-6.97-3.4-.39-.37-.81-.72-1.24-1.04ZM122.9,248.66c-1.36-1.42-2.28-3.3-3.06-5.09-1.55-3.55-2.57-7.37-4.81-10.58-.14-.2-.29-.41-.45-.61,1.49.71,2.96,1.44,4.42,2.2,2.89,1.52,5.7,3.18,8.56,4.75.3,1.36.49,2.74.55,4.13.04.95.01,1.9-.07,2.84-.03.33-.06.71-.1,1.1-.57.83-1.13,1.68-1.63,2.55-1.17.31-2.61-.47-3.41-1.3Z"/>
      <path class="cls-11" d="M333.98,181.31s-.05-51.51-57.03-70.36c0,0-24.15-11.71-60.52-2.11,12.39,10.83,17.17,28.37,18.44,44.55,1.38,17.51-.26,35.47-1.03,52.98-.53,12.11-.74,24.23-1.14,36.35-.28,8.58-.73,18.49-2.41,28.1,7.66-3.29,15.97-7.34,24.25-12.28l65.69,13.24s-3.06-45.5,13.75-90.47Z"/>
    </g>
    <g id="Layer_6" data-name="Layer 6">
      <path class="cls-16" d="M344.79,261.35c-.53-2.44-1.42-5-2.13-7.58,2.27-1.1,4.27-2.53,5.53-4.49,1.23-1.89,1.63-4.2,1.02-6.33-6.49-4.53-10.66-12.14-11.04-20.57-.42-9.29,5.41-17.62,13.34-21.88-.42-1.77-.9-3.54-1.47-5.27-.18-.55-1.96-5.05-1.68-4.52-.76-1.72-1.55-3.43-2.33-5.14-2-4.39-3.95-8.82-5.61-13.36-1.97-3.51-4.02-6.98-6.09-10.43-.75,1.33-1.58,2.63-2.46,3.9,2.65,6.49,4.29,13.31,3.96,20.48-.78,16.76-12,30.74-23.58,41.92-9.45,9.12-19.51,17.82-29.99,25.72-10.87,8.19-23.67,15.76-37.22,18.43-4.85,7.2-9.99,14.18-15.26,21.08.66,1.37,2.13,2.28,3.96,1.84,1.75-.42,12.8-3.27,17.55-2.83-1.91,1.91-3.27,4.29-2.87,7.08.6,4.2,4.64,5.88,8.38,6.51,7.05,1.19,14.76-2.85,21.92-3.28.96-.21,1.93-.36,2.91-.45-.24,3.22,2.38,6.8,6.42,7.52,3.99.71,7.64-1.07,11.21-2.57,4.6-1.93,9.42-2.88,14.31-3.57.63,1.15,1.68,2.01,2.96,2.59,5.3,2.4,13.35,1.39,18.98.91,1.78-.15,3.64-1.48,3.5-3.5l-.36-5.26c2.39-2.6,3.07-6.28,2.83-9.78-.12-1.71-.26-3.41-.4-5.11,1.22-.29,2.42-.71,3.43-1.3.88-.24,1.75-.47,2.63-.71,2.31-.62,3.07-3.15,2.09-5.14-2.31-4.72-3.34-9.81-4.45-14.91Z"/>
      <g>
        <path class="cls-1" d="M355.15,210.51c-.12-1.75-.3-3.48-.44-5.23-.09-.74-.14-1.21-.17-1.48-.11-.69-.21-1.37-.32-2.06-.67-3.89-1.51-7.76-2.75-11.51-.18-.55-1.96-5.05-1.68-4.52-.76-1.72-1.55-3.43-2.33-5.14-2-4.39-3.95-8.82-5.61-13.36-2.56-4.56-5.22-9.06-7.94-13.51-3.09-5.06-6.39-9.98-9.83-14.81-1.89-2.65-3.82-5.27-5.78-7.87-.8-1.07-1.62-2.13-2.43-3.2.87,1.15.15.22-.61-.77-6.85-5.35-14.57-9.54-22.83-12.81-12.94-5.11-27.77-9.26-42.09-9.86-2.35-1.06-4.77-1.99-7.23-2.74-2.14-.65-4.55-1.04-6.64,0-.09.05-.18.1-.26.15-1.2.45-2.16,1.57-2.41,2.85-.12.38-.18.78-.19,1.19,2.41,1.57,3.91,4.39,4.98,7.22.31.58.61,1.16.89,1.75,1.76,5.24,3.94,10.37,5.56,15.67,6.48,43.55-.25,88.18-8.35,131.21-.11.58-.12,1.17-.09,1.75-.4,7.53-2.16,14.73-5.38,21.57-1.28,2.73.83,5.9,3.95,5.14,1.75-.42,12.8-3.27,17.55-2.83-1.91,1.91-3.27,4.29-2.87,7.08.6,4.2,4.64,5.88,8.38,6.51,7.05,1.19,14.76-2.85,21.92-3.28.96-.21,1.93-.36,2.91-.45-.24,3.22,2.38,6.8,6.42,7.52,3.99.71,7.64-1.07,11.21-2.57,4.6-1.93,9.42-2.88,14.31-3.57.63,1.15,1.68,2.01,2.96,2.59,5.3,2.4,13.35,1.39,18.98.91,1.78-.15,3.64-1.48,3.5-3.5l-.36-5.26c2.39-2.6,3.07-6.28,2.83-9.78-.12-1.71-.26-3.41-.4-5.11,1.22-.29,2.42-.71,3.43-1.3.88-.24,1.75-.47,2.63-.71,2.31-.62,3.07-3.15,2.09-5.14-2.31-4.72-3.34-9.81-4.45-14.91-.53-2.44-1.42-5-2.13-7.58,2.27-1.1,4.27-2.53,5.53-4.49,1.37-2.11,1.73-4.73.78-7.05-.98-2.4-2.91-2.77-4.65-4.21.77-.41,1.55-.81,2.35-1.16,1.78-.87,3.58-1.7,5.37-2.56.7-.34,1.37-.66,1.99-1.01.03-1.21.08-2.42.09-3.64.04-4.72-.06-9.44-.39-14.15Z"/>
        <path class="cls-1" d="M315.86,127.83c-.08-.1-.16-.21-.27-.35.09.12.18.23.27.35Z"/>
      </g>
      <g>
        <path class="cls-26" d="M300.73,302.34c.53-.28,1.05-.56,1.56-.87.27-.16.55-.32.85-.43-1.63-1.19-3.1-2.69-4.99-3.83-3-1.81-8.64-3.39-11.7-.95,1.46-8.47,3.62-16.8,6.48-24.91.43-1.22-1.5-1.74-1.93-.53-3.39,9.61-5.81,19.54-7.23,29.63.05.08.09.17.08.26,0,.01,0,.13,0,.17,0,0,0,0,0,0,.7.71,1.28,1.53,1.84,2.35.03.04.04.08.05.13,1.01.84,2.27,1.47,3.72,1.72,3.55.63,6.84-.71,10.04-2.07.4-.24.81-.46,1.22-.68Z"/>
        <path class="cls-26" d="M246.05,287.84c.44-.17.88-.32,1.35-.37.12-.01.24-.02.35-.02-.34-.65-.55-1.39-.56-2.21-.07-4.54-7.12-6.01-10.4-4.12-1.41.82-2.79.84-3.95.39-.5,1.31-1.03,2.6-1.64,3.89-1.28,2.73.83,5.9,3.95,5.14,1.01-.24,5.07-1.28,9.24-2.04.56-.19,1.1-.45,1.64-.66Z"/>
        <path class="cls-26" d="M266.61,300.46c-6.63-1.09-14.37-3.51-16.68-8.01-.16.74-.2,1.52-.08,2.34.6,4.2,4.64,5.88,8.38,6.51,2.3.39,4.66.22,7.06-.19.41-.25.85-.49,1.32-.65Z"/>
        <path class="cls-26" d="M350.72,271.8c-.6.73-1.4,1.29-2.38,1.52-2.29.54-4.09,1.31-5.68,2.61-3.65-11.74-7.62-23.59-8.63-35.88-.1-1.27-2.11-1.28-2,0,1.06,12.86,5.24,25.2,9.03,37.46-.13.15-.26.29-.39.45,0,0-.01.01-.02.02.41,4.79,1.85,10.31-.32,14.7-.32.64-.69,1.19-1.1,1.65-.53,1.86-1.98,3.51-4.37,3.79-5.67.65-12.58.56-18.24-1.55-.37.13-.73.24-1.08.33.26-2.65,1.23-5.18,1.96-7.74.88-3.07,1.59-6.18,2.2-9.31,1.2-6.21,1.98-12.48,2.77-18.75.16-1.27-1.84-1.26-2,0-.8,6.41-1.6,12.82-2.88,19.16-.61,3.05-1.34,6.07-2.22,9.06-.86,2.91-1.89,5.77-1.9,8.83,0,.19.05.34.12.47,0,.05-.02.09-.03.14.11-.05.23-.09.34-.12.29-.08.61-.09.87.08.1.07.17.15.24.24,0,0,0,0,0,0,.63,1.14,1.68,2,2.95,2.58,5.3,2.4,13.35,1.39,18.98.91,1.78-.15,3.64-1.48,3.5-3.5l-.36-5.26c2.39-2.6,3.07-6.28,2.83-9.78-.1-1.46-.22-2.91-.34-4.36.48-.07.9-.43.85-.99.9-.27,1.76-.61,2.52-1.06.88-.24,1.75-.47,2.63-.71,2.25-.6,3.01-3.01,2.15-4.98Z"/>
        <path class="cls-26" d="M333.95,193.56s0,0,0,0c0,0,0,0,0,0,.06.02.11.04.17.06.11.04.23.07.35.09.04,0,.27.02.12.02-.15,0,.05,0,.09,0,.12,0,.23,0,.35,0,.05,0,.1,0,.16-.01.01,0,.02,0,.03,0,.11-.03.21-.06.32-.09,0,0,0,0,0,0,.04-.03.09-.05.14-.07.05-.03.09-.06.14-.09,0,0,0,0,0,0,.03-.03.06-.06.08-.09-.58-1.63-1.05-3.29-1.29-5.02-.18-1.27-2.1-.73-1.93.53.22,1.57.63,3.09,1.13,4.57.05.02.09.06.13.08Z"/>
        <path class="cls-26" d="M345.01,230.88c-1.1-6.92-2.32-13.82-3.69-20.69-.75-3.78-1.65-7.44-3.11-11.01-.33-.81-.67-1.62-1.01-2.43-.11,0-.22,0-.33,0-.03,0-.06,0-.09,0,0,0-.11.02-.15.03-.14.03-.27.07-.41.11-.03,0-.09.04-.11.04-.03.01-.06.03-.09.04-.13.07-.24.14-.36.22-.02.01-.02.01-.03.02,0,0,0,0,0,0-.05.06-.12.11-.17.16-.03.03-.07.07-.1.1.28.67.56,1.35.84,2.02,1.51,3.64,2.43,7.36,3.2,11.22,1.51,7.57,2.84,15.18,4.02,22.81.19,5.07,1.18,10.06,1.67,15.1,1.85-1.02,3.46-2.31,4.54-3.97,1.37-2.11,1.73-4.73.78-7.05-.98-2.4-2.91-2.77-4.65-4.21.77-.41,1.55-.81,2.35-1.16,1.78-.87,3.58-1.7,5.37-2.56.7-.34,1.37-.66,1.99-1.01,0-.26.01-.51.02-.77-3.16,1.74-6.87,2.68-10.46,2.98Z"/>
      </g>
      <path class="cls-26" d="M322.99,248.26c-.49-.13-1.13.17-1.23.7-.5,2.56-.75,5.16-.73,7.77.01,1.29,2.01,1.29,2,0-.03-2.43.19-4.85.66-7.23.1-.53-.15-1.08-.7-1.23Z"/>
      <path class="cls-26" d="M303.32,218.17l-.43-16.43c-.16-6.14-.32-12.28-.49-18.42-.03-1.28-2.03-1.29-2,0,.28,10.79.57,21.57.85,32.36.14,5.21.41,10.44.28,15.65-.13,5.33-1.16,10.4-2.62,15.5-1.66,5.76-3.38,11.49-5.08,17.23-.36,1.24,1.56,1.77,1.93.53,1.54-5.21,3.08-10.41,4.61-15.62,1.45-4.93,2.72-9.87,3.05-15.01.34-5.25.04-10.54-.1-15.8Z"/>
      <path class="cls-26" d="M272.01,219.3c-.1-1.27-2.11-1.28-2,0,.76,9.26-3.75,17.62-7.93,25.54-2.12,4.02-4.2,8.07-5.66,12.39-1.44,4.25-2.29,8.68-2.85,13.12-.65,5.16-.87,10.36-1.09,15.55-.05,1.29,1.95,1.28,2,0,.38-9.16.78-18.46,3.58-27.26,2.78-8.73,8.25-16.25,11.51-24.78,1.77-4.64,2.85-9.57,2.44-14.55Z"/>
      <path class="cls-26" d="M272.36,215.59c-.34-2.2-.47-4.43-.43-6.65.01-.54-.47-1-1-1s-.99.46-1,1c-.05,2.41.13,4.81.5,7.19.08.53.75.83,1.23.7.57-.16.78-.69.7-1.23Z"/>
      <path class="cls-11" d="M252.41,286.94c0-.19.04-.37.04-.56,0-.04.01-.08.02-.12.07-3.95-2.46-7.82-5.66-9.99-1.94-1.32-4.38-1.14-6.62-1.16-1.84-.02-3.68.05-5.51.27-.04.28-.17.57-.26.79,0,.02-.02.05-.03.07-.01.07-.03.15-.04.22-.07.36-.17.7-.32,1.04,1.8-.29,3.62-.39,5.44-.39,1.92,0,4.37-.32,6.08.73,2.89,1.77,5.06,5.32,4.92,8.74,0,0,0,.01-.01.02,0,.03.02.05.02.08,0,.22.02.44.03.66.11,0,.22,0,.33-.02.23-.04.46-.08.7-.08.09,0,.16.03.23.07.12,0,.24-.02.35-.02.12,0,.24-.05.34-.14-.02-.03-.04-.06-.05-.09,0-.04-.01-.09-.02-.13Z"/>
      <path class="cls-11" d="M282.37,297.1c-2.78-1.09-5.74-.95-8.67-.95-2.68,0-5.33-.29-7.92-.95-4.6-1.16-8.94-3.5-12.06-7.1-.03-.01-.07-.01-.09-.03-.19-.12-.37-.27-.53-.43-.09-.09-.16-.19-.24-.29-.01,0-.03,0-.04,0-.05.01-.1.03-.14.05-.08.05-.15.11-.23.16-.28.22-.56.47-.79.75-.04.05-.07.11-.1.16.04.06.08.12.12.19.06.1.13.21.2.31.02.02.03.04.05.07,0,0,0,0,0,0,.04.05.08.1.13.15.03.03.04.07.06.1,3.16,3.65,7.37,6.16,12.02,7.53,2.64.78,5.4,1.2,8.14,1.3,1.47.05,2.95,0,4.41.04.06-.02.13-.04.2-.04,1.12,0,2.18-.03,3.27-.3.53-.13,1.06-.27,1.6-.35.32-.05.64-.08.95-.15-.09-.09-.21-.17-.35-.23Z"/>
      <path class="cls-11" d="M299.4,292.38c-3.87-1.67-7.9-1.68-11.97-1.3-.07.55-.2,1.09-.35,1.63-.04.14-.07.27-.11.41,3.99-.42,8-.54,11.77,1.14,3.06,1.36,5.67,3.5,7.98,5.9.13-.04.26-.06.39-.1.52-.18,1.05-.29,1.6-.34,0,0,0,0,0,0,.08-.04.16-.07.25-.1-2.72-2.95-5.84-5.64-9.55-7.24Z"/>
      <path class="cls-11" d="M317.34,289.72c-.02.16-.06.32-.12.47-.03.07-.05.13-.08.2-.02.04-.03.07-.05.11,0,0,0,0,0,.01,0,0-.01.03-.01.03,0,.02-.02.04-.03.06-.02.04-.03.08-.04.12-.06.18-.14.35-.2.53-.03.09-.06.17-.08.26,0,.01,0,.03,0,.04,0,.02,0,.04,0,.06,8.26,2.51,16.66.5,24.59-2.44.03-.73.14-1.45.17-2.18-7.77,2.97-16.03,5.13-24.15,2.71Z"/>
      <path class="cls-11" d="M349.66,269.06c-.02-.07-.05-.14-.07-.21-.08-.17-.17-.35-.2-.54-.04-.09-.09-.19-.13-.28-.05-.11-.07-.23-.09-.34-.05-.09-.11-.19-.15-.29-2.05-.01-4.14.18-6.13.68-.81.21-1.67.55-2.36,1.06,0,.02,0,.03,0,.05h0s.02.05.03.08c0,0,0,0,0,0,0,.01,0,.02,0,.03.03.09.08.17.1.26.03.12.07.23.11.35.05.15.08.3.11.45.06.21.13.43.21.64.04.11.08.23.12.34.14-.33.38-.56.76-.78.55-.32,1.17-.5,1.81-.64,1.81-.39,3.65-.55,5.5-.52.19,0,.33-.05.47-.12-.04-.07-.07-.13-.1-.21Z"/>
      <path class="cls-11" d="M355.5,218.36c0-.14.05-.16.02-.85,0-.15-.05-.31-.03-.46-.33.01-.64.19-.86.48-1.42,1.84-3.07,3.51-4.88,4.98-.87.71-1.79,1.3-2.92,1.5-.99.17-1.98-.04-2.98-.14.05.24.09.54.14.82.09.56.08.61.22,1.34.98.08,2.06.1,3.04-.07,1.36-.23,2.5-.93,3.57-1.77,1.7-1.33,3.31-2.89,4.69-4.54-.02-.44-.01-.71-.02-1.29Z"/>
      <path class="cls-3" d="M346.19,169.87c-.04-.07-.08-.14-.12-.22-2.09-3.23-7.29-.23-5.18,3.03-.23-.35-.48-.84-.8-1.14.24-.5.39-1.03.43-1.61.18-3.16-3.04-5.22-5.38-6.7-1.25-.8-2.57-1.46-3.91-2.05.7-1.1.77-2.54-.45-3.53-.98-.8-1.97-1.41-2.99-1.89-.18-.61-.56-1.18-1.22-1.63-1.72-1.16-3.42-2.23-5.21-3.14.02-.93-.39-1.88-1.42-2.53-3.32-2.09-6.42-4.38-9.41-6.9-.11-.54-.36-1.04-.8-1.41-2.59-2.12-5.27-4.07-8.05-5.86.04-1.01-.39-2.01-1.45-2.55-8.87-4.52-17.08-10.1-25.23-15.79-2.88-3.19-8.47-5.56-10.76-7.56-1.09-.96-2.4-1-3.41-.49.02-.29.04-.58.05-.87.24-3.86-5.76-3.84-6,0l-.55,8.9c-.13,2.19,2.68,3.85,4.51,2.59,1.18-.81,2.43-1.12,3.86-.72.79.22,3.76,1.71,3.48,2.76-.14.51-2.54,1.54-3.04,2.17-1.81,2.31-.87,4.67.71,6.81,4.46,6.02,11.67,8.02,18.84,7.84,3.01-.08,14.55-1.08,11.44,4.54-1.32,2.38-3.78,3.04-2.88,6.42.89,3.34,4.91,3.82,7.76,4.59,3.26.89,8.4.94,11.96,2.41-.79,1-1.57,2-2.36,3-1.59,2.02-.65,4.99,2.12,5.12,6.55.3,13.49.75,19.44,3.79.83.42,2.94,1.39,3.9,2.28-.21.08-.46.44-.82.74-1.19.99-1.41,3.01-.96,4.36.89,2.68,4.13,3.57,7.34,3.19,1.73-3.09,4.33-5.35,6.58-7.99Z"/>
      <path class="cls-13" d="M280.15,120.85c9.3,5.94,18.45,12,27.1,18.86,8.45,6.7,16.64,13.76,24.1,21.57,3.95,4.14,8.36,8.07,11.74,12.67,9.43-7.75,12.91-19.09,9.63-30.3-3.85-13.2-15.44-24.49-29.63-32.83-14.35-8.44-34.09-17.62-51.16-11.96-1.15.38-2.26.82-3.33,1.31-4.28.78-8.38,2.1-12.14,4-.61.31-1.13.65-1.6,1.01,8.88,4.37,16.96,10.36,25.27,15.67Z"/>
      <path class="cls-15" d="M264.27,112.63c-.27.01-.5.22-.5.5v3.13c0,.26.23.51.5.5.27-.01.5-.22.5-.5v-3.13c0-.26-.23-.51-.5-.5Z"/>
      <path class="cls-15" d="M292.75,135.53c-.55-.74-1.14-1.79-1.04-2.75.09-.94.75-1.85.15-2.76-.35-.53-1.22-.03-.86.5.23.34.08.75-.03,1.11-.15.49-.3.99-.26,1.51.08,1.04.57,2.06,1.18,2.89.16.22.43.33.68.18.21-.12.34-.47.18-.68Z"/>
      <path class="cls-15" d="M310.93,145.61v8.29c0,.64,1,.64,1,0v-8.29c0-.64-1-.64-1,0Z"/>
      <path class="cls-15" d="M335.22,165.23c-.27,0-.5.23-.5.5v3.4c0,.27.23.5.5.5s.5-.23.5-.5v-3.4c0-.27-.23-.5-.5-.5Z"/>
      <path class="cls-22" d="M277.43,135.08c-2.99-.6-5.78-1.69-8.15-3.8-2.8-2.51-4.55-5.67-4.99-9.36-.51.3-.97.6-1.16.84-1.81,2.31-.87,4.67.71,6.81,4.43,5.97,11.55,7.99,18.65,7.84-1.76-.63-3.47-1.4-5.07-2.33Z"/>
      <path class="cls-22" d="M264.13,118.47c.01-.48.04-.95.11-1.41-.2,0-.4,0-.59-.01-3.51-.21-6.7-1.09-9.18-3.46l-.14,2.36c-.13,2.19,2.68,3.85,4.51,2.59,1.18-.81,2.43-1.12,3.86-.72.28.08.85.32,1.44.65Z"/>
      <path class="cls-22" d="M293.4,147.17c-.35-1.15-.57-2.29-.64-3.44-1.12,1.23-2.15,2.26-1.52,4.63.66,2.47,3.04,3.38,5.39,3.99-1.46-1.39-2.6-3.13-3.23-5.19Z"/>
      <path class="cls-22" d="M333.72,173.24c-.1-.08-.18-.17-.26-.27-.36-.47-.72-.94-1.09-1.41-.39.99-.4,2.19-.1,3.1.89,2.68,4.13,3.57,7.34,3.19.3-.54.64-1.05,1-1.55-2.58-.15-5.03-1.3-6.89-3.06Z"/>
      <path class="cls-22" d="M309.36,157.39c-.26.33-.51.65-.77.98-1.59,2.02-.65,4.99,2.12,5.12,1.08.05,2.16.1,3.25.17-2.15-1.65-3.72-3.81-4.61-6.27Z"/>
    </g>
    <g id="Layer_9" data-name="Layer 9">
      <path class="cls-8" d="M236.47,125.84c.86-2.94-3.31-4.62-4.59-2.21-.47.26-.87.7-1.1,1.36-3.47,10.08-11.75,16.87-19.78,23.36-2.09,1.69-.27,4.74,2.13,4.44,1.27-.16,2.5-.53,3.68-1.03-.38,1.1-.78,2.19-1.2,3.28-.77,1.99,1.57,4.21,3.5,3.14,5.08-2.83,7.56-7.96,9.99-13.01,3-6.22,5.42-12.69,7.36-19.31Z"/>
      <path class="cls-8" d="M231.31,124.39c-.86-2.94,3.31-4.62,4.59-2.21.47.26.87.7,1.1,1.36,3.47,10.08,11.75,16.87,19.78,23.36,2.09,1.69.27,4.74-2.13,4.44-1.27-.16-2.5-.53-3.68-1.03.38,1.1.78,2.19,1.2,3.28.77,1.99-1.57,4.21-3.5,3.14-5.08-2.83-7.56-7.96-9.99-13.01-3-6.22-5.42-12.69-7.36-19.31Z"/>
      <path class="cls-12" d="M257.37,97.74c-.55-1.31-2.39-1.48-3.48-.91-8.83,4.57-16.11,11.5-21.17,20.05-.73,1.24-.3,2.43.56,3.13-.08.19-.15.38-.21.57-.96,3.32,3.92,6.46,5.95,8.41,2.99,2.88,6.08,5.99,9.95,7.64,2.81,1.2,6.89,2.11,8.53-1.22,1.73-3.51.84-7.98.32-11.65-.69-4.93,0-9.27.7-14.15.6-4.15.49-7.98-1.16-11.87Z"/>
      <path class="cls-12" d="M210.72,98.57c.55-1.31,2.39-1.48,3.48-.91,8.83,4.57,16.11,11.5,21.17,20.05.73,1.24.3,2.43-.56,3.13.08.19.15.38.21.57.96,3.32-3.92,6.46-5.95,8.41-2.99,2.88-6.08,5.99-9.95,7.64-2.81,1.2-6.89,2.11-8.53-1.22-1.73-3.51-.84-7.98-.32-11.65.69-4.93,0-9.27-.7-14.15-.6-4.15-.49-7.98,1.16-11.87Z"/>
      <path class="cls-9" d="M251.18,114.48c-4.72-.53-9.12,1.7-12.75,4.51-.32.25.13.7.45.45.04-.03.08-.06.12-.09-.02.19.14.42.4.39,1.39-.2,2.84.15,3.99.97.61.43,1.13.97,1.71,1.44.56.45,1.14.86,1.75,1.23.35.21.67-.34.32-.55-.7-.43-1.36-.9-1.99-1.44-.58-.5-1.13-1.04-1.79-1.44-1.22-.75-2.66-1.01-4.08-.83,3.42-2.55,7.5-4.48,11.87-3.99.41.05.4-.59,0-.64Z"/>
      <path class="cls-9" d="M228.52,116.42c-1.56-1.96-4.14-2.42-6.49-2.64-2.5-.24-5.09-.42-7.45.59-.38.16-.05.71.32.55,2.19-.94,4.66-.73,6.98-.52,2.24.21,4.7.59,6.19,2.47.25.32.7-.13.45-.45Z"/>
      <path class="cls-9" d="M227.89,119.09c-1.24,0-2.47.28-3.59.81-.55.26-1.06.58-1.54.95-.54.42-.96.97-1.51,1.38-.32.24,0,.8.32.55.5-.37.89-.86,1.36-1.25.46-.39.97-.71,1.5-.98,1.07-.54,2.26-.81,3.46-.81.41,0,.41-.64,0-.64Z"/>
      <path class="cls-25" d="M238.96,119.96c-.06-1.65-.02-3.86-.95-5.28-1.08-1.65-3.11-1.44-4.83-1.45-1.5,0-2.99.26-3.65,1.54-.99.27-1.85,1.04-1.93,2.33-.12,1.81-.05,3.67.34,5.45.49,2.25,1.93,2.9,4.08,2.9,1.65,0,3.91.4,5.39-.45,1.8-1.03,1.63-3.25,1.56-5.05Z"/>
      <path class="cls-8" d="M335.72,108.39c-.03-.6-.91-.64-.99-.12-.07.08-.12.18-.12.32,0,2.09-1.1,3.87-2.17,5.58-.28.45.25.89.68.69.23-.11.43-.26.62-.42,0,.23,0,.45-.01.68-.02.42.56.68.85.36.76-.85.89-1.95,1.02-3.04.16-1.34.19-2.69.13-4.04Z"/>
      <path class="cls-8" d="M334.68,108.45c-.35-.49.32-1.07.71-.7.1.02.2.07.29.18,1.28,1.64,3.25,2.37,5.15,3.06.49.18.35.86-.11.96-.25.05-.5.06-.75.04.14.18.28.36.43.53.27.32-.02.88-.45.8-1.12-.2-1.91-.99-2.68-1.77-.95-.96-1.81-2-2.59-3.1Z"/>
      <path class="cls-12" d="M337.8,101.86c-.19-.21-.54-.12-.7.05-1.34,1.41-2.25,3.15-2.64,5.06-.06.28.1.47.3.54,0,.04,0,.08,0,.12.03.68,1.14.94,1.64,1.18.74.34,1.51.72,2.33.78.6.04,1.41-.05,1.5-.77.1-.76-.35-1.53-.68-2.18-.44-.87-.59-1.71-.77-2.66-.15-.81-.42-1.51-.97-2.12Z"/>
      <path class="cls-12" d="M329.22,104.98c.02-.28.35-.43.59-.39,1.93.28,3.71,1.1,5.19,2.36.21.18.21.43.1.62.03.03.05.06.08.09.39.55-.31,1.44-.56,1.93-.37.72-.74,1.5-1.35,2.05-.44.4-1.14.83-1.66.32-.54-.54-.66-1.42-.8-2.14-.19-.96-.59-1.72-1.03-2.57-.37-.73-.6-1.44-.54-2.27Z"/>
      <path class="cls-9" d="M337.72,105.35c-.91.2-1.58.9-2.07,1.65-.04.07.07.12.11.05,0,0,.01-.02.02-.02,0,.04.05.07.1.05.25-.13.54-.15.8-.08.14.04.27.11.41.16.13.05.27.09.4.12.08.02.1-.1.02-.12-.16-.03-.31-.08-.46-.14-.14-.06-.28-.12-.42-.15-.27-.06-.56-.02-.81.11.47-.69,1.1-1.31,1.94-1.5.08-.02.04-.13-.04-.12Z"/>
      <path class="cls-9" d="M333.65,107.15c-.41-.26-.92-.18-1.37-.07-.48.12-.97.25-1.34.58-.06.05.04.13.09.08.35-.31.82-.43,1.26-.54.43-.1.91-.19,1.3.06.07.04.12-.07.05-.11Z"/>
      <path class="cls-9" d="M333.71,107.69c-.23.08-.44.21-.61.38-.09.08-.16.17-.22.27-.07.11-.12.24-.19.35-.04.07.05.15.09.08.07-.1.11-.21.17-.32.06-.1.13-.19.22-.28.16-.17.37-.29.59-.37.08-.03.04-.14-.04-.12Z"/>
      <path class="cls-25" d="M335.81,107.14c-.12-.3-.25-.71-.51-.92-.31-.24-.67-.07-.99.04-.28.09-.54.24-.58.52-.17.11-.28.31-.21.55.09.34.23.68.41.99.23.38.54.41.94.28.31-.11.75-.17.97-.43.27-.31.09-.71-.03-1.03Z"/>
    </g>
  </g>
</svg>