<svg width="50" height="37" viewBox="0 0 50 37" fill="none" xmlns="http://www.w3.org/2000/svg">
<path d="M49.689 5.05688C49.0294 2.19865 44.6322 5.18952e-05 38.9157 5.18952e-05C32.7596 5.18952e-05 28.1424 2.41853 27.9226 5.71647V30.561C27.9226 30.7808 27.9226 31.0007 28.1425 31.2206C29.022 34.0788 33.4192 36.0576 38.9158 36.0576C44.1925 36.0576 48.3699 34.2987 49.4692 31.6603C49.6891 31.4404 49.9089 31.2206 49.9089 30.7808V5.71647C50.1288 5.49659 49.9089 5.27676 49.689 5.05688ZM38.9157 2.19865C43.9726 2.19865 47.7103 4.17741 47.7103 5.71647C47.7103 7.47536 43.9726 9.23429 38.9157 9.23429C33.8589 9.23429 30.1212 7.25553 30.1212 5.71647C30.3411 4.17741 34.0787 2.19865 38.9157 2.19865ZM30.3411 9.23424C32.3199 10.5534 35.3979 11.4329 39.1356 11.4329C42.8733 11.4329 45.9514 10.5534 47.9302 9.01441V12.0925H47.7103C47.7103 13.8514 43.9726 15.6103 38.9157 15.6103C33.8589 15.6103 30.1212 13.6315 30.1212 12.0925V9.23424H30.3411ZM30.3411 15.6103C32.3199 16.9295 35.3979 17.809 39.1356 17.809C42.8733 17.809 45.9514 16.9295 47.9302 15.3905V17.5891H47.7103C47.7103 19.348 43.9726 21.1069 38.9157 21.1069C33.8589 21.1069 30.1212 19.1282 30.1212 17.5891V15.6104L30.3411 15.6103ZM30.3411 21.3267C32.3199 22.6459 35.3979 23.5254 39.1356 23.5254C42.8733 23.5254 45.9514 22.6459 47.9302 21.1069V23.9651H47.7103C47.7103 25.724 43.9726 27.483 38.9157 27.483C33.8589 27.483 30.1212 25.5042 30.1212 23.9651V21.3268L30.3411 21.3267ZM38.9157 33.8589C33.8589 33.8589 30.1212 31.8801 30.1212 30.3411V27.4829C32.1 28.802 35.178 29.6815 38.9157 29.6815C42.6534 29.6815 45.7315 28.802 47.7103 27.263V30.1213H47.4904C47.7103 31.8801 43.9726 33.8589 38.9157 33.8589ZM5.05688 7.69524H2.19865C1.09935 7.69524 0 8.57471 0 9.89388V34.2987C0 35.1781 0.659589 35.8377 1.53906 35.8377H5.49659C6.37606 35.8377 7.03565 35.1781 7.03565 34.2987V9.89388C7.25553 8.79459 6.15618 7.69524 5.05688 7.69524ZM5.05688 33.639H2.19865V9.89383H5.05688V33.639ZM14.511 0H11.4329C10.3336 0 9.23424 0.879469 9.23424 2.19865V34.5185C9.23424 35.398 9.89383 36.0576 10.7733 36.0576H14.7308C15.6103 36.0576 16.2699 35.398 16.2699 34.5185V2.19865C16.4898 0.879469 15.6103 0 14.511 0ZM14.2911 33.8589H11.6528V2.19865H14.511V33.8589H14.2911ZM23.7452 16.05H20.887C19.7877 16.05 18.6883 16.9295 18.6883 18.2487V34.0788C18.6883 34.9583 19.3479 35.6178 20.2274 35.6178H24.1849C25.0644 35.6178 25.724 34.9583 25.724 34.0788V18.0288C25.9438 17.1493 25.0644 16.05 23.7452 16.05ZM23.7452 33.639H20.887V18.4685H23.7452V33.639Z" fill="#37502D"/>
</svg>
