<?xml version="1.0" encoding="UTF-8"?>
<svg id="Layer_1" data-name="Layer 1" xmlns="http://www.w3.org/2000/svg" viewBox="0 0 357.72 336.01">
  <defs>
    <style>
      .cls-1 {
        fill: #3f3832;
      }

      .cls-2 {
        fill: #9b6f67;
      }

      .cls-3 {
        fill: #efe7dc;
      }

      .cls-4 {
        fill: #d8c6b4;
      }

      .cls-5 {
        fill: #3f3632;
      }

      .cls-6 {
        fill: #b2936f;
      }

      .cls-7 {
        fill: #534741;
      }

      .cls-8 {
        fill: #01430e;
      }

      .cls-9 {
        opacity: .12;
      }

      .cls-10 {
        fill: #eae2d8;
      }

      .cls-11 {
        fill: #bc9388;
      }

      .cls-12 {
        fill: #82ec86;
      }
    </style>
  </defs>
  <ellipse class="cls-9" cx="183.58" cy="306.93" rx="125.43" ry="29.08"/>
  <g id="tail">
    <g id="tail-2" data-name="tail">
      <path id="tail-3" data-name="tail" class="cls-7" d="M77.6,170.81s-12.36,61.21-53.58,38.26c0,0,22.35,34.89,54.26-1.61,31.92-36.5-.68-36.65-.68-36.65Z"/>
      <path class="cls-7" d="M25.97,210.72c.91-3.84-.3-7.66-1.62-11.25-1.21-3.28-3.36-5.58-6.66-6.81-3.87-1.44-17.88-2.36-14.57,5.51,1.53,3.62,4.45,6.68,7.64,8.9l1.16-2.74c-2.92-.54-6.35-1.11-8.99.65-2.07,1.39-3.53,3.97-2.65,6.48s3.87,4.04,6.26,4.91c2.9,1.05,6.01,1.2,9.03.62l-1.16-2.74c-1.95,1.44-5.73,5.24-3,7.65s6.16-1.59,8.04-3.36c1.35-1.26,2.67-2.55,3.96-3.87,1.06-1.08,2.51-2.26,3.03-3.73.61-1.72-.14-3.32-.9-4.84s-1.61-3.15-2.58-4.63c-1.82-2.77-4.19-5.22-7.3-6.51-2.63-1.09-6.04-1.4-8.32.63-5.55,4.95,6.38,11.21,9.94,12.64,1.62.65,3.21.5,3.69-1.42.44-1.75-.58-3.44-1.81-4.61-2.75-2.61-6.52-4.4-9.98-5.84-1.37-.57-2.14,1.18-1.69,2.2,1.68,3.86,5.55,6.36,9.71,6.57,1.25.06,1.72-1.29,1.3-2.26-1.3-2.97-4.32-4.83-7.52-4.87-.85,0-1.45.7-1.5,1.5-.14,2.17,1.89,4.03,3.66,4.98s4.45.56,5.02-1.65c.52-1.99-1.5-3.94-3.47-3.36-2.08.61-2.34,3.11-1.16,4.62s3.29-.61,2.12-2.12c.25.28.11.39-.41.32.21-.34.19-.43-.09-.27-.29-.18-.71-.23-1.03-.46-.66-.46-1.71-1.18-1.65-2.06l-1.5,1.5c2.24.02,4.05,1.36,4.93,3.38l1.3-2.26c-3.19-.16-5.87-2.19-7.12-5.08l-1.69,2.2c2.05.85,4.03,1.89,5.9,3.08.46.29,4.67,2.98,3.74,3.75l1.06-.44c-.66.06-1.62-.57-2.2-.85-.83-.4-1.64-.84-2.42-1.32-1.52-.93-2.94-2.02-4.24-3.25-.43-.41-1.36-1.13-1.27-1.82.07-.51.7-.85,1.12-1.03,1.38-.59,3.08-.22,4.42.32,3.43,1.41,5.63,4.61,7.33,7.75.65,1.2,2.47,3.6,1.53,4.91-1.05,1.46-2.59,2.73-3.87,3.98-1.54,1.51-3.11,2.98-4.72,4.41-.27.24-.86.91-1.26.88-.13,0-.07-.02-.04.02.06.09.31-.45.35-.52.52-.9,1.27-1.68,2.1-2.3,1.36-1,.57-3.07-1.16-2.74-2.07.39-4.2.31-6.24-.24-1.69-.46-3.78-1.26-4.96-2.64s-.27-2.91,1.02-3.74c1.88-1.2,4.51-.63,6.54-.25,1.68.31,2.58-1.75,1.16-2.74-2.56-1.78-5.23-4.45-6.39-7.42-.6-1.55.56-1.95,1.9-2.17,1.66-.27,3.47-.24,5.15-.14,3.19.19,6.53,1.33,8.04,4.35.78,1.56,1.29,3.34,1.75,5.02.53,1.91.82,3.84.36,5.79s2.45,2.68,2.89.8h0Z"/>
    </g>
    <path class="cls-7" d="M8.33,202.1c4.24.08,6.68,3.84,8.06,7.42,1.75,4.54,8.77,4.18,8.84-1.2s-1.03-16-8.83-15.02c-2.06.26-3.7,1.23-4.34,3.3-1.61,5.23,2.44,11.47,4.76,15.98,1.95,3.79,6.92,2.22,8.22-1.07,2.12-5.34,1.28-11.47-2.32-15.97-2.97-3.71-8.15-6.7-13.04-5.81s-7.54,5.72-6.26,10.45c.64,2.36,2.19,4.24,4.05,5.76,1.53,1.25,5.08,2.52,5.88,4.43l5.54-5.54c-5.3-1.11-19.24-5.82-18.27,4.48.85,9.04,13.48,6.73,19.45,5.68,5.69-1,3.28-9.68-2.39-8.68-1.55.27-3.1.47-4.67.57-.79.05-1.58.08-2.36.09-2.25.02-1.94-.57-2.9,2.25s-1.07,2.23,1.01,2.67c.79.17,1.59.33,2.38.5,1.79.38,3.57.75,5.36,1.13,2.95.62,6.97-2.11,5.54-5.54-1.1-2.64-2.54-4.54-4.85-6.25-.8-.59-1.62-1.1-2.45-1.64-.94-.62-1.79-1.75-2.62-2.29-.3-.14-.43.14-.37.83.62.12,1.21.34,1.76.66.85.45,1.63,1.08,2.24,1.84,1.94,2.41,1.72,5.29.64,8l8.22-1.07c-.81-1.57-1.59-3.15-2.32-4.76-.46-1.01-1.88-3.15-1.53-4.28l-4.34,3.3c-.96-1.1-1.25-1.19-.87-.27.17.61.31,1.22.42,1.84.27,1.48.3,2.95.28,4.45l8.84-1.2c-2.88-7.47-8.13-13.88-16.74-14.03-5.79-.1-5.79,8.9,0,9h0Z"/>
    <path class="cls-7" d="M19.3,215.18c5.79,0,5.8-9,0-9s-5.8,9,0,9h0Z"/>
    <path class="cls-7" d="M14.71,192.43c-3.36-.65-7.22-2.01-9.79,1.09-2.33,2.8-1.25,6.7,1.42,8.81l4.38-7.52c.76.13,1.43,1.31,1.44,2.06.01.75-.3,1.34-.92,1.74-.32.08-.33.09-.02,0,.32-.09.3-.08-.05.02-.14-.02-.06.01.24.08.46.2.89.4,1.34.65l3.47-8.22c-2.78-.59-6.11-1.83-8.95-1.13-3.11.77-5.07,3.58-4.94,6.74.25,6.01,7.46,8.58,12.3,9.97,5.58,1.6,7.96-7.08,2.39-8.68-1.16-.33-2.32-.7-3.43-1.2-.71-.32-2.35-1.35-2.51-1.33-.22-.21-.23-.22-.05-.02.27.46.34.93.2,1.4l-2.28,1.92c-.36-.1-.26-.09.3.04,1.53.27,3.06.65,4.58.97,4.83,1.03,8.08-5.6,3.47-8.22-4-2.28-9.31-3.01-12.54.99-2.93,3.63-1.41,10.04,3.57,10.91,1.99.35,4.01-.23,5.08-2.07.93-1.58.84-4.23-.7-5.45-.2-.15-.39-.3-.57-.47-.93-.91-.86.1.21,3.03l-1.61,1.61.32-.2-2.27.61c-.37-.25-.23-.26.43-.03l.93.18,2.18.42c2.38.46,4.86-.67,5.54-3.14.61-2.2-.75-5.07-3.14-5.54h0Z"/>
    <path class="cls-7" d="M15.97,214.27c-.07.38-.19.74-.33,1.1l.2-.48c-.2.47-.46.9-.76,1.3l.31-.4c-.3.38-.64.72-1.03,1.02l.4-.31c-.34.26-.7.48-1.09.66-.43.2-.8.76-.92,1.2-.13.48-.07,1.12.2,1.54s.69.8,1.2.92l.53.07c.36,0,.7-.09,1.01-.27.57-.26,1.05-.62,1.54-1.01.36-.29.69-.62.98-.99.38-.49.74-.98,1-1.54s.49-1.13.61-1.74c.1-.53.08-1.06-.2-1.54-.24-.41-.72-.81-1.2-.92-.51-.12-1.09-.09-1.54.2-.42.27-.82.69-.92,1.2h0Z"/>
  </g>
  <g id="legs">
    <path class="cls-4" d="M256.88,192.55s-9.67,125.2-25.07,118.53c0,0-4.22,1.11-5.86-11.66,0,0-.55,12.63-5.18,11.92,0,0-6.68,1.71-7.64-10.02-.95-11.73-24.09-78.86-24.09-78.86l67.83-29.9Z"/>
    <path class="cls-4" d="M155.06,262.7c17.7-44.17-52.65-79.34-52.65-79.34,0,0-.88,7.04-1.76,17.67,1.31,1,2.55,2,3.72,2.94,6.44,5.18,13.82,10.68,18.95,17.13,2.82,3.54,3.15,7.84,0,11.32-.73.81-1.53,1.49-2.37,2.09,3.58,3.18,6.98,6.52,9.94,10.17,3.92,4.85,1.98,14.25-5.66,13.67-9.81-.75-18.62-5.05-26.3-10.95.5,24.13,3.9,47.02,14.38,52.12,23.95,11.64,58.64,11.72,58.64,11.72,9.41,1.07,16.76-2.57,18.41-8.65s-8.04-12.28-8.04-12.28c0,0,10.07,4.82,12.77-5.13,2.71-9.95-40.04-22.47-40.04-22.47Z"/>
    <path class="cls-7" d="M220.13,282.5c9.06-.58,17.58-.95,25.93-3.62-3.88,19.85-8.69,34.61-14.24,32.2,0,0-4.22,1.11-5.86-11.66,0,0-.55,12.63-5.18,11.92,0,0-6.68,1.71-7.64-10.02-.25-3.01-1.95-9.68-4.36-17.93,3.76-.11,7.47-.64,11.35-.89Z"/>
    <path class="cls-7" d="M167.78,275.45c.94-2.5,1.82-5.02,2.63-7.57,12.04,4.56,26.7,11.44,25.08,17.39-2.71,9.95-12.77,5.13-12.77,5.13,0,0,9.69,6.2,8.04,12.28-1.65,6.08-9.01,9.72-18.41,8.65,0,0-6.93-.02-16.73-1.08,7.28-10.62,10.41-22.11,12.17-34.81Z"/>
  </g>
  <g id="body">
    <path class="cls-10" d="M280.06,87.63s50.24,70.75,28.92,111.48c0,0-9.56,18.34-35.51,37.88-25.94,19.54-41.08,29.25-41.08,29.25,0,0-16.16,5.19-49.91,3.51l-64.38,29.07s-6.07-28.19-42-60.03c0,0-24.12-45.51,17.37-88.89,0,0,23.37-32,79-33.63,0,0,24.05-3.71,27.78-25.68l79.81-2.97Z"/>
    <path class="cls-7" d="M172.45,116.82c1.65,3.22,3.56,6.23,5.62,9.2,1.26,1.79,2.53,3.56,3.81,5.33,1.28,1.78,1.4,1.95.36.51.67.98,1.36,1.94,2.01,2.94,1.29,1.97,2.34,4.03,3.53,6.05.17.29.48,1.15.62,1.5.2.75.38,1.51.52,2.27-.03-1.22-.02-1.3.03-.24.1,1.19.11,2.39.07,3.59-.02.66-.06,1.32-.12,1.97-.04-.06-.38,1.88-.57,2.51-.23.73-.49,1.44-.77,2.15-.39.6-.81,1.17-.97,1.41-.16.26-.54.93-.95,1.59-.14.16-.37.42-.69.79-.29.32-.58.64-.87.95-1.67,1.8-3.46,3.5-5.29,5.15-7.12,6.42-14.43,11.57-18.51,20.6-2.27,5.02-3.29,10.55-3.2,16.07.02,1.12.1,2.24.18,3.36.11,1.26.2,2.27.27,3.03.01.19.02.39.03.58-.02,2.53-.06,5.02-.17,7.55,0,.14,0,.25,0,.36-.04.11-.07.2-.11.34-.32,1.01-.64,2.07-.9,3.09-.1.4-.35,1-.54,1.42-.27.5-.54,1-.83,1.49-.57.95-1.22,1.85-1.82,2.78-.02.04-.04.07-.07.11-.03.02-.05.05-.08.07-1.87,1.7-3.52,3.6-5.45,5.25-.4.34-1,.99-1.61,1.52-.24.08-.57.22-.99.45-1.69.93-3.31,1.93-5.07,2.74-.18.08-.38.16-.59.23.66-.41.18-.69-1.51.52-1.73.41-3.43.86-5.19,1.14-.66-.13-1.83.13-2.44.13-1.78,0-3.55-.08-5.32-.26-.78-.08-1.55-.18-2.33-.28-.06-.01-.09-.02-.15-.04-1.79-.46-3.59-.84-5.36-1.35-3.85-1.12-7.55-2.57-11.26-4.07-.34-.14-.65-.22-.92-.28-.68-.35-1.37-.79-1.88-1.04-1.78-.87-3.55-1.78-5.3-2.72-9.7-5.17-19.07-11.11-28.43-16.86-1.66-19.3,2.78-37.42,23.78-60.27,0,0,23.37-32,79-33.63,0,0,.11-.02.3-.05.06.11.1.23.16.35Z"/>
    <path class="cls-7" d="M260.81,125.66c-3.51-12.79-8.2-25.72-15.27-36.75l34.52-1.28s31.56,44.46,34.03,83.18c-3.69-1.87-8.03-2.56-12.13-1.82-.06.01-.1.02-.15.03-.05,0-.09,0-.14,0-.33,0-.66-.04-.99-.06-1-.43-2.79-.59-3.65-.88-.69-.23-1.37-.49-2.05-.76-.19-.08-.34-.14-.48-.2-1.92-1.08-5.01-3.05-5.56-3.42-1.27-.85-2.48-1.77-3.7-2.68-.48-.41-.96-.83-1.43-1.25-4.6-4.13-8.6-8.72-12.43-13.55,0-.01-.01-.02-.02-.03-.14-.21-.3-.47-.51-.79-.79-1.21-1.55-2.43-2.26-3.68-.5-.87-.96-1.75-1.41-2.64.04-5.02-1.96-9.82-6.34-13.41Z"/>
    <path class="cls-7" d="M195.32,181.17c-4.28,3.09-9.61,3.82-11.37,9.54-1.87,6.07,2.54,10.09,7.96,11.56,4.45,1.2,10.15,1.89,14.41-.36,5.37-2.83,5.59-8.52,3.53-13.63-4.42-10.97-18.93-9.6-24.05.27-2.26,4.36-1.77,10.15,1.53,13.86,3.62,4.07,9.14,4.5,14.15,3.34,5.61-1.31,9.74-4.32,9.37-10.61-.3-5.06-3.13-9.98-7.47-12.63-10.24-6.26-21.59,2.3-22.71,13.12-1.38,13.37,14.61,16.29,24.39,12.7,11.61-4.26,12.8-16.28,5.15-25.01-4.05-4.62-9.59-7.62-15.83-6.9-5.79.67-13.79,4.03-15.46,10.22-1.37,5.07,1.06,12.37,4.33,16.35,4.44,5.39,11.15,5.53,17.35,3.32,6.62-2.36,3.77-12.99-2.92-10.61-1.58.56-4.15,1.76-5.74.62-1.13-.82-2.52-4.87-2.27-6.18.54-2.86,7.58-3.29,9.98-1.67,3.02,2.04,7.12,6.97,2.44,9.25-2.69,1.31-11.09,2.68-10.28-1.96.71-4.08,4.72-5.72,7.33-2.32,1.42,1.84.76,1.64-1.25,1.81s-3.37-.45-1.75-2.42c.37-.46,2.09-1.57,2.71-1.4s.34.7.87.98l.37,1.21.92-1.39c-.35-.23-2.12.07-2.55.05-1.22-.08-3.43-1.12-4.44-.85-1.16-.57-1.22-.19-.16,1.15.08,1.37.49,1.73,1.24,1.09,1.5.07,4.64-2.15,5.78-2.98,5.68-4.11.2-13.66-5.55-9.5h0Z"/>
  </g>
  <g id="legs-2" data-name="legs">
    <path class="cls-10" d="M290.8,204.33s-9.67,125.2-25.07,118.53c0,0-4.22,1.11-5.86-11.66,0,0-.55,12.63-5.18,11.92,0,0-6.68,1.71-7.64-10.02-.95-11.73-24.09-78.86-24.09-78.86l67.83-29.9Z"/>
    <path class="cls-10" d="M122.63,274.27c2.19-5.46,3.03-10.78,2.82-15.92-.07,0-.15,0-.22,0-15.08-1.15-27.83-10.67-37.7-21.56-4.82-5.31-9.35-11.18-12.87-17.44-1.42-2.53-2.24-4.41-3-7.1-1.08-.3-1.55-1.14-2.44-1.83-2.57,29.37-6.6,91.79,11.66,100.67,23.95,11.64,58.64,11.72,58.64,11.72,9.41,1.07,16.76-2.57,18.41-8.65s-8.04-12.28-8.04-12.28c0,0,10.07,4.82,12.77-5.13,2.71-9.95-40.04-22.47-40.04-22.47Z"/>
    <path class="cls-7" d="M254.05,294.28c9.06-.58,17.58-.95,25.93-3.62-3.88,19.85-8.69,34.61-14.24,32.2,0,0-4.22,1.11-5.86-11.66,0,0-.55,12.63-5.18,11.92,0,0-6.68,1.71-7.64-10.02-.25-3.01-1.95-9.68-4.36-17.93,3.76-.11,7.47-.64,11.35-.89Z"/>
    <path class="cls-7" d="M135.35,287.02c.94-2.5,1.82-5.02,2.63-7.57,12.04,4.56,26.7,11.44,25.08,17.39-2.71,9.95-12.77,5.13-12.77,5.13,0,0,9.69,6.2,8.04,12.28-1.65,6.08-9.01,9.72-18.41,8.65,0,0-6.93-.02-16.73-1.08,7.28-10.62,10.41-22.11,12.17-34.81Z"/>
  </g>
  <g id="ear_left" data-name="ear left">
    <path class="cls-3" d="M303.65,30.02c9.79,2.08,27.84,3.84,37.46-8.28,1.46-1.84,4.01-2.39,6.01-1.16,6.73,4.12,18.47,14.48,2.89,30.73-.36.37-.77.68-1.23.91-3.14,1.57-16.13,6.73-35.09-3.71-7.85-4.32-12.23-8.15-14.61-11.29-2.55-3.35.46-8.08,4.58-7.21Z"/>
    <path class="cls-11" d="M349.19,21.96c-9.44,13.96-27.27,23.76-43.63,21.41,2.18,1.62,4.84,3.34,8.12,5.14,18.96,10.43,31.95,5.27,35.09,3.71.46-.23.88-.54,1.23-.91,14.07-14.67,5.87-24.54-.81-29.35Z"/>
  </g>
  <g id="ear_right" data-name="ear right">
    <path class="cls-7" d="M211.58,27.99c-9.79,2.08-27.84,3.84-37.46-8.28-1.46-1.84-4.01-2.39-6.01-1.16-6.73,4.12-18.47,14.48-2.89,30.73.36.37.77.68,1.23.91,3.14,1.57,16.13,6.73,35.09-3.71,7.85-4.32,12.23-8.15,14.61-11.29,2.55-3.35-.46-8.08-4.58-7.21Z"/>
    <path class="cls-11" d="M166.03,19.93c9.44,13.96,27.27,23.76,43.63,21.41-2.18,1.62-4.84,3.34-8.12,5.14-18.96,10.43-31.95,5.27-35.09,3.71-.46-.23-.88-.54-1.23-.91-14.07-14.67-5.87-24.54.81-29.35Z"/>
  </g>
  <g id="head">
    <path class="cls-6" d="M313.68,44.45s2.07-35.77-8.12-43.05-6.89,16.12-14.16,16.5l22.28,26.55Z"/>
    <path class="cls-6" d="M202.73,44.45s-2.07-35.77,8.12-43.05,6.89,16.12,14.16,16.5l-22.28,26.55Z"/>
    <ellipse class="cls-3" cx="257.28" cy="67" rx="65.29" ry="62.83"/>
    <rect class="cls-11" x="229.23" y="99.8" width="64.55" height="33.97" rx="16.35" ry="16.35" transform="translate(523.01 233.57) rotate(-180)"/>
    <path class="cls-2" d="M276.52,114.4s-9.65,1.49-10.8,10.92c-.21,1.76,8.79-10.04,10.8-10.92Z"/>
    <path class="cls-2" d="M246.51,114.4s9.65,1.49,10.8,10.92c.21,1.76-8.79-10.04-10.8-10.92Z"/>
    <path class="cls-7" d="M253.45,6.49c9.66,6.77,16.64,25.29,6.38,34.24-4.29,3.75-8.47,6.98-9.26,13-.71,5.43,2.28,12.63-.86,17.5-7.56,11.71-21.02,3.28-31.35,1.71-8.1-1.23-18.45-.02-25.43,5.27-.69-3.67-1.08-7.45-1.08-11.31,0-32.9,26.29-59.88,59.76-62.59.36.81.95,1.56,1.83,2.17Z"/>
    <path class="cls-7" d="M303.21,97.7c4.32-4.09,5.28-8.49,2.3-13.85-1.78-3.2-2.15-5.09-.97-8.65.98-2.95,2.47-5.75,4.8-7.86,3.61-3.28,8.32-4.5,13.06-4.83.11,1.49.18,2.99.18,4.51,0,16.9-6.95,32.24-18.24,43.53-3.95-3.47-5.96-8.26-1.13-12.84Z"/>
    <path class="cls-7" d="M309.61,51.74c.45-2.68-.11-5.13-2.17-7.02-1.73-1.6-4.72-2.71-7.04-1.95-5.13,1.67-4.58,9.15-1.39,12.32,1.83,1.81,4.77,2.86,7.32,2.3,2.81-.62,3.85-3.15,3.91-5.82.13-5.41-3.83-10.43-9.26-11.22-5.94-.87-6.96,6.43-5.58,10.67,1.47,4.49,6.17,8.78,11.17,7.32,5.7-1.67,5.35-10.09,2.74-14.2-2.44-3.84-8.67-6.23-13.06-4.88-6.98,2.16-3.68,10.38-.45,14.24,1.89,2.25,4.53,4.17,7.59,4.16s5.69-2.01,6.58-4.96c1.3-4.32-5.46-6.17-6.75-1.86.12-.39-.5-.38-1.14-.88-.76-.6-1.39-1.45-1.91-2.26-.48-.74-.68-1.71-1.15-2.41-.78.59-.73.8.15.65l.41.07c1.47.23,3.31.82,4.03,2.23.53,1.03,0,2.27.38,3.25-.21.96,0,1.01.6.16-.21-.03-.41-.11-.57-.25-.27-.45-1.02-.79-1.36-1.29-.45-.65-.76-1.47-.85-2.26-.01-.35,0-.71,0-1.06.28-.91-.22-.74-1.49.53.02.09,1.72,1.01,1.97,1.32.58.7.57,1.38.92,2.14-.2,1.27.28,1.18,1.45-.27-.27-.07-.51-.2-.73-.39-.04-.08-.46-1.6-.36-1.52-1.54.52-1.86.93-.96,1.21.12.2.19.22.21.06-.74,4.41,6,6.3,6.75,1.86h0Z"/>
    <path class="cls-1" d="M296.95,88.87c-.94-1.8-2.08-3.47-3.38-5.03s-2.75-3.23-4.76-3.57c-2.19-.38-4.26.91-4.59,3.17s.88,4.01,2.25,5.59c1.26,1.45,2.81,2.76,4.5,3.69,1.01.56,2.18.96,3.35.73,1.32-.26,1.9-1.47,1.9-2.71,0-2.13-.86-4.08-2.21-5.69-.59-.71-1.28-1.32-2.01-1.89-.87-.68-1.78-1.48-2.93-1.57-1.32-.1-2.44.9-2.65,2.17s.39,2.38,1.13,3.35c1.31,1.73,3.09,2.99,5.02,3.96,1.17.59,2.52-.38,2.2-1.69-.49-2.07-1.51-3.95-2.9-5.55l-.3,2.36c-.27.14-.5.15-.7.02-.07-.04-.06-.03.02.01.03.03.27.19.15.09.25.19.47.41.7.62.48.45.93.93,1.35,1.43.17.2.24.29.4.55.13.2.27.47.31.58.04.13.09.27.1.4-.02-.2-.02.11-.02.17,0,.11,0,.11,0,0l-.04.15c.12-.19-.15.21-.15.2-.43.6-.16,1.53.39,1.94.59.44,1.43.42,1.97-.12.43-.43.76-.97.88-1.57.06-.29.08-.57.06-.86,0-.06,0-.17-.01-.23,0-.09,0-.08-.02.03-.04.29-.21.53-.5.7l-.76.2h.09c-.5-.51-1-1.01-1.5-1.51,0,.23,0,.46,0,.68-.01.2,0,.11-.04.24-.06.19-.09,0,.08-.03-.37.06.19-.01.24,0-.71-.2-1.5.19-1.77.87-.29.73-.01,1.43.61,1.87,1.6,1.13,3.69-.07,4.17-1.78s-.51-3.31-1.44-4.64c-1.69-2.41-3.89-4.54-6.62-5.73-.74-.32-1.61-.22-2.05.54-.37.64-.21,1.73.54,2.05,1.99.87,3.47,2.08,4.86,3.75.55.66,1.25,1.59,1.67,2.5.05.11.14.34.17.55-.03-.21-.01.13-.02.17,0,.11,0,.11,0,0l-.05.15s.04-.1.11-.15c.07-.04.06-.04-.01,0-.09.05-.08.05.05-.01.04-.07.22.06,0,0,.11.03.36.14.14-.02l-1.16,2.74c1.06.3,2.14-.13,2.81-.98.63-.81.73-1.82.72-2.81-.01-.76-.68-1.57-1.5-1.5-.89.08-1.59.59-1.76,1.5-.05.28-.08.57-.04.86,0,.17,0,.22.02.12.02-.09.01-.05-.03.12.05-.07.16-.2-.05.01l2.36,1.82c1.38-1.9.23-4.15-1.06-5.7-.6-.72-1.26-1.39-1.98-1.99-.87-.74-2.07-1.41-3.17-.65-.83.57-.97,1.59-.3,2.36,1.03,1.19,1.75,2.64,2.13,4.23l2.2-1.69c-1.24-.62-2.36-1.31-3.29-2.2-.5-.48-.8-.83-1.13-1.36-.16-.26-.23-.35-.28-.53-.1-.35.02-.04-.05.04.05-.17.04-.18-.02-.03.09-.15.09-.15,0-.01.39-.14-.52.31-.49.19l-.05-.03c.1.05.2.11.3.17.29.18.56.39.84.6.42.32,1.07.88,1.52,1.36.87.91,1.51,1.97,1.74,3.29.04.23.03.54.05.87s-.04.07.06,0c-.19.16.42-.41.41-.3,0,.07-.7-.13-.83-.19-.24-.1-.64-.35-.93-.53-1.15-.72-2.11-1.54-3.05-2.57-.47-.51-.83-.94-1.18-1.5-.17-.27-.32-.54-.4-.75-.04-.11-.07-.22-.1-.34-.03-.11-.05-.23-.07-.35.02.16.03.15.01-.03,0-.03.03-.5-.01-.18.02-.14.06-.28.1-.42.1-.38-.12.17.08-.16.22-.37-.19.18.1-.14.19-.21-.15,0,.16-.12-.22.08.26-.07.25-.07-.25.05.25,0,.25,0,.19.01.22.01.1,0,.11.02.22.05.32.08.22.06.57.27.86.49.12.09.43.39.62.58.6.6,1.17,1.24,1.71,1.9,1,1.23,1.92,2.69,2.68,4.14.38.72,1.38.93,2.05.54.73-.43.91-1.33.54-2.05h0Z"/>
    <path class="cls-1" d="M223.68,91.19c.71-1.35,1.52-2.66,2.46-3.87.73-.93,1.75-2.19,2.69-2.85.53-.38.88-.55,1.46-.48-.25-.03.23.08.24.08-.22-.1.25.22,0,0,.03.03.29.36.13.12.05.08.1.16.14.24-.05-.14-.05-.13.01.04.04.14.08.28.1.42-.04-.32-.02.15-.01.18.03.38.09-.24-.02.21-.03.11-.05.23-.09.34-.16.53-.6,1.18-.95,1.62-.86,1.09-1.96,2.14-3.01,2.88-.53.37-1.08.77-1.68,1.02.14-.06-.38.13-.32.11.05-.02-.52.11-.31.07-.33.07-.12-.05,0,.08.11.08.21.18.28.3.02.14.02.12,0-.07.06-1.3.38-2.45,1.24-3.56.71-.91,1.87-1.93,2.9-2.56l.15-.09c.17-.09.2-.11.1-.05-.06,0-.11,0-.17,0-.18-.04-.31-.13-.39-.29.28.29-.14-.21.05.14-.08-.15.02-.29-.05-.04-.1.35.08-.06-.11.25-.11.19-.23.38-.35.56.02-.03-.3.4-.16.23-.14.17-.29.34-.44.5-1.03,1.1-2.22,1.84-3.64,2.55l2.2,1.69c.38-1.59,1.09-3.03,2.13-4.23.67-.77.53-1.78-.3-2.36-1.06-.73-2.24-.12-3.1.59-.74.62-1.43,1.31-2.05,2.05-1.29,1.55-2.44,3.8-1.06,5.7l2.36-1.82c-.2-.2-.11-.09-.05-.01l-.04-.16c.02.1.02.1.02,0,.02-.33.03-.61-.04-.94-.17-.91-.87-1.42-1.76-1.5-.82-.07-1.49.75-1.5,1.5-.02.99.08,2,.72,2.81.67.85,1.75,1.28,2.81.98l-1.16-2.74c-.17.12-.06.04.07.02.09,0,.09,0,0,0-.11,0-.09,0,.06,0,.05.08.1.09-.01-.02-.01-.01.15.14.15.14.08.05-.08-.23-.04-.04,0-.04,0-.41-.01-.29,0,.1.08-.29.08-.3,0,0,.09-.25.04-.13.4-.94,1.16-1.91,1.71-2.58,1.39-1.68,2.87-2.88,4.86-3.75.74-.32.91-1.41.54-2.05-.45-.77-1.31-.86-2.05-.54-2.73,1.19-4.93,3.31-6.62,5.73-.93,1.33-1.85,2.87-1.46,4.56s2.58,3,4.19,1.86c.61-.43.93-1.15.61-1.87-.3-.67-1.04-1.08-1.77-.87.04-.01.6.06.24,0,.17.03.14.22.08.03-.04-.14-.03-.04-.04-.24-.01-.23,0-.46,0-.68l-1.5,1.5h.09c-.25-.06-.5-.13-.76-.2-.09-.04-.61-.63-.52-.79-.02.04,0,.19,0,.24-.02.32,0,.59.06.91.12.6.45,1.14.88,1.57.53.52,1.39.58,1.97.12.54-.43.83-1.32.39-1.94,0,0-.21-.31-.16-.24.07.12-.07-.26-.03-.04-.06-.34-.04-.25.04-.57.09-.37.48-.89.74-1.21.4-.48.83-.94,1.28-1.37.23-.22.46-.42.7-.63.11-.1-.01,0,.15-.12l.13-.07c-.22.15-.46.15-.75,0l-.3-2.36c-1.39,1.6-2.41,3.48-2.9,5.55-.31,1.32,1.03,2.28,2.2,1.69,1.64-.82,3.25-1.87,4.47-3.27,1.3-1.48,2.71-3.98.8-5.62s-4.34.56-5.76,1.88-2.61,3.06-2.98,5.01c-.2,1.08-.35,2.34.22,3.33.67,1.17,2.17,1.27,3.34.96,1.9-.5,3.68-1.98,5.06-3.32s2.86-3.02,3.2-4.95c.35-2.04-.61-4.34-2.79-4.82-2.53-.56-4.51,1.25-6.06,3s-2.81,3.58-3.86,5.59c-.38.72-.18,1.63.54,2.05.68.4,1.68.18,2.05-.54h0Z"/>
  </g>
  <g id="coin">
    <path class="cls-12" d="M140.66,143.15c-5.2,3.15-10.08,6.88-14.87,10.61-2.12,1.65-4.24,3.31-6.36,4.96-.35.27-.74.56-.98.74-.65.44-1.3.87-1.95,1.29-5.78-2.78-10.76-7.36-14-13.46-8.07-15.21-2.29-34.08,12.91-42.15s34.08-2.29,42.15,12.91c2.56,4.83,3.73,10.02,3.64,15.12-6.96,3.12-14.05,6.04-20.54,9.97Z"/>
    <path class="cls-8" d="M129.43,113.6c-3.43.49-6.66,1.99-9.27,4.27-1.31,1.15-2.09,2.54-1.92,4.32.14,1.52.54,3.29,1.49,4.52,2.32,3,7.08,1.41,10.27,1.74s6.45,3.3,4.73,6.61c-2,3.85-7.36,2.7-10.61,1.65-1.84-.6-2.63,2.3-.8,2.89,3.51,1.14,7.38,1.82,10.8.03,3.02-1.58,4.65-4.88,3.76-8.22s-4.08-5.53-7.45-5.92c-1.97-.23-3.93.09-5.9.03-.7-.02-1.78,0-2.34-.53s-.68-1.56-.83-2.25c-.25-1.17-.12-1.82.78-2.63.73-.66,1.54-1.22,2.39-1.71,1.77-1.02,3.69-1.63,5.71-1.92.81-.12,1.24-1.13,1.05-1.85-.23-.86-1.05-1.16-1.85-1.05h0Z"/>
    <path class="cls-8" d="M121.56,111.95c3.19,10.52,6.37,21.04,9.56,31.55.56,1.84,3.45,1.06,2.89-.8-3.19-10.52-6.37-21.04-9.56-31.55-.56-1.84-3.45-1.06-2.89.8h0Z"/>
    <path class="cls-5" d="M163.19,131.75c-13.75,5.97-27.31,12.62-39.57,21.31-3.46,2.45-6.8,5.06-10.01,7.83-1.46,1.26.67,3.38,2.12,2.12,11.22-9.68,24.16-17.11,37.5-23.47,3.79-1.81,7.62-3.53,11.47-5.2,1.77-.77.24-3.35-1.51-2.59h0Z"/>
  </g>
</svg>