<?xml version="1.0" encoding="UTF-8"?>
<svg id="Layer_1" data-name="Layer 1" xmlns="http://www.w3.org/2000/svg" viewBox="0 0 394.51 261.52">
  <defs>
    <style>
      .cls-1 {
        fill: #3f3832;
      }

      .cls-2 {
        fill: #9b6f67;
      }

      .cls-3 {
        fill: #efe7dc;
      }

      .cls-4 {
        fill: #d8c6b4;
      }

      .cls-5 {
        fill: #3f3632;
      }

      .cls-6 {
        fill: #b2936f;
      }

      .cls-7 {
        fill: #534741;
      }

      .cls-8 {
        fill: #01430e;
      }

      .cls-9 {
        opacity: .12;
      }

      .cls-10 {
        fill: #eae2d8;
      }

      .cls-11 {
        fill: #bc9388;
      }

      .cls-12 {
        fill: #82ec86;
      }
    </style>
  </defs>
  <ellipse class="cls-9" cx="205.93" cy="240.3" rx="125.43" ry="21.22"/>
  <g id="tail">
    <path id="tail-2" data-name="tail" class="cls-7" d="M332.64,99.59s19.29,39.28,40.67-2.77c0,0,.94,41.42-45.92,28.96-46.86-12.46,5.24-26.18,5.24-26.18Z"/>
    <path class="cls-7" d="M374.65,97.07c-2.42-2.22-3.24-5.52-4.02-8.6-.46-1.81-.6-3.52.15-5.27.65-1.52,1.76-2.79,3-3.87s2.77-2.04,4.24-2.89c.85-.49,2.71-1.62,3.42-.44.38.63.33,1.68.37,2.39.04.89.02,1.78-.05,2.66-.16,1.94-.66,3.83-1.36,5.64-.56,1.46,1.51,2.44,2.51,1.46,1.44-1.41,3.12-3.19,5.22-3.5,1.53-.22,3.51.58,3.36,2.37-.16,1.94-1.63,3.99-2.91,5.38-1.42,1.55-3.13,2.7-5.06,3.53-1.47.63-.58,2.73.76,2.8,1.19.05,2.27.34,3.35.84.6.28.33.17-.24.2-.69.03-1.4-.14-2.08-.23-2.46-.36-4.91-.78-7.34-1.28-1.08-.22-2.23-.37-3.27-.72s-1.1-1.11-1.25-2.06c-.39-2.53-.65-5.16-.43-7.72.18-2.08.79-4.16,1.99-5.89.87-1.26,2.47-2.84,4.17-2.6,2.81.4-1.99,9.51-2.82,10.81-.1.16-.29.36-.35.53-.38.34-.32.47.2.4.47.15.57.11.3-.11,0-.31-.2-.67-.18-1.03.04-1.07.51-2.14.9-3.12.99-2.47,2.28-4.82,3.75-7.04l-2.74-.36c.53,2.9-.67,6.07-3.04,7.84l2.2.9c-.36-1.97.53-4.07,2.17-5.2l-1.82-.23c.37.47-.2,1.82-.36,2.29s-.41.72-.69,1.09c-.01.18.03.27.13.25-.17.13-.35.21-.55.26-.11,1.93,2.89,1.92,3,0,.11-2.02-2.1-3.67-3.98-2.73-1.76.88-1.98,3.54-.41,4.7,1.95,1.45,4.29-.12,5.1-2.02s1.28-4.18-.12-5.96c-.38-.48-1.32-.58-1.82-.23-2.84,1.95-4.17,5.21-3.55,8.59.16.89,1.46,1.45,2.2.9,3.53-2.64,5.22-6.88,4.42-11.23-.25-1.36-2.09-1.34-2.74-.36-1.92,2.9-3.66,6.12-4.67,9.46-.37,1.23-.56,2.61-.19,3.86s1.59,2.64,3.02,2.41,2.3-2.11,2.96-3.24c.92-1.58,1.69-3.25,2.3-4.97.91-2.55,2.43-6.73-.31-8.69-2.27-1.62-5.31-.46-7.2,1.17-2.37,2.05-3.67,5.14-4.11,8.19-.25,1.74-.27,3.5-.15,5.25s.21,3.89.73,5.66c1.03,3.46,5.05,3.6,8.06,4.17,2.05.39,4.1.73,6.16,1.02,1.83.26,3.96.67,5.33-.93,1.11-1.29.82-3.04-.45-4.09-1.5-1.24-3.7-1.65-5.59-1.74l.76,2.8c2.68-1.14,5-2.99,6.76-5.31,1.63-2.14,3.4-5.29,2.45-8.05-.82-2.38-3.47-3.65-5.88-3.53-3.08.15-5.49,2.35-7.57,4.39l2.51,1.46c1.34-3.47,1.87-7.31,1.34-11-.22-1.54-.9-2.98-2.38-3.64-1.39-.62-2.94-.3-4.29.28-3.06,1.3-6.24,3.56-8.29,6.19-2.26,2.9-2.87,6.18-1.99,9.73s2,7.53,4.85,10.14c1.42,1.3,3.55-.81,2.12-2.12h0Z"/>
    <path class="cls-7" d="M377.64,74.65c-7.07,4.94-8.13,12.92-6.37,20.91l8.22-3.47c-.72-1.04-1.41-2.08-1.99-3.21-.7-1.37-.28-2.6-1.91-1.78l-5.45-.7c1.86,1.5,1.82,7.33,2.1,9.6l6.77-3.89c-1.84-1.26-3.13-3.21-3.28-5.48-.07-1.08.12-2.24.54-3.24.3-.67.69-1.29,1.16-1.86.91-.49.91-.75,0-.78-1-.54-.63,1.24-.92,2.16-.39,1.24-1.02,2.4-1.49,3.61-1.06,2.76-1.24,5.13-.75,8.03.57,3.41,5.34,4.23,7.52,1.99,1.29-1.33,2.59-2.66,3.88-3.99.65-.66,1.29-1.33,1.94-1.99,2.11-1.51,1.24-2.93-2.61-4.26-1.14.26-2.9,2.02-3.98,2.64-1.57.9-3.19,1.68-4.83,2.41-5.28,2.36-.71,10.11,4.54,7.77s16.51-7.63,12.13-15.29c-5.05-8.84-13.75,2.55-17.43,6.34l7.52,1.99c-.45-2.73,2.22-6.02,2.74-8.71.49-2.53.2-5.18-1.16-7.41-2.59-4.27-7.86-5.11-11.82-2.29-9.34,6.64-6.76,20.3,1.75,26.14,2.63,1.8,7.17-.55,6.77-3.89-.59-4.92-.54-12.58-4.73-15.97-1.66-1.34-3.51-1.69-5.45-.7-7.03,3.55-2.57,12.62.67,17.3,2.88,4.16,9.36,1.66,8.22-3.47-.79-3.58-1.2-8.34,2.23-10.74,4.71-3.3.22-11.1-4.54-7.77h0Z"/>
    <path class="cls-7" d="M378.12,100.01c5.79,0,5.8-9,0-9s-5.8,9,0,9h0Z"/>
    <path class="cls-7" d="M378.33,83.92l1.62-1.61c.2-.2,1.31-1.09,1-.94l-2.27.61h.47c-.76-.19-1.51-.39-2.27-.6l-.17-.1-1.16-1.99c.16-.86.13-.86-.09-.02-1.33,4.33,4.42,7.54,7.52,4.38,3.5-3.57,2.05-9.8-2.81-11.3s-8.86,1.82-10.88,5.87c-2.2,4.4,3.35,9.3,7.07,5.45.81-.84,1.63-1.68,2.44-2.52.19-.2,1.25-.98,1.24-1.27-.02-.44-4.39-.95-3.54-1.66-.56.46-1.01,1.98-1.41,2.62-.58.92-1.2,1.8-1.9,2.63-1.56,1.86-1.83,4.54,0,6.36,1.6,1.6,4.8,1.87,6.36,0,3.35-4.01,8.05-10.12,4.83-15.45-1.63-2.71-4.84-3.76-7.77-2.75-2.7.93-4.7,3.68-6.62,5.67l7.07,5.45c.14-.29,1.19-1.66,1.21-1.92-.19.25-.33.3-.43.15-1.87-.55-2.28-1.78-1.23-3.7l7.52,4.38c1.04-3.36,0-7.48-3.79-8.51s-6.09,2.13-8.37,4.4c-4.11,4.09,2.25,10.46,6.36,6.36h0Z"/>
    <path class="cls-7" d="M380.17,99.56c.89.88,1.98,1.52,3.16,1.9s2.47.41,3.72.21c.46-.07.97-.53,1.2-.92.25-.43.36-1.06.2-1.54s-.46-.95-.92-1.2l-.48-.2c-.35-.1-.71-.1-1.06,0-.05,0-.1.02-.15.02l.53-.07c-.51.07-1.02.06-1.53,0l.53.07c-.51-.08-1-.21-1.48-.41l.48.2c-.45-.2-.87-.44-1.26-.74l.4.31c-.18-.14-.35-.3-.52-.46-.74-.74-2.1-.8-2.83,0s-.79,2.04,0,2.83h0Z"/>
  </g>
  <g id="leg_behind" data-name="leg behind">
    <path class="cls-4" d="M236.02,234.45s18.53-1.55,31.51-9.22c1.46-.41,2.89-.95,4.3-1.48.53-.2,1.07-.4,1.6-.59.23-.08.35-.12.41-.15-.03.02-.02.03.2-.01.42-.08.85-.17,1.29-.22-.11.07,1.04.19.26-.03,0,0,.01,0,.02,0,3.36.85,6.96-.39,8.25-3.86,1.13-3.05-.43-7.45-3.84-8.36-2.06-.55-3.98-.71-5.9-.56.36-7.55-.56-17.03-1.94-26.27,1.47-.23,2.89-1.02,4.02-2.58l10.51-14.61c.37-.52.65-1.05.85-1.57,6.41-3.84,13.28-8.17,16.75-14.26,2.2-3.86,1.1-7.97-3.02-9.89-6.58-3.07-13.72-2.23-20.38.14-5.41,1.92-11.05,4.35-15.82,7.73,0-.04-.01-.06-.01-.06,0,0-38.05,26.06-23.61,53.73,0,0-23.93,10.12-21.43,16.41,2.5,6.3,7.97,2.71,7.97,2.71,0,0-5.12,4.46-3.59,8.31,1.53,3.85,6.18,5.85,11.6,4.71Z"/>
    <path class="cls-7" d="M235.19,211.15c-.78-1.57-1.53-3.16-2.24-4.76-6.64,3.52-14.61,8.65-13.12,12.42,2.5,6.3,7.97,2.71,7.97,2.71,0,0-5.12,4.46-3.59,8.31,1.53,3.85,6.18,5.85,11.6,4.71,0,0,4.06-.34,9.72-1.49-5.25-6.51-8.14-13.78-10.34-21.9Z"/>
  </g>
  <g id="leg_behind-2" data-name="leg behind">
    <path class="cls-4" d="M183.44,208.91c-.81-.71-1.71-1.31-2.61-1.9-.63-.41-1.27-.82-1.97-.99,2.3-1.25,4.87-2.72,5.77-5.05,1.28-3.28-.9-6.17-2.83-8.59-8.88-11.07-19.4-20.88-30.89-29.26.02-.05.03-.1.05-.15,1.05-3.41-3.38-7.66-6.33-4.46-.04.05-.08.1-.12.14-2-1.33-4.03-2.62-6.08-3.86-.76-.46-1.53-.63-2.25-.61-1-1.16-2.57-1.67-4.31-.59-6.62,4.09-10.89,10.1-14.98,16.6-4.56,7.25-8.66,14.81-12.27,22.57-3.66,7.85-7.49,16.22-9.39,24.7-1.28,5.69-.13,11.06,4.24,14.1.44,1.28,1.48,2.34,3.21,2.56,21.49,2.75,43.17,3.38,64.78,1.87,3.17-.22,6.39-.45,9.28-1.22,1.95-.05,3.84-.6,5.48-1.97,1.81-1.5,3-4.33,1.04-6.22-.9-.87-2.01-1.56-2.97-2.36-.53-.44-1.04-.9-1.55-1.37.39.06.77.16,1.15.24.86.17,1.74.28,2.62.31,1.79.06,3.53-.41,4.41-2.1.14-.26.24-.54.32-.82.01-.02.02-.04.03-.06.96-1.95.63-4.24-.09-6.2-.76-2.06-2.1-3.86-3.75-5.3Z"/>
    <path class="cls-4" d="M178.58,205.86c-3.03,2.12-6.31,3.9-9.78,5.3-3.61,1.46-7.39,2.44-11.22,3.19-2.18.43-4.37.8-6.56,1.16-.46.08-.34.74.12.66,3.98-.66,7.96-1.33,11.85-2.37,3.71-1,7.29-2.37,10.67-4.14,1.87-.98,3.67-2.08,5.39-3.28.38-.26-.08-.77-.46-.51Z"/>
    <path class="cls-7" d="M187.54,214.15c-.76-2.06-2.1-3.86-3.75-5.3-.26-.22-.53-.42-.8-.63-.04.1-.07.2-.12.29-2.62,5.73-6.24,10.94-8.86,16.66-1.4,3.06-2.42,6.23-3.59,9.37-.15.41-.32.82-.48,1.22,2.46-.2,4.9-.47,7.15-1.06,1.95-.05,3.84-.6,5.48-1.97,1.81-1.5,3-4.33,1.04-6.22-.9-.87-2.01-1.56-2.97-2.36-.53-.44-1.04-.9-1.55-1.37.39.06.77.16,1.15.24.86.17,1.74.28,2.62.31,1.79.06,3.53-.41,4.41-2.1.14-.26.24-.54.32-.82.01-.02.02-.04.03-.06.96-1.95.63-4.24-.09-6.2Z"/>
  </g>
  <g id="body">
    <path class="cls-10" d="M84.48,88.95s-9.31,86.27,29.17,111.41c0,0,17.3,11.34,49.48,15.73,32.18,4.39,37.38,9.37,37.38,9.37,0,0,29.38-7.26,58.02-25.2l65.96,11.81s-4.04-45.42,11.78-90.75c0,0-1.17-51.49-58.55-69.11,0,0-36.01-16.52-85.36,9.21,0,0-22.8,8.5-36.78-8.85l-71.11,36.37Z"/>
    <path class="cls-7" d="M192.65,61.9c.13,3.61-.07,7.18-.41,10.77-.23,2.17-.47,4.34-.72,6.52-.25,2.17-.27,2.38-.06.63-.11,1.18-.24,2.36-.32,3.54-.16,2.35-.08,4.66-.13,7,0,.34.14,1.24.19,1.61.19.75.4,1.5.65,2.24-.57-1.08-.61-1.15-.14-.19.49,1.09,1.08,2.14,1.69,3.17.34.57.7,1.12,1.06,1.66,0-.08,1.25,1.45,1.72,1.91.55.52,1.13,1.02,1.72,1.5.64.33,1.28.62,1.53.76.27.14.93.55,1.6.92.2.07.53.19.99.36.41.14.82.27,1.22.41,2.34.76,4.73,1.37,7.13,1.91,9.35,2.13,18.24,3.06,26.22,8.94,4.43,3.27,8.02,7.6,10.64,12.46.53.99,1.01,2.01,1.49,3.02.52,1.16.93,2.08,1.24,2.77.09.17.17.35.26.52,1.25,2.2,2.5,4.35,3.83,6.51.08.12.13.21.18.31.08.08.16.14.26.24.77.73,1.57,1.49,2.29,2.26.28.3.79.7,1.16.98.48.31.96.61,1.45.89.96.56,1.97,1.01,2.95,1.54.04.02.07.04.11.06.04,0,.07.01.11.02,2.46.57,4.84,1.42,7.32,1.92.51.1,1.36.38,2.15.55.25-.05.6-.09,1.08-.09,1.93-.01,3.83.06,5.76-.09.2-.02.41-.05.63-.09-.77-.04-.49-.52,1.57-.29,1.71-.49,3.41-.92,5.08-1.54.51-.43,1.66-.78,2.2-1.08,1.55-.86,3.06-1.81,4.52-2.82.64-.45,1.27-.92,1.9-1.38.04-.04.07-.07.11-.11,1.34-1.27,2.72-2.48,4.02-3.8,2.81-2.85,5.33-5.93,7.84-9.05.23-.28.46-.51.67-.69.42-.63.81-1.35,1.13-1.83,1.13-1.63,2.22-3.29,3.3-4.96,5.95-9.25,11.23-19,16.59-28.59-7.97-17.66-20.69-31.3-50.17-40.99,0,0-36.01-16.52-85.36,9.21,0,0-.1.04-.28.1,0,.13.03.25.03.38Z"/>
    <path class="cls-7" d="M119.85,112.75c-3.18-12.88-5.39-26.45-4.61-39.53l-30.75,15.73s-5.85,54.21,10.9,89.21c2.31-3.43,5.76-6.16,9.7-7.52.06-.02.1-.03.15-.05.04-.03.08-.05.12-.08.29-.17.56-.36.84-.53.66-.86,2.15-1.88,2.76-2.55.49-.54.96-1.1,1.42-1.66.13-.16.23-.29.32-.41,1.14-1.88,2.89-5.11,3.18-5.7.69-1.36,1.3-2.75,1.92-4.14.22-.6.44-1.19.64-1.79,2-5.85,3.25-11.81,4.24-17.89,0-.01,0-.02,0-.04.01-.25.03-.56.06-.94.1-1.44.16-2.88.18-4.32,0-1-.01-1.99-.06-2.99-2.48-4.36-3.08-9.53-1.01-14.8Z"/>
    <path class="cls-7" d="M204,140.23c1.11.13,6.16.6,7.09-.23l-.26-3.06-.99,1.03c-.96.42-1.89,1.67-2.78,2.28-.49.33-2.42,1.04-2.66,1.43l1.59.58-.27-1.24c.81-1.08-.55-.71,1.21-1.28.82-.27,2.09-.11,2.78.41,2.04,1.52.2,2.21-1.46,2.79-.41.14-.82.25-1.24.33-.84,0-.86.28-.05.81.79,1.03.8.86.04-.52l-.24-1.22c-.34-5.23,7.17-5.49,8.35-1.07.9,3.36-7.08,5.9-9.61,5.7-4.45-.36-3.07-6.5-1.6-9.34,1.26-2.43,7.05-5.53,9.54-3.46.86.72,1.43,5.75,1.01,6.67-.82,1.82-3.75,1.99-5.45,2.27-6.97,1.15-4.01,11.75,2.92,10.61,5.08-.84,9.99-3.11,12.33-7.95s1.28-11.56-.93-16.28c-4.73-10.14-20.97-7.74-27.07-.15s-7.29,22.72,3.15,27.4c9.1,4.07,24.2-2.07,26.62-12.19,2.67-11.16-11.38-20.4-21.12-16.41-4.82,1.98-8.12,6.25-8.92,11.4-.74,4.73.64,11.43,5.15,14.01,4.13,2.36,10.46.48,14.27-1.74,4.66-2.71,7.32-8,5.91-13.36-2.78-10.59-20.01-13.92-25.38-3.63-2.5,4.78-1.35,12.96,3.09,16.21,4.94,3.61,11.04.74,15.33-2.5s9.46-8.63,5.95-14.52c-3.8-6.36-10.38-4.06-16.3-4.75-7.02-.82-6.96,10.19,0,11h0Z"/>
  </g>
  <g id="ear_left" data-name="ear left">
    <path class="cls-3" d="M53.93,27.89c-9.75,2.3-27.75,4.44-37.63-7.46-1.5-1.8-4.06-2.3-6.03-1.03-6.64,4.27-18.15,14.88-2.22,30.78.36.36.79.66,1.25.88,3.17,1.5,16.27,6.37,35-4.47,7.75-4.49,12.05-8.41,14.36-11.6,2.47-3.4-.64-8.07-4.73-7.1Z"/>
    <path class="cls-11" d="M8.23,20.83c9.74,13.75,27.78,23.16,44.08,20.46-2.14,1.67-4.77,3.44-8.01,5.32-18.73,10.84-31.83,5.97-35,4.47-.46-.22-.89-.52-1.25-.88-14.38-14.36-6.4-24.4.18-29.36Z"/>
  </g>
  <g id="ear_right" data-name="ear right">
    <path class="cls-7" d="M146.02,27.92c9.84,1.87,27.92,3.23,37.27-9.09,1.42-1.87,3.96-2.47,5.98-1.29,6.82,3.97,18.78,14.08,3.55,30.66-.35.38-.76.7-1.21.94-3.1,1.63-15.98,7.07-35.16-2.94-7.94-4.15-12.4-7.88-14.85-10.96-2.62-3.29.29-8.09,4.42-7.3Z"/>
    <path class="cls-11" d="M191.38,18.88c-9.14,14.16-26.75,24.35-43.15,22.35,2.21,1.57,4.91,3.23,8.23,4.96,19.19,10.02,32.06,4.58,35.16,2.94.45-.24.86-.56,1.21-.94,13.75-14.97,5.33-24.66-1.45-29.32Z"/>
  </g>
  <g id="head">
    <path class="cls-6" d="M44.3,46.6s-2.85-35.72,7.18-43.21c10.03-7.5,7.24,15.97,14.52,16.18l-21.7,27.03Z"/>
    <path class="cls-6" d="M155.23,44.19s1.3-35.81-9.05-42.86-6.54,16.27-13.8,16.8l22.85,26.06Z"/>
    <ellipse class="cls-3" cx="101.18" cy="67.92" rx="65.29" ry="62.83" transform="translate(-1.45 2.22) rotate(-1.25)"/>
    <rect class="cls-11" x="69.98" y="100.71" width="64.55" height="33.97" rx="16.35" ry="16.35" transform="translate(-2.53 2.25) rotate(-1.25)"/>
    <path class="cls-2" d="M87.19,115.64s9.68,1.28,11.03,10.69c.25,1.75-9.01-9.85-11.03-10.69Z"/>
    <path class="cls-2" d="M117.2,114.99s-9.62,1.7-10.56,11.16c-.18,1.76,8.57-10.23,10.56-11.16Z"/>
    <path class="cls-7" d="M103.69,7.34c-9.51,6.98-16.08,25.65-5.63,34.37,4.38,3.65,8.62,6.79,9.54,12.8.82,5.41-2.01,12.68,1.24,17.47,7.82,11.55,21.09,2.82,31.38,1.02,8.07-1.41,18.45-.42,25.54,4.72.61-3.68.91-7.47.83-11.33-.72-32.9-27.59-59.3-61.11-61.27-.34.82-.92,1.58-1.78,2.21Z"/>
    <path class="cls-7" d="M55.93,99.61c-4.41-4-5.46-8.37-2.6-13.8,1.71-3.24,2.03-5.14.78-8.67-1.04-2.93-2.6-5.7-4.97-7.76-3.68-3.2-8.41-4.32-13.16-4.55-.08,1.49-.12,2.99-.08,4.51.37,16.9,7.65,32.08,19.18,43.12,3.88-3.56,5.78-8.39.86-12.86Z"/>
    <path class="cls-7" d="M55.27,51.87c-.05.16-.01.13.12-.1.81-.31.53-.64-.85-.98.04-.02-.18,1.05-.34,1.22-.26.26-.56.41-.92.47,1.3,1.51,1.84,1.61,1.61.3.28-.6.24-1.31.62-1.92.29-.46,2.06-1.42,2.12-1.66-1.27-1.28-1.74-1.44-1.41-.46l.02.71c-.05,1.82-.98,2.62-2.06,3.84-.17.12-.36.22-.56.3.63.06.8-.26.51-.96.26-.95-.07-1.83.48-2.75.92-1.52,2.63-1.44,4.06-2.08.26-.07.52-.1.79-.08-.35-.89-.55-.94-.6-.17-.46.44-.76,1.65-1.13,2.24-.46.72-.98,1.43-1.64,1.99-.54.45-1.3.57-1.15,1.03-1.38-4.27-8.15-2.44-6.75,1.86,1.94,6,8.82,5.87,12.85,2.06,3.24-3.06,6.83-9.15,3.83-13.42s-9.77-2.57-13.36-.07c-4.23,2.95-6.37,10.9-2.81,15.15s9.95,1.41,12.57-2.51c2.34-3.48,3.47-11.24-1.29-13.38s-10.6,3.38-11.74,7.79c-.57,2.19-.56,5.13.68,7.11,1.46,2.31,4.58,2.37,6.91,1.6,5.29-1.74,8.31-10.14,3.07-13.75-2.3-1.58-5.5-.68-7.58.85-2.5,1.84-3.37,4.61-2.8,7.6.85,4.42,7.59,2.55,6.75-1.86h0Z"/>
    <path class="cls-1" d="M64.6,92.13c.68-1.37,1.47-2.68,2.37-3.92.73-1,1.76-2.37,2.76-3.02.15-.1.29-.19.45-.27.33-.17-.09-.02.27-.1-.01,0,.51-.08.25-.06,0,0,.51.02.25-.02.1.01.22.05.31.08-.23-.09.27.19,0,0,.03.02.32.35.14.11.05.06.25.52.17.28.05.14.08.28.11.42-.06-.31,0,.14,0,.18,0,0-.05.46,0,.21-.03.17-.08.34-.13.51-.14.47-.66,1.23-.95,1.62-.83,1.09-1.95,2.17-2.98,2.92-.52.38-1.08.79-1.68,1.04-.17.07-.46.14-.64.14h-.15c.24-.02.43.1.57.36.06.16.06.16.01-.01.02.17.02.17.01,0,.04-.74.04-1.2.27-1.94.19-.59.54-1.21.95-1.75.58-.78,1.8-1.87,2.62-2.44.03-.02.42-.29.43-.27.02.03-.32-.02-.34-.03-.14-.07-.15-.13-.23-.25.04.18.05.18,0,0,.04-.13.04-.1-.01.09-.08.46-.66,1.18-1.01,1.57-1.04,1.16-2.17,1.89-3.58,2.64l2.2,1.69c.35-1.6,1.02-3.07,2.02-4.28.64-.76.56-1.79-.3-2.36-1.15-.76-2.35-.05-3.23.75-.7.63-1.34,1.31-1.92,2.05-1.23,1.54-2.31,3.82-.92,5.64l2.36-1.82c-.11-.12-.14-.14-.08-.06.05.08.04.05-.05-.09.05.31.02-.3.03.05,0-.28.02-.53-.02-.81-.13-.98-.8-1.63-1.79-1.69-.81-.05-1.5.73-1.5,1.5,0,1,.11,2,.76,2.8s1.77,1.28,2.82.95l-1.16-2.74c-.24.18-.01.01.08.03.11,0,.09,0-.07,0h.13s.07.04.1.06c-.13-.08-.16-.09-.07-.04.03.01.06.04.07.07.05.08.04.05-.05-.09.05.25-.02-.18,0,0,.02.16,0-.25,0-.24,0,.18-.02.04.01-.07,0,0,.11-.39.08-.31.19-.5.52-.97.8-1.41.15-.23.3-.46.46-.68.08-.11.16-.22.24-.33l.1-.13c-.05.06-.04.06.02-.02,1.36-1.73,2.82-2.99,4.8-3.9.74-.34.92-1.4.54-2.05-.44-.75-1.31-.88-2.05-.54-2.7,1.25-4.88,3.42-6.51,5.87-.89,1.33-1.8,2.91-1.38,4.57s2.61,3,4.21,1.81c.6-.44.94-1.14.61-1.87-.29-.66-1.04-1.09-1.77-.87-.26.07-.17.08.26.03.14.08.13.07-.03-.02.06.03.11.07.13.14-.07-.13-.09-.16-.06-.1.04.14-.09-.51-.06-.24-.03-.22-.02-.46-.02-.68l-1.5,1.5h.09c-.25-.06-.5-.13-.76-.2-.1-.05-.6-.63-.51-.79-.02.04,0,.23,0,.29,0,.3,0,.6.08.89.13.58.46,1.13.9,1.53.54.51,1.38.59,1.97.12.53-.42.85-1.33.39-1.94-.09-.12-.18-.24-.24-.38.07.17,0,0,0-.06-.03.27,0-.18,0-.2,0-.26-.02.02.02-.13.12-.43.4-.9.66-1.24.38-.5.8-.96,1.24-1.4.24-.24.49-.48.75-.71.03-.03.33-.28.14-.13l.13-.08c-.22.13-.47.13-.75-.01l-.3-2.36c-1.36,1.63-2.34,3.52-2.79,5.6-.28,1.29,1.02,2.32,2.2,1.69,1.62-.86,3.21-1.94,4.4-3.36.64-.77,1.31-1.66,1.57-2.64.3-1.17-.03-2.43-1.04-3.14s-2.28-.45-3.23.22c-.81.57-1.59,1.21-2.3,1.9-1.4,1.37-2.55,3.1-2.88,5.06-.17,1.02-.33,2.29.21,3.24.67,1.17,2.02,1.33,3.22,1.06,1-.23,1.91-.81,2.74-1.4s1.6-1.23,2.31-1.93c1.37-1.36,2.87-3.1,3.21-5.05s-.58-4.36-2.76-4.85c-2.54-.57-4.5,1.23-6.02,3.01s-2.78,3.67-3.8,5.73c-.36.73-.19,1.62.54,2.05.66.39,1.69.19,2.05-.54h0Z"/>
    <path class="cls-1" d="M137.87,89.83c-.98-1.77-2.15-3.44-3.48-4.96-1.23-1.41-2.73-3.08-4.66-3.46-1.09-.21-2.25-.08-3.16.58s-1.44,1.7-1.58,2.83c-.25,2.09,1.05,3.9,2.39,5.36s2.9,2.74,4.64,3.63c1.02.52,2.21.91,3.36.63,1.27-.3,1.83-1.5,1.8-2.71-.04-2.12-.92-4.07-2.31-5.65-.66-.75-1.42-1.38-2.21-1.97s-1.72-1.34-2.79-1.4c-1.36-.08-2.45.95-2.64,2.26-.17,1.18.4,2.23,1.09,3.15,1.35,1.76,3.19,3.03,5.18,3.97,1.15.55,2.55-.35,2.2-1.69-.54-2.06-1.58-3.92-3.01-5.49l-.3,2.36s-.53.02-.57.06c-.05.05.13.11.04.04.24.2.48.4.71.61.49.44.95.91,1.38,1.4.28.32.63.77.75,1.1.05.13.09.27.11.4-.03-.19,0,.11-.01.17,0,.11,0,.11,0,0l-.04.16c.1-.2-.13.21-.14.21-.42.61-.17,1.52.39,1.94.58.44,1.44.43,1.97-.12.42-.44.75-.98.86-1.58.05-.29.08-.57.05-.86,0-.08,0-.15-.02-.23-.06-.55.54.16-.53.72l-.76.2h.09c-.5-.51-1-1.01-1.5-1.51.02.44-.03.75-.06,1.03-.03.11-.03.11,0,0,.09-.11.08-.1-.04.02.15-.08.24-.18.43-.13-1.69-.44-2.54,1.8-1.16,2.74,1.63,1.1,3.78-.11,4.17-1.9s-.6-3.26-1.58-4.6c-1.85-2.49-4.15-4.49-7.04-5.68-.75-.31-1.65.33-1.85,1.05-.24.86.3,1.54,1.05,1.85-.16-.07.13.06.18.08.13.06.25.12.37.18.22.11.44.23.66.36.45.26.9.55,1.31.88.62.48,1.5,1.34,2.12,2.06s1.2,1.47,1.68,2.39c.09.17.17.39.19.51-.01-.1,0,.27,0,.29.02-.18,0,.05-.04.07.05-.05.12-.1.02-.06-.16.06.12-.06.14-.07-.15.1-.13-.03,0,0,.09.03.37.16.14,0l-1.16,2.74c1.08.28,2.13-.14,2.8-1.01.63-.82.71-1.82.67-2.82-.03-.74-.67-1.59-1.5-1.5-1.04.11-1.69.74-1.79,1.8-.02.19-.03.38,0,.57,0,.17,0,.21.03.12.03-.09.02-.05-.03.12.03-.08.19-.21-.04.02l2.36,1.82c1.33-1.93.19-4.15-1.15-5.68-.62-.71-1.29-1.36-2.02-1.95-.87-.71-2.1-1.4-3.18-.62-.8.58-1,1.59-.3,2.36,1.07,1.18,1.82,2.6,2.23,4.17l2.2-1.69c-.62-.3-1.23-.62-1.82-.98-.65-.4-1.07-.72-1.6-1.22-.45-.43-.79-.8-1.09-1.25-.09-.14-.18-.28-.26-.43-.11-.21-.08-.02-.08-.25,0,.26.09-.31,0,.07-.08.14-.07.14,0-.01-.04.07-.09.13-.16.18-.32.23-.49-.02-.25.14-.15-.1.13.1.17.12.27.17.52.35.78.54.52.38,1.04.8,1.55,1.32.93.92,1.52,1.91,1.82,3.25.05.23.04.54.08.87v.15c.03-.14.02-.12-.02.06-.22.24.37-.62.52-.5-.03-.02-.35,0-.36-.01.2.03-.35-.11-.3-.09-.3-.09-.64-.28-.96-.47-1.23-.72-2.25-1.53-3.24-2.56-.48-.5-.9-.97-1.25-1.5-.14-.21-.37-.62-.42-.74-.04-.11-.08-.22-.11-.33-.03-.11-.06-.23-.08-.34.02.15.02.13,0-.05,0-.15,0-.31.02-.46-.05.3.07-.18.07-.19.09-.31-.11.06.1-.18.21-.26-.16.02.14-.15-.25.14.21-.12.21-.12-.23.09.29-.05.02,0,.39-.07.44-.01.75.06.22.05.58.26.87.47.22.16.51.43.77.68.57.55,1.11,1.14,1.62,1.74,1.05,1.24,1.97,2.62,2.78,4.07.39.71,1.37.94,2.05.54s.93-1.34.54-2.05h0Z"/>
  </g>
  <g id="coin">
    <path class="cls-12" d="M233.25,69.37c6.07.21,12.15,1.08,18.16,2,2.66.41,5.32.82,7.97,1.22.44.07.91.13,1.22.16.78.07,1.56.13,2.34.18,3.69-5.25,5.8-11.67,5.65-18.58-.37-17.21-14.63-30.86-31.84-30.49-17.21.37-30.86,14.63-30.49,31.84.12,5.46,1.64,10.56,4.21,14.97,7.6-.67,15.21-1.59,22.79-1.32Z"/>
    <path class="cls-8" d="M245.63,37.74c-3.52-1.18-7.81-1.45-11.32-.05-1.69.67-2.55,2.05-3,3.75s-.78,3.52.21,5.05c1.87,2.89,5.96,3.19,8.51,5.22,2.34,1.87,3.27,6.01.25,7.76-3.56,2.06-7.43-1.07-9.84-3.45-1.37-1.36-3.5.76-2.12,2.12,2.51,2.48,5.47,4.77,9.14,4.93,3.44.15,6.65-1.87,7.52-5.28s-.79-6.78-3.55-8.76c-1.42-1.03-3.09-1.62-4.66-2.37-.75-.36-1.54-.73-2.19-1.26-.8-.65-.77-1.37-.57-2.32.16-.78.3-1.88.97-2.41.73-.57,2.15-.69,3.03-.8,2.32-.28,4.62.01,6.83.75,1.83.62,2.62-2.28.8-2.89h0Z"/>
    <path class="cls-8" d="M239.27,32.61l-5.65,32.48c-.33,1.89,2.56,2.7,2.89.8l5.65-32.48c.33-1.89-2.56-2.7-2.89-.8h0Z"/>
    <path class="cls-5" d="M207.99,73.41c18.84-1.89,38.05-2.7,56.71,1.12,1.88.39,2.69-2.51.8-2.89-18.95-3.87-38.38-3.15-57.51-1.23-1.9.19-1.92,3.19,0,3h0Z"/>
  </g>
  <g id="leg_inffront" data-name="leg inffront">
    <path class="cls-10" d="M208.34,222.99c-.81-.71-1.71-1.31-2.61-1.9-.63-.41-1.27-.82-1.97-.99,2.3-1.25,4.87-2.72,5.77-5.05,1.28-3.28-.9-6.17-2.83-8.59-8.88-11.07-19.4-20.88-30.89-29.26.02-.05.03-.1.05-.15,1.05-3.41-3.38-7.66-6.33-4.46-.04.05-.08.1-.12.14-2-1.33-4.03-2.62-6.08-3.86-.76-.46-1.53-.63-2.25-.61-1-1.16-2.57-1.67-4.31-.59-6.62,4.09-10.89,10.1-14.98,16.6-4.56,7.25-8.66,14.81-12.27,22.57-3.66,7.85-7.49,16.22-9.39,24.7-1.28,5.69-.13,11.06,4.24,14.1.44,1.28,1.48,2.34,3.21,2.56,21.49,2.75,43.17,3.38,64.78,1.87,3.17-.22,6.39-.45,9.28-1.22,1.95-.05,3.84-.6,5.48-1.97,1.81-1.5,3-4.33,1.04-6.22-.9-.87-2.01-1.56-2.97-2.36-.53-.44-1.04-.9-1.55-1.37.39.06.77.16,1.15.24.86.17,1.74.28,2.62.31,1.79.06,3.53-.41,4.41-2.1.14-.26.24-.54.32-.82.01-.02.02-.04.03-.06.96-1.95.63-4.24-.09-6.2-.76-2.06-2.1-3.86-3.75-5.3Z"/>
    <path class="cls-4" d="M207.38,222.37c-3.29,1.68-6.79,2.99-10.42,3.89-3.78.95-7.66,1.39-11.56,1.61-2.22.13-4.44.18-6.66.24-.46.01-.44.68.02.67,4.03-.1,8.07-.21,12.07-.71,3.81-.48,7.55-1.34,11.14-2.63,1.99-.71,3.92-1.56,5.79-2.51.41-.21.02-.78-.38-.57Z"/>
    <path class="cls-7" d="M212.44,228.23c-.76-2.06-2.1-3.86-3.75-5.3-.26-.22-.53-.42-.8-.63-.04.1-.07.2-.12.29-2.62,5.73-6.24,10.94-8.86,16.66-1.4,3.06-2.42,6.23-3.59,9.37-.15.41-.32.82-.48,1.22,2.46-.2,4.9-.47,7.15-1.06,1.95-.05,3.84-.6,5.48-1.97,1.81-1.5,3-4.33,1.04-6.22-.9-.87-2.01-1.56-2.97-2.36-.53-.44-1.04-.9-1.55-1.37.39.06.77.16,1.15.24.86.17,1.74.28,2.62.31,1.79.06,3.53-.41,4.41-2.1.14-.26.24-.54.32-.82.01-.02.02-.04.03-.06.96-1.95.63-4.24-.09-6.2Z"/>
  </g>
  <g id="leg_infront" data-name="leg infront">
    <path class="cls-10" d="M315.68,202.08c-2.17.85-4.35,1.64-6.57,2.36-3.88-1.8-7.94-2.96-10.61-3.41-3.2-.53-6.65-.28-9.54,1.07,0-.26,0-.51,0-.77,1.48,0,3.01-.58,4.35-1.96l12.56-12.89c.45-.46.8-.94,1.07-1.43,3.87-1.6,7.91-3.33,11.48-5.51-2.68-2.3-3.27-6.39-1.9-9.64,1.02-2.41,2.16-4.77,3.18-7.18.22-.52.5-1,.82-1.42-5.2-2.14-10.98-2.08-16.59-.98-5.63,1.1-11.57,2.67-16.79,5.3,0-.04,0-.06,0-.06,0,0-41.49,20.14-31.3,49.65,0,0-25.17,6.46-23.62,13.06,1.54,6.6,7.48,3.86,7.48,3.86,0,0-5.72,3.66-4.78,7.69.94,4.03,5.24,6.7,10.77,6.37,0,0,9.92.64,20.71-1.23.51.05,1.05.05,1.63-.04,6.87-.95,13.75-2.09,20.66-2.74,6.45-.6,12.74-.27,19.06-1.99,5.2-1.42,10.71-3.93,13.84-8.51,1.54-2.25,2.21-4.61,2.47-7.02,2.17-5.57,1.5-12.28-.11-18.59-.85-3.32-5.24-5.18-8.29-3.98Z"/>
    <path class="cls-7" d="M248.32,223.01c-.54-1.67-1.04-3.35-1.51-5.04-7.09,2.5-15.73,6.39-14.81,10.34,1.54,6.6,7.48,3.86,7.48,3.86,0,0-5.72,3.66-4.78,7.69.94,4.03,5.24,6.7,10.77,6.37,0,0,4.07.26,9.83-.04-4.23-7.21-6.01-14.84-6.98-23.19Z"/>
  </g>
</svg>