<svg width="16" height="32" viewBox="0 0 16 32" fill="none" xmlns="http://www.w3.org/2000/svg">
<path d="M2.27052 0.202305C1.74094 0.201269 1.22772 0.385708 0.819942 0.723606C0.590437 0.913879 0.400724 1.14756 0.261668 1.41127C0.122612 1.67497 0.0369455 1.96351 0.00957512 2.26038C-0.0177952 2.55724 0.0136688 2.85659 0.102164 3.14127C0.19066 3.42595 0.334446 3.69038 0.525293 3.91941L10.6793 16.068L0.887937 28.2393C0.699666 28.4711 0.559069 28.7379 0.474229 29.0242C0.389388 29.3106 0.361977 29.6109 0.393571 29.9079C0.425165 30.2048 0.515139 30.4927 0.658324 30.7547C0.801509 31.0168 0.995083 31.2481 1.22792 31.4351C1.46242 31.6414 1.73705 31.7971 2.03456 31.8922C2.33207 31.9874 2.64604 32.0201 2.95677 31.9881C3.26749 31.9562 3.56827 31.8604 3.84021 31.7067C4.11215 31.5531 4.3494 31.3448 4.53705 31.0951L15.4844 17.4959C15.8178 17.0904 16 16.5817 16 16.0567C16 15.5317 15.8178 15.023 15.4844 14.6174L4.15174 1.01826C3.92437 0.743967 3.63554 0.527142 3.30868 0.385374C2.98183 0.243605 2.62615 0.180886 2.27052 0.202305Z" fill="#090F19"/>
</svg>
