<svg width="50" height="37" viewBox="0 0 50 37" fill="none" xmlns="http://www.w3.org/2000/svg">
<path d="M49.689 5.1145C49.0294 2.25626 44.6322 0.0576691 38.9157 0.0576691C32.7596 0.0576691 28.1424 2.47614 27.9226 5.77409V30.6186C27.9226 30.8385 27.9226 31.0583 28.1425 31.2782C29.022 34.1364 33.4192 36.1152 38.9158 36.1152C44.1925 36.1152 48.3699 34.3563 49.4692 31.7179C49.6891 31.4981 49.9089 31.2782 49.9089 30.8385V5.77409C50.1288 5.55421 49.9089 5.33438 49.689 5.1145ZM38.9157 2.25626C43.9726 2.25626 47.7103 4.23503 47.7103 5.77409C47.7103 7.53297 43.9726 9.29191 38.9157 9.29191C33.8589 9.29191 30.1212 7.31315 30.1212 5.77409C30.3411 4.23503 34.0787 2.25626 38.9157 2.25626ZM30.3411 9.29186C32.3199 10.611 35.3979 11.4905 39.1356 11.4905C42.8733 11.4905 45.9514 10.611 47.9302 9.07203V12.1501H47.7103C47.7103 13.909 43.9726 15.6679 38.9157 15.6679C33.8589 15.6679 30.1212 13.6892 30.1212 12.1501V9.29186H30.3411ZM30.3411 15.6679C32.3199 16.9871 35.3979 17.8666 39.1356 17.8666C42.8733 17.8666 45.9514 16.9871 47.9302 15.4481V17.6467H47.7103C47.7103 19.4056 43.9726 21.1646 38.9157 21.1646C33.8589 21.1646 30.1212 19.1858 30.1212 17.6467V15.668L30.3411 15.6679ZM30.3411 21.3843C32.3199 22.7035 35.3979 23.583 39.1356 23.583C42.8733 23.583 45.9514 22.7035 47.9302 21.1645V24.0227H47.7103C47.7103 25.7816 43.9726 27.5406 38.9157 27.5406C33.8589 27.5406 30.1212 25.5618 30.1212 24.0227V21.3844L30.3411 21.3843ZM38.9157 33.9165C33.8589 33.9165 30.1212 31.9378 30.1212 30.3987V27.5405C32.1 28.8596 35.178 29.7391 38.9157 29.7391C42.6534 29.7391 45.7315 28.8596 47.7103 27.3206V30.1789H47.4904C47.7103 31.9378 43.9726 33.9165 38.9157 33.9165ZM5.05688 7.75285H2.19865C1.09935 7.75285 0 8.63232 0 9.9515V34.3563C0 35.2358 0.659589 35.8953 1.53906 35.8953H5.49659C6.37606 35.8953 7.03565 35.2358 7.03565 34.3563V9.9515C7.25553 8.8522 6.15618 7.75285 5.05688 7.75285ZM5.05688 33.6966H2.19865V9.95145H5.05688V33.6966ZM14.511 0.0576172H11.4329C10.3336 0.0576172 9.23424 0.937086 9.23424 2.25626V34.5761C9.23424 35.4556 9.89383 36.1152 10.7733 36.1152H14.7308C15.6103 36.1152 16.2699 35.4556 16.2699 34.5761V2.25626C16.4898 0.937086 15.6103 0.0576172 14.511 0.0576172ZM14.2911 33.9165H11.6528V2.25626H14.511V33.9165H14.2911ZM23.7452 16.1076H20.887C19.7877 16.1076 18.6883 16.9871 18.6883 18.3063V34.1364C18.6883 35.0159 19.3479 35.6755 20.2274 35.6755H24.1849C25.0644 35.6755 25.724 35.0159 25.724 34.1364V18.0864C25.9438 17.2069 25.0644 16.1076 23.7452 16.1076ZM23.7452 33.6966H20.887V18.5261H23.7452V33.6966Z" fill="#B2D4E6"/>
</svg>
