<svg width="54" height="54" viewBox="0 0 54 54" fill="none" xmlns="http://www.w3.org/2000/svg">
<path fill-rule="evenodd" clip-rule="evenodd" d="M29.2758 47.5162C41.826 47.5162 52 37.3423 52 24.7921C52 12.2418 41.826 2.06787 29.2758 2.06787C16.7256 2.06787 6.55164 12.2418 6.55164 24.7921C6.55164 37.3423 16.7256 47.5162 29.2758 47.5162Z" stroke="#B2D4E6" stroke-width="3" stroke-linecap="round" stroke-linejoin="round"/>
<path fill-rule="evenodd" clip-rule="evenodd" d="M29.2758 39.253C37.2623 39.253 43.7366 32.7787 43.7366 24.7921C43.7366 16.8056 37.2623 10.3313 29.2758 10.3313C21.2893 10.3313 14.8149 16.8056 14.8149 24.7921C14.8149 32.7787 21.2893 39.253 29.2758 39.253Z" stroke="#B2D4E6" stroke-width="3" stroke-linecap="round" stroke-linejoin="round"/>
<path fill-rule="evenodd" clip-rule="evenodd" d="M29.2758 30.9896C32.6986 30.9896 35.4733 28.2149 35.4733 24.7921C35.4733 21.3693 32.6986 18.5946 29.2758 18.5946C25.853 18.5946 23.0783 21.3693 23.0783 24.7921C23.0783 28.2149 25.853 30.9896 29.2758 30.9896Z" stroke="#B2D4E6" stroke-width="3" stroke-linecap="round" stroke-linejoin="round"/>
<path d="M29.0252 25.1105L5.4137 48.722" stroke="#B2D4E6" stroke-width="3" stroke-linecap="round" stroke-linejoin="round"/>
<path d="M27.0339 23.6881H30.4477V27.1018" stroke="#B2D4E6" stroke-width="3" stroke-linecap="round" stroke-linejoin="round"/>
<path d="M2 48.722H5.41372V52.1358" stroke="#B2D4E6" stroke-width="3" stroke-linecap="round" stroke-linejoin="round"/>
</svg>
