<svg width="54" height="48" viewBox="0 0 54 48" fill="none" xmlns="http://www.w3.org/2000/svg">
<path d="M10.685 1.53943V6.43274H2V11.2236C2 19.2425 4.38261 23.713 10.1086 26.4928C12.2373 27.6373 14.202 29.0635 15.9498 30.7328C17.3545 32.2312 19.0678 33.4068 20.9712 34.1786L23.136 34.8447V40.6475H19.8311C15.8345 40.6475 14.4895 41.557 14.4895 44.2598V46.0788H39.4684V44.452C39.4684 41.8004 37.8288 40.6091 34.0371 40.6091H30.8219V34.8447L33.0251 34.1914C34.9313 33.4188 36.6452 32.2383 38.0465 30.7328C39.8699 28.9949 41.9108 27.5008 44.1184 26.2878C45.8324 25.4629 47.3632 24.3019 48.6197 22.8738C49.8762 21.4456 50.8328 19.7795 51.4327 17.9743C51.8405 15.7392 52.0293 13.4697 51.9963 11.198V6.44555H43.2729V1.53943H10.685ZM26.979 9.69922L29.6049 15.1305H35.9329L30.9756 19.7036L32.3975 25.5448L26.979 22.637L21.5604 25.5833L22.9823 19.742L18.0121 15.169H24.353L26.979 9.69922ZM6.56026 11.3261H10.6081V21.4201C10.1854 21.6763 8.86601 20.1391 7.90528 18.3842C7.35984 17.0406 7.01041 15.6256 6.86769 14.1826L6.56026 11.3261ZM43.3498 11.3261H47.7563L47.3848 14.1442C47.2975 16.4901 46.3543 18.7229 44.7332 20.421C44.3518 20.9407 43.8679 21.3766 43.3113 21.7019L43.3498 11.3261Z" stroke="#B2D4E6" stroke-width="3" stroke-linecap="round" stroke-linejoin="round"/>
</svg>
