<?xml version="1.0" encoding="UTF-8"?>
<svg id="Layer_2" data-name="Layer 2" xmlns="http://www.w3.org/2000/svg" xmlns:xlink="http://www.w3.org/1999/xlink" viewBox="0 0 70.16 81.32">
  <defs>
    <style>
      .cls-1 {
        fill: url(#linear-gradient-2);
      }

      .cls-2 {
        fill: url(#linear-gradient);
      }

      .cls-3 {
        fill: #594c40;
      }

      .cls-4 {
        fill: #e5dcd3;
      }

      .cls-5 {
        fill: #a1b2c6;
      }

      .cls-6 {
        fill: #9e8871;
      }

      .cls-7 {
        fill: #efe8df;
      }

      .cls-8 {
        fill: #d1a79f;
      }

      .cls-9 {
        fill: #d8aa8b;
      }

      .cls-10 {
        fill: #5d68a3;
      }
    </style>
    <linearGradient id="linear-gradient" x1="39.78" y1="56.43" x2="34.25" y2="79.35" gradientTransform="translate(74.14 6.28) rotate(-171.45) scale(1 -1)" gradientUnits="userSpaceOnUse">
      <stop offset="0" stop-color="#e5dcd3"/>
      <stop offset="1" stop-color="#efe8df"/>
    </linearGradient>
    <linearGradient id="linear-gradient-2" x1="41.24" y1="56.11" x2="38.81" y2="80.39" gradientTransform="translate(-5.09 3.22) rotate(-4.12)" xlink:href="#linear-gradient"/>
  </defs>
  <g id="cat">
    <g id="Layer_13" data-name="Layer 13">
      <g>
        <path class="cls-4" d="M53.48,63.67c-.39-4.55-2.92-8.32-4.48-12.49-1.93-5.16-2.41-10.57-1.78-16.02.33-2.83-4.1-2.8-4.43,0-.16,1.41-.24,2.82-.25,4.22-.63-.13-1.32.02-1.89.61-.65.67-1.35,1.21-2.1,1.68-1.57.45-3.66.15-4.97.16-2.42,0-4.85.02-7.27.03-.31-.07-2.3-5.02-2.62-4.92-.85.16,1.07,2.36-.58,7.38-.55,1.4-1.04,1.6-1.93,3.58-1.85,3.41-3.08,7.1-3.93,10.98-.64,2.91-2.75,9.04-.53,11.8.8,1.42,2.05,2.47,3.58,3.32,1.07.6,2.11.92,3.16,1.07,5.75,2.12,11.79,2.93,17.42,1.11,7-.63,13.29-4.62,12.6-12.52Z"/>
        <path class="cls-2" d="M27.25,55.07c1.42.33,2.45.95,3.2,1.74.03.03.05.05.07.08,2.42,2.66,1.73,7.18,1.71,9.4-.03,2.74-.38,5.45-.78,8.13-.14.93-.21,1.88-.49,2.73,1.29,1.38,1.34,3.04-1.27,3.59-1.41.3-3.21.03-4.48-.77-1.53-.97-1.29-1.85-1.39-2.88-1.77-4.61-1.55-9.46-2.06-14-.3-2.7-2.11-9.79,5.5-8.02Z"/>
        <path class="cls-1" d="M39.56,55.41c-1.43.34-2.46.96-3.21,1.76-.03.03-.05.05-.07.08-2.44,2.68-1.78,7.22-1.77,9.44.01,2.76.35,5.47.73,8.17.13.94.2,1.88.47,2.75-1.3,1.39-1.36,3.06,1.25,3.6,1.41.29,3.22.02,4.49-.79,1.54-.98,1.31-1.86,1.41-2.9,1.8-4.63,1.61-9.5,2.15-14.06.32-2.71,2.17-9.83-5.45-8.04Z"/>
        <path class="cls-4" d="M68.56,34.03c-5.87-1.15-12.44.8-11.4,8.01.64,4.45,1.55,8.1.5,12.63-.54,2.34-3.29,12.22-7.07,10.95-1.16-.39-2.03.17-2.44,1.01-1.62.59-3.58,5.39-1.63,6.33,7.11,3.41,13.79-5.01,15.88-11.37,1.37-4.17,1.84-8.76,1.05-13.09-.35-1.93-1.15-3.75-1.48-5.68-.69-3.94,1.99-5.03,5.41-4.51,2.76.42,4.01-3.71,1.18-4.27Z"/>
        <path class="cls-9" d="M60.85,56.37c-.02,2.21.63,3.76,1.6,5.2,1.11-3.45,1.6-7.18,1.28-10.81-1.68,1.4-2.86,3.42-2.88,5.61Z"/>
        <path class="cls-6" d="M63.16,33.9c-1.39,1.51-.86,3.18.43,4.68.98-.44,2.28-.51,3.71-.29,2.76.42,4.01-3.71,1.18-4.27-1.79-.35-3.64-.41-5.32-.13Z"/>
        <path class="cls-6" d="M38.95,74.36c-.76.14-2.6.59-3.6,1.35.08.65.17,1.29.36,1.88-1.3,1.39-1.36,3.06,1.25,3.6,1.41.29,3.22.02,4.49-.79,1.54-.98,1.31-1.86,1.41-2.9.33-.86.6-1.72.81-2.59-1.5-.56-3.02-.89-4.72-.57Z"/>
        <path class="cls-9" d="M22.08,57.56c2.57.09,4.43-.1,6.31-.86,1.07-.43,2.17-1.09,3.14-1.79-.51.32,1.24-1.29,1.52-1.57.09-.1.15-.17.2-.23.2-.29.41-.58.6-.88.22-.35,1.46-2.84,1.27-2.25.81-2.14,1.28-4.36,1.74-6.59.03-.16.06-.29.09-.39,0-.13,0-.29.02-.5.03-.65.08-1.29.12-1.93-1.15.04-2.33-.08-3.17-.08-2.42,0-4.85.02-7.27.03-.31-.07-2.3-5.02-2.62-4.92-.85.16,1.07,2.36-.58,7.38-.55,1.4-1.04,1.6-1.93,3.58-1.74,3.2-2.93,6.66-3.77,10.29,1.54.42,2.98.66,4.34.71Z"/>
        <path class="cls-7" d="M53.15,21.3c-.06-3.38-.2-6.76-.65-10.11-.46-3.39-.31-4.34-1.75-7.45C50.17,2.5,48.67-.05,47.15,0c-1.67.05-3.06.42-3.85,1.7-1.77,2.86-2.82,6.09-3.2,9.42-2.35-.84-4.93-1.3-7.63-1.3-1.6,0-3.15.17-4.63.47-.65-1.81-1.49-3.56-2.5-5.18-1.21-1.93-3.1-4.83-5.64-4.75-.39-.1-.8-.16-1.25-.14-1.1.04-2.22.77-2.49,1.9-1.98,8.39-3.17,16.92-3.57,25.53-.04.76-.02.81.27,1.96,1.58,7.91,10.04,13.73,19.82,13.73s17.17-5.51,19.22-12.91c1.3-2.88,1.51-6,1.46-9.13Z"/>
        <path class="cls-9" d="M33.22,24.76c1.81,3.04,6.77,4.07,9.54,6.24,2.4,1.87,3.96,4.12,6.12,4.89,1.29-1.64,2.27-3.48,2.82-5.45,1.3-2.88,1.51-6,1.46-9.13-.06-3.38-.2-6.76-.65-10.11-.46-3.39-.31-4.34-1.75-7.45C50.17,2.5,48.67-.05,47.15,0c-1.67.05-3.06.42-3.85,1.7-1.77,2.86-2.82,6.09-3.2,9.42-2.17-.77-4.54-1.22-7.02-1.29-.94,5.1-2.24,10.94.14,14.93Z"/>
        <path class="cls-5" d="M26.78,27.13c-.15,0-.31-.03-.46-.05-.06-.01-.12-.03-.18-.05-.12-.05-.27-.1-.38-.18-.09-.06-.18-.13-.26-.2-.01-.01-.03-.02-.04-.03-.1-.08-.19-.18-.27-.3-.03-.04-.04-.09-.06-.13-.09-.16-.16-.33-.23-.49-.04-.14-.05-.27-.02-.41,0-.09.02-.18.07-.26.04-.13.11-.24.21-.33.07-.05.14-.11.21-.16.14-.07.29-.13.44-.19.06-.02.12-.04.18-.04.13-.02.27-.05.41-.04.13.01.22.03.3.05-.02-1.01-.04-2.03-.28-3-.14-.55-.52-1.11-1.39-1.13-.8-.01-1.47.51-1.82,1-.74,1.02-.56,2.25-.52,3.37.06,1.34.11,2.67.17,4.01.01.35.03.73.21,1.04.06.17.14.34.28.48.48.53,1.44.59,2.12.26.65-.32,1.07-.87,1.24-1.43.18-.58.2-1.19.16-1.8-.03,0-.06,0-.09,0Z"/>
        <path class="cls-10" d="M24.88,25.29c0-.09.02-.18.07-.26.04-.13.11-.24.21-.33.07-.05.14-.11.21-.16.14-.07.29-.13.44-.19.06-.02.12-.04.18-.04.13-.02.27-.05.41-.04.1,0,.18.02.25.04-.02-1.04-.03-2.11-.29-3.11-.14-.55-.52-1.11-1.39-1.13-.8-.01-1.47.51-1.82,1-.74,1.02-.56,2.25-.52,3.37.01.34.03.67.04,1.01h2.19c0-.05,0-.1.01-.16Z"/>
        <path class="cls-5" d="M40.9,27.05c-.14-.03-.27-.09-.4-.13-.23-.03-.44-.13-.61-.29-.13-.13-.21-.28-.26-.45-.01-.09-.02-.18-.04-.27,0-.14.02-.27.09-.39.04-.13.11-.24.21-.33.09-.1.2-.17.33-.21.12-.06.25-.09.39-.09.04,0,.08,0,.11,0,.03,0,.06,0,.09,0,.11,0,.22.01.33.02-.03-1.15-.01-2.34-.3-3.45-.14-.55-.52-1.11-1.39-1.13-.8-.01-1.47.51-1.82,1-.74,1.02-.56,2.25-.52,3.37.06,1.34.11,2.67.17,4.01.01.35.03.73.21,1.04.06.17.14.34.28.48.48.53,1.44.59,2.12.26.65-.32,1.07-.87,1.24-1.43.19-.63.2-1.3.15-1.96-.14,0-.28-.02-.41-.05Z"/>
        <path class="cls-10" d="M39.69,25.51c.04-.13.11-.24.21-.33.09-.1.2-.17.33-.21.12-.06.25-.09.39-.09.04,0,.08,0,.11,0,.03,0,.06,0,.09,0,.1,0,.19.01.28.02-.04-1.19,0-2.42-.3-3.57-.14-.55-.52-1.11-1.39-1.13-.8-.01-1.47.51-1.82,1-.74,1.02-.56,2.25-.52,3.37.01.34.03.67.04,1.01h2.53s.01-.05.03-.07Z"/>
        <path class="cls-6" d="M13.09,30.69c1.93,7.36,9.87,12.72,19.09,12.92-2.32-8.2-10.65-12.54-19.09-12.92Z"/>
        <path class="cls-3" d="M33.98,34.79c-.7-.08-1.35-.59-1.6-1.25-.1-.27-.52-.4-.67-.09-.27.55-.79.98-1.41,1.05-.2.02-.37.15-.37.37,0,.18.17.39.37.37.66-.08,1.28-.4,1.7-.89.45.65,1.16,1.09,1.98,1.18.2.02.37-.19.37-.37,0-.22-.17-.35-.37-.37Z"/>
        <path class="cls-3" d="M64.54,22.68c-5.36.18-10.62,1.82-15.13,4.74-.4.26-.03.9.37.64,4.4-2.85,9.52-4.46,14.76-4.64.47-.02.48-.75,0-.74Z"/>
        <path class="cls-3" d="M55.6,31.59c-2.26-.44-4.56-.59-6.86-.46-.47.03-.48.77,0,.74,2.23-.13,4.47,0,6.66.43.46.09.66-.62.2-.71Z"/>
        <path class="cls-3" d="M56.73,40.98c-1.14-1.51-2.42-2.9-3.83-4.15-1.31-1.15-2.8-2.39-4.63-2.44-.48-.01-.47.73,0,.74,1.7.05,3.12,1.34,4.32,2.42,1.29,1.16,2.46,2.43,3.5,3.81.28.37.92,0,.64-.37Z"/>
        <path class="cls-3" d="M.36,21.67c5.36.18,10.62,1.82,15.13,4.74.4.26.03.9-.37.64-4.4-2.85-9.52-4.46-14.76-4.64-.47-.02-.48-.75,0-.74Z"/>
        <path class="cls-3" d="M9.3,30.59c2.26-.44,4.56-.59,6.86-.46.47.03.48.77,0,.74-2.23-.13-4.47,0-6.66.43-.46.09-.66-.62-.2-.71Z"/>
        <path class="cls-3" d="M8.16,39.97c1.14-1.51,2.42-2.9,3.83-4.15,1.31-1.15,2.8-2.39,4.63-2.44.48-.01.47.73,0,.74-1.7.05-3.12,1.34-4.32,2.42-1.29,1.16-2.46,2.43-3.5,3.81-.28.37-.92,0-.64-.37Z"/>
        <path class="cls-8" d="M32.68,31.17h-1c-.19,0-.38.17-.37.37,0,.2.16.37.37.37h1c.19,0,.38-.17.37-.37,0-.2-.16-.37-.37-.37Z"/>
      </g>
    </g>
  </g>
</svg>