<?xml version="1.0" encoding="UTF-8"?>
<svg id="Layer_2" data-name="Layer 2" xmlns="http://www.w3.org/2000/svg" xmlns:xlink="http://www.w3.org/1999/xlink" viewBox="0 0 63.16 85.08">
  <defs>
    <style>
      .cls-1 {
        fill: #cc9a89;
      }

      .cls-2 {
        fill: url(#linear-gradient-2);
      }

      .cls-3 {
        fill: #1e1b1a;
      }

      .cls-4 {
        fill: url(#linear-gradient);
      }

      .cls-5 {
        fill: #353434;
      }

      .cls-6 {
        fill: #996b5f;
      }

      .cls-7 {
        fill: #6d9385;
      }

      .cls-8 {
        fill: #211c19;
      }

      .cls-9 {
        fill: #474645;
      }

      .cls-10 {
        fill: #bab8b7;
      }

      .cls-11 {
        fill: #3d3c3c;
      }
    </style>
    <linearGradient id="linear-gradient" x1="20.24" y1="92.34" x2="21.27" y2="55.7" gradientUnits="userSpaceOnUse">
      <stop offset="0" stop-color="#474645"/>
      <stop offset="1" stop-color="#3d3c3c"/>
    </linearGradient>
    <linearGradient id="linear-gradient-2" x1="37.87" y1="87.75" x2="38.01" y2="57.62" xlink:href="#linear-gradient"/>
  </defs>
  <g id="dog">
    <g id="Layer_16" data-name="Layer 16">
      <g>
        <path class="cls-11" d="M54.15,59.14c-.11-.18-.23-.37-.34-.55.36-.57.6-1.24.66-2,.1-1.21-.31-2.27-.96-3.19.23-.95-.04-2.09-.35-2.96-.6-1.66-2.02-2.95-3.7-3.13.18-1.42-.32-2.97-1.5-4.13-2.16-2.12-5.49-3.01-8.38-3.46-6.8-1.05-13.72-.87-20.51.14-1.34.2-2.07,1.89-1.75,3.08.19.69.6,1.16,1.12,1.44-.18.19-.35.38-.49.59-.04-.09-.07-.19-.12-.28-.46-.88-1.13-1.35-1.87-1.54-.13-.12-.28-.23-.45-.33-1.15-.67-2.33-.8-3.41-.56-1.22-.11-2.43-.03-3.57.6-1.35.74-2.35,2.23-2.31,3.8.02.72.18,1.34.44,1.87-.12.26-.22.53-.3.82-.06.24-.09.48-.1.72-1.56,1.17-2.48,3.06-2.11,5.03.2,1.09.79,2.02,1.58,2.73-.96.99-1.58,2.31-1.6,3.71-.02,1.01.3,1.97.83,2.81-.28.45-.52.94-.64,1.49-.38,1.72.2,3.3,1.3,4.43-.39,1.55,0,3.3,1.31,4.5.75.68,1.81,1.07,2.91,1.17,1.08,1.44,3.02,1.95,4.9,1.64,1.22.97,2.69.85,4.14.64.3-.04.6-.11.89-.18.72.66,1.58,1.18,2.46,1.54,1.27.52,2.67.72,4.04.62.64.29,1.32.48,2.01.55.75.08,1.6.07,2.43-.05.44.7,1.04,1.31,1.77,1.71,1.57.86,3.25.68,4.65-.12,2.84.82,5.92-.86,6.84-3.63.83-.37,1.56-.94,2.11-1.65,1.63.24,3.34-.29,4.46-1.8,1.04-1.42,1.09-3.2.45-4.69.3-.43.52-.91.65-1.46.18-.78.15-1.59-.07-2.34.27-.38.49-.82.63-1.31.23-.81.21-1.59.02-2.33.35-.15.69-.32,1.03-.52,1.15-.67,1.61-2.27.9-3.42ZM41.16,45.17c.88.25,1.71.57,2.51,1.04.08.05.35.27.57.43-.29.33-.49.72-.6,1.13-1-1.03-2.14-1.92-3.41-2.59-.31-.16-.63-.31-.96-.44.64.12,1.28.26,1.9.44Z"/>
        <path class="cls-4" d="M28.06,76.62c-.31-.5-.74-.93-1.24-1.23-.07-.04-.15-.1-.22-.15-.02-.16-.04-.32-.05-.47-.04-.58-.08-1.16-.11-1.73-.27-4.48-.36-8.97-.28-13.46.04-2.27-2.44-2.93-3.92-1.99-2.1-.9-4.82-.08-6.17,2.23-.68,1.16-.92,2.5-1.08,3.84-.43.97-.79,1.98-1.07,2.99-.84,3.1-1.29,6.54-1.33,9.76-.04,3.63,1.77,6.85,5.52,7.64,3.18.67,7.8.73,9.81-2.31,1-1.51,1.11-3.57.15-5.11Z"/>
        <path class="cls-2" d="M30.5,77.28c.31-.5.74-.93,1.24-1.23.07-.04.15-.1.22-.15.02-.16.04-.32.05-.47.04-.58.08-1.16.11-1.73.27-4.48.36-8.97.28-13.46-.04-2.27,2.44-2.93,3.92-1.99,2.1-.9,4.82-.08,6.17,2.23.68,1.16.92,2.5,1.08,3.84.43.97.79,1.98,1.07,2.99.84,3.1,1.29,6.54,1.33,9.76.04,3.63-1.77,6.85-5.52,7.64-3.18.67-7.8.73-9.81-2.31-1-1.51-1.11-3.57-.15-5.11Z"/>
        <path class="cls-9" d="M62.11,23.7c-.76-2.85-3.26-3.21-5.53-4.22-3.35-9.18-13.81-15.89-26.21-15.89-11.62,0-21.54,5.88-25.5,14.18-2.06,1.44-4.54,2.33-4.43,5.23.05,1.26.6,2.23,1.43,2.97-1.08,1.58-1.67,3.39-1.75,5.55-.05,1.41.99,2.34,2.26,2.64-.09,2.32,1.13,4.41,3.23,5.13.02,1.51.35,2.9,1.89,4.06,1.24.94,2.8,1.23,4.38,1.24.68,2.11,2.12,3.8,4.87,4.24,2.53.41,4.63-.49,6.71-1.57,2.21.47,4.52.72,6.91.72,1.63,0,3.21-.12,4.76-.34.24.05.48.09.76.09,4.29.08,8.98,2.81,13.27,1.36,2.35-.79,3.45-2.54,3.85-4.56.94-.22,1.82-.62,2.51-1.32,1.41-1.43.97-2.76.98-4.17,2.15-.9,3.11-2.68,3.02-4.93.43-.33.8-.75,1.1-1.32.86-1.66.25-2.98-.17-4.46,1.4-1.07,2.2-2.57,1.65-4.61Z"/>
        <path class="cls-10" d="M49.14,31.66c1.34-1.75,2.27-4.65.75-6.42-1.1-1.28-3.23-1.76-4.65-2.16-1.28-.36-3.72-1.07-4.99-.39-1,.54-2.16,2.81-2.82,3.88-.77,1.25-1.75,2.85-1.7,4.47.14,4.51,4.46,3.65,7.13,3.48,1.1-.07,2.34-.22,3.54-.54,1.03-.57,1.97-1.33,2.73-2.32Z"/>
        <g>
          <path class="cls-9" d="M1.62,11.7c1-1.85,2.07-3.67,3.13-5.48,1-1.7,2.12-3.38,3.61-4.69.94-.83,2-1.4,3.21-.71,1.06.6,1.99,1.46,3.04,2.08,1.85,1.1,3.83,1.9,5.89,2.49-.02,0-.05,0-.07,0-.07.01-.13.03-.19.05-.21.07-.43.14-.62.24-.19.1-.38.24-.55.38-.02.02-.04.03-.06.05-.06.04-.12.07-.17.12-.12.14-.23.27-.35.41-.17.24-.26.5-.28.78-.02.07-.03.14-.04.21-.08.03-.17.06-.25.09-.5.24-.84.71-1.02,1.22-.18.49-.1,1.13.14,1.59.02.04.05.07.08.11.21.64.38,1.28.53,1.93.02.55.05,1.1.04,1.62-.01,1.93.21,4.19-.89,5.9-1.14,1.77-3.16,1.91-5.07,1.93-2.09.02-4.34-.1-6.34-.78-1.82-.62-3.54-1.82-4.37-3.61-.95-2.05-.42-4.04.61-5.94Z"/>
          <path class="cls-5" d="M1.17,11.45h0c1-1.85,2.08-3.69,3.14-5.5.93-1.59,2.11-3.4,3.71-4.81.87-.77,2.22-1.67,3.81-.77.57.33,1.11.72,1.63,1.11.48.36.94.69,1.43.98,1.97,1.17,4.2,2.07,6.61,2.68.05.01.08.04.13.06-.25.02-.49.05-.72.12-.04.01-.09.03-.13.05-.11.01-.23.03-.33.04-.07.01-.13.03-.19.05-.2.07-.41.13-.59.23-1.9-.6-3.68-1.38-5.29-2.33-.53-.31-1.03-.68-1.51-1.04-.52-.38-1-.74-1.52-1.04-.81-.46-1.57-.28-2.62.65-1.5,1.32-2.61,3.04-3.52,4.59-1.04,1.77-2.12,3.61-3.11,5.44-1.15,2.13-1.34,3.87-.59,5.48.94,2.03,2.95,2.96,4.07,3.34,2.06.69,4.38.77,6.17.75,1.89-.02,3.66-.16,4.65-1.69.86-1.33.84-3.07.82-4.75,0-.3,0-.59,0-.87,0-.36-.02-.74-.03-1.12-.03-.73-.06-1.49.03-2.22.61,1.89.91,3.85,1.02,5.82-.05,1.28-.25,2.59-.97,3.71-1.26,1.96-3.41,2.15-5.5,2.16-1.81.02-4.13-.06-6.27-.73-.08-.03-.16-.05-.24-.08-2.2-.74-3.86-2.12-4.67-3.88-1.17-2.53-.21-4.87.62-6.4Z"/>
        </g>
        <g>
          <path class="cls-9" d="M61.54,12.7c-1-1.85-2.07-3.67-3.13-5.48-1-1.7-2.12-3.38-3.61-4.69-.94-.83-2-1.4-3.21-.71-1.06.6-1.99,1.46-3.04,2.08-1.85,1.1-3.83,1.9-5.89,2.49.02,0,.05,0,.07,0,.07.01.13.03.19.05.21.07.43.14.62.24.19.1.38.24.55.38.02.02.04.03.06.05.06.04.12.07.17.12.12.14.23.27.35.41.17.24.26.5.28.78.02.07.03.14.04.21.08.03.17.06.25.09.5.24.84.71,1.02,1.22.18.49.1,1.13-.14,1.59-.02.04-.05.07-.08.11-.21.64-.38,1.28-.53,1.93-.02.55-.05,1.1-.04,1.62.01,1.93-.21,4.19.89,5.9,1.14,1.77,3.16,1.91,5.07,1.93,2.09.02,4.34-.1,6.34-.78,1.82-.62,3.54-1.82,4.37-3.61.95-2.05.42-4.04-.61-5.94Z"/>
          <path class="cls-5" d="M61.99,12.46h0c-1-1.85-2.08-3.69-3.14-5.5-.93-1.59-2.11-3.4-3.71-4.81-.87-.77-2.22-1.67-3.81-.77-.57.33-1.11.72-1.63,1.11-.48.36-.94.69-1.43.98-1.97,1.17-4.2,2.07-6.61,2.68-.05.01-.08.04-.13.06.25.02.49.05.72.12.04.01.09.03.13.05.11.01.23.03.33.04.07.01.13.03.19.05.2.07.41.13.59.23,1.9-.6,3.68-1.38,5.29-2.33.53-.31,1.03-.68,1.51-1.04.52-.38,1-.74,1.52-1.04.81-.46,1.57-.28,2.62.65,1.5,1.32,2.61,3.04,3.52,4.59,1.04,1.77,2.12,3.61,3.11,5.44,1.15,2.13,1.34,3.87.59,5.48-.94,2.03-2.95,2.96-4.07,3.34-2.06.69-4.38.77-6.17.75-1.89-.02-3.66-.16-4.65-1.69-.86-1.33-.84-3.07-.82-4.75,0-.3,0-.59,0-.87,0-.36.02-.74.03-1.12.03-.73.06-1.49-.03-2.22-.61,1.89-.91,3.85-1.02,5.82.05,1.28.25,2.59.97,3.71,1.26,1.96,3.41,2.15,5.5,2.16,1.81.02,4.13-.06,6.27-.73.08-.03.16-.05.24-.08,2.2-.74,3.86-2.12,4.67-3.88,1.17-2.53.21-4.87-.62-6.4Z"/>
        </g>
        <path class="cls-9" d="M41.71,6.22c-.88-2.23-2.93-2.93-5.17-3.07-.68-.04-1.42-.01-2.02.29-.46-.25-.94-.48-1.45-.68-1.1-.43-2.39-.9-3.59-.72-.75.12-1.46.54-1.89,1.16-1.13-.28-2.27-.46-3.41-.25-1.51.28-2.89,1.42-3.21,2.95-.39,1.88,2.5,2.69,2.89.8.39-1.85,4.05-.29,5.12,0v-.03c.13.03.26.06.4.08,1,.12,1.5-.75,1.44-1.59.4.11.79.23,1.18.38.72.27,1.44.64,2.05,1.12.11.1.22.19.36.27.83.48,1.78-.04,2.15-.77.04,0,.09,0,.13,0,.33.02.65.06.98.14.39.1.97.29,1.14.71.3.75,1,1.28,1.85,1.05.72-.2,1.35-1.09,1.05-1.85Z"/>
        <path class="cls-8" d="M23.11,30.8c-.45-.14-.81-.4-1.07-.79-.08-.12-.13-.26-.18-.38-.02-.05-.03-.09-.04-.14-.05-.27-.06-.54.02-.81.12-.4.41-.77.78-.96.53-.26,1.11-.31,1.69-.28.17,0,.34.03.51.05,0-.11.01-.22,0-.33-.07-.65-.17-1.06-.45-1.66-.25-.53-.68-.95-1.16-1.28-.85-.58-2-.6-2.96-.31-.38.11-.74.28-1.1.44-.22.1-.43.21-.62.34-.72.47-1.38,1.08-1.79,1.85-.2.39-.39.82-.47,1.25-.12.71-.12,1.18.01,1.9.05.27.2.54.39.78.07.15.14.3.24.44.36.5.57.71,1.08,1.07.27.19.6.31.9.42.32.11.67.14,1,.17.34.03.68-.03,1.02-.08.16-.02.31-.06.45-.11.31-.12.64-.24.92-.42.29-.18.57-.4.83-.63.13-.11.25-.23.36-.36.02-.03.04-.06.07-.08-.15-.02-.29-.04-.43-.08Z"/>
        <path class="cls-8" d="M46.45,30.08c-.59.05-1.25,0-1.77-.31-.38-.23-.68-.59-.78-1.03-.13-.53.03-1.08.4-1.48.48-.51,1.21-.63,1.87-.7,0,0,0,0,0,0-.41-.59-.96-1.08-1.55-1.47-.2-.13-.41-.24-.62-.34-.36-.16-.72-.32-1.1-.44-.95-.29-2.11-.26-2.96.31-.48.33-.91.75-1.16,1.28-.28.59-.37,1.01-.45,1.66-.05.42.02.83.08,1.24.03.17.08.33.13.49.1.42.26.84.48,1.2.19.31.42.6.66.88.11.13.23.25.36.36.26.22.53.45.83.63.29.17.61.3.92.42.15.06.3.09.45.11.34.05.67.12,1.02.08.33-.03.68-.06,1-.17.3-.11.63-.23.9-.42.51-.36.72-.57,1.08-1.07.1-.13.17-.29.24-.44.19-.24.33-.51.39-.78,0-.02,0-.04,0-.06-.14.02-.29.04-.43.05Z"/>
        <path class="cls-7" d="M22.04,30.01c-.08-.12-.13-.26-.18-.38-.02-.05-.03-.09-.04-.14-.05-.27-.06-.54.02-.81.04-.13.1-.25.17-.36h-5.8c-.04.45-.02.84.08,1.37.05.27.2.54.39.78.07.15.14.3.24.44.36.5.57.71,1.08,1.07.27.19.6.31.9.42.32.11.67.14,1,.17.34.03.68-.03,1.02-.08.16-.02.31-.06.45-.11.31-.12.64-.24.92-.42.29-.18.57-.4.83-.63.13-.11.25-.23.36-.36.02-.03.04-.06.07-.08-.15-.02-.29-.04-.43-.08-.45-.14-.81-.4-1.07-.79Z"/>
        <path class="cls-7" d="M44.73,29.79h-6.01c.09.24.19.48.32.69.19.31.42.6.66.88.11.13.23.25.36.36.26.22.53.45.83.63.29.17.61.3.92.42.15.06.3.09.45.11.34.05.67.12,1.02.08.33-.03.68-.06,1-.17.3-.11.63-.23.9-.42.51-.36.72-.57,1.08-1.07.1-.13.17-.29.24-.44.19-.24.33-.51.39-.78,0-.02,0-.04,0-.06-.14.02-.29.04-.43.05-.57.05-1.21,0-1.72-.29Z"/>
        <path class="cls-1" d="M33.37,37.93c-.23-.21-.58-.33-.87-.43-.3-.09-.61-.15-.92-.16-.62-.04-1.25.1-1.81.37-.02,0-.03.03-.05.04-.1-.11-.24-.18-.38-.18-.29,0-.48.23-.5.5-.09,1.23-.15,2.6.57,3.67.34.51.84.92,1.47,1,.61.08,1.27-.19,1.55-.75.16-.32.25-.67.36-1,.11-.33.22-.66.33-.99l.33-.99c.13-.38.24-.75-.1-1.06Z"/>
        <path class="cls-6" d="M31.63,37.68c.03-.27-.25-.5-.5-.5-.29,0-.47.23-.5.5-.12,1.2-.39,2.41-.24,3.62.03.27.21.5.5.5.24,0,.53-.23.5-.5-.15-1.21.12-2.42.24-3.62Z"/>
        <path class="cls-3" d="M34.33,36.86c-.28-.08-.52.1-.62.35-.13.33-.73.32-1,.27-.5-.08-.93-.36-1.24-.75-.17-.21-.53-.17-.71,0-.59.59-1.61,1.05-2.24.25-.17-.21-.53-.18-.71,0-.21.21-.17.5,0,.71.42.53,1.15.78,1.81.71.55-.06,1.04-.3,1.47-.63,1.04.87,3.01,1.2,3.58-.29.1-.25-.11-.55-.35-.62Z"/>
        <path class="cls-3" d="M32.99,33.28c-.52-.14-1.06-.18-1.59-.2-.6-.03-1.2-.07-1.75.19-.09.04-.15.11-.19.19-.08.14-.09.32,0,.5.17.33.47.56.79.73.35.18.71.36,1.11.41.69.09,1.3-.24,1.76-.73.09-.04.18-.1.25-.19.28-.36.01-.8-.38-.9Z"/>
      </g>
    </g>
  </g>
</svg>