<?xml version="1.0" encoding="UTF-8"?>
<svg id="Layer_2" data-name="Layer 2" xmlns="http://www.w3.org/2000/svg" viewBox="0 0 269.79 217.47">
  <defs>
    <style>
      .cls-1 {
        fill: #98cdf4;
      }

      .cls-2 {
        fill: #f2f0ff;
      }

      .cls-3 {
        fill: #efcb8e;
      }

      .cls-4 {
        fill: #e5c583;
      }

      .cls-5 {
        fill: #f2da99;
      }

      .cls-6 {
        fill: #f7e0aa;
      }

      .cls-7 {
        fill: #a2a8e0;
      }

      .cls-8 {
        fill: #fff;
      }

      .cls-9 {
        fill: #c3bfef;
      }

      .cls-10 {
        fill: #d7f0ff;
      }

      .cls-11 {
        fill: #f0f2f7;
      }

      .cls-12 {
        fill: #88a5d3;
      }

      .cls-13 {
        fill: #6b88b2;
      }

      .cls-14 {
        fill: #e8e7f7;
      }

      .cls-15 {
        fill: #fff0ca;
      }

      .cls-16 {
        fill: #89afe5;
      }
    </style>
  </defs>
  <g id="royal_dress" data-name="royal dress">
    <g id="Layer_9" data-name="Layer 9">
      <g>
        <path class="cls-12" d="M96.95,200.22c-6.64-.34-12.87-.55-18.98-2.1,2.84,11.49,6.36,20.03,10.43,18.63,0,0,3.09.64,4.29-6.75,0,0,.4,7.31,3.79,6.9,0,0,4.89.99,5.59-5.8.18-1.74,1.43-5.6,3.19-10.37-2.75-.06-5.47-.37-8.31-.51Z"/>
        <path class="cls-12" d="M210.06,200.09c-1.75.15-3.5.25-5.25.32.82,7.47,2.65,16.78,6.7,16.78,6.78,0,5.46-6.4,5.46-6.4,0,0,2.26,6.4,6.4,6.4s7.72-3.58,8.66-9.04c0,0,1.18-3.9,2.2-9.58-7.99,2.47-15.81,2.47-24.17,1.52Z"/>
        <path class="cls-13" d="M48.02,197.3c-4.67.22-9.33-.3-13.89-1.34-1.53-.35-3.12-.72-4.61-1.21,2.98,13.38,6.83,24.08,11.34,22.53,0,0,3.09.64,4.29-6.75,0,0,.4,7.31,3.79,6.9,0,0,4.89.99,5.59-5.8.23-2.26,1.03-8.22,1.99-15.16-2.82.4-5.66.7-8.51.83Z"/>
        <path class="cls-13" d="M169.85,201.12c-4.84.11-9.83-.63-14.5-1.91,2.74,10.36,6.06,17.74,9.87,16.44,0,0,3.09.64,4.29-6.75,0,0,.4,7.31,3.79,6.9,0,0,4.89.99,5.59-5.8.18-1.72.68-5.55,1.33-10.33-3.34.86-6.79,1.37-10.37,1.46Z"/>
        <circle class="cls-11" cx="38.45" cy="198.79" r="4.04"/>
        <circle class="cls-8" cx="89.5" cy="201.63" r="4.04"/>
        <path class="cls-1" d="M248.56,84.78s-.05-51.51-57.03-70.36c0,0-35.64-17.3-85.54,7.35,0,0-9.55,3.32-19.99.95-1.42,20.17-5.31,38.72-13.9,57.1-6.57,14.06-16.65,28.32-30.3,36.24-12.94,7.51-29.47,7.56-41.8.2,3.85,17.4,11.09,33.67,24.27,42.7,0,0,17.05,11.71,49.13,16.8,32.08,5.09,37.17,10.18,37.17,10.18,0,0,29.53-6.62,58.56-23.93l65.69,13.24s-3.06-45.5,13.75-90.47Z"/>
        <path class="cls-2" d="M37.11,118.4c-12.07,5.08-26.22,4.36-37.11-2.13,3.85,17.4,11.09,33.67,24.27,42.7,0,0,16.41,11.26,47.32,16.5-18.18-13.59-30.73-34.65-34.48-57.07Z"/>
        <path class="cls-7" d="M71.25,166.12c-.34-.12-.56.12-.59.4-1.73-.46-3.48-.82-5.23-1.14.16-1.24.32-2.47.47-3.71.08-.64-.92-.63-1,0-.15,1.18-.3,2.35-.45,3.53-7.12-1.18-14.4-1.32-21.61-1.13-1.83.05-3.66.12-5.48.19.82-3.54,2.17-6.95,3.96-10.1.27-.12.52-.27.75-.47.66-.59.89-1.41,1.02-2.26,0-.03,0-.07.01-.1,1.2-1.74,2.54-3.4,4.02-4.91.2-.21.42-.39.63-.59,1.43.65,2.87,1.25,4.36,1.76.61.21.87-.76.27-.96-1.31-.45-2.58-.97-3.84-1.53,1.05-.96,2.13-1.88,3.28-2.72.52-.37.02-1.24-.5-.86-1.33.96-2.58,2.02-3.76,3.14-1.65-.77-3.26-1.63-4.86-2.5-.14-.58-.3-1.15-.48-1.71-.58-1.78-1.36-3.5-2.34-5.09-.97-1.57-2.12-3.17-3.58-4.31-1.57-1.22-3.44-1.49-5.37-1.32,1.22-.72,2.47-1.41,3.74-2.04,2.77-1.36,5.76-2.69,8.92-2.4.64.06.64-.94,0-1-2.86-.27-5.59.75-8.14,1.92-2.3,1.06-4.54,2.28-6.68,3.63-.09.06-.17.12-.26.17-1.02.17-2.04.4-2.97.81-.57.25-1.1.57-1.56.98-.93-.4-1.93-.65-2.97-.66-.17,0-.33.02-.49.04-1.68-.65-3.38-1.28-5.09-1.86-3.68-1.25-7.58-2.64-11.53-2.26-.63.06-.64,1.06,0,1,3.57-.34,7.04.83,10.38,1.93,1.6.53,3.19,1.09,4.77,1.69-.89.56-1.54,1.48-2.18,2.46-1.18,1.77-2.25,3.62-3.2,5.52-.94,1.87-1.82,3.8-2.51,5.78-.61,1.78-.92,3.87.22,5.52.88,1.27,2.41,1.94,3.9,1.34,1.42-.57,2.33-2.01,2.95-3.34.84-1.81,1.52-3.71,2.24-5.57-1.06,4.24-1.91,8.52-2.55,12.84-.32,2.2-.6,4.4-.81,6.61-.06.64.94.64,1,0,.94-9.43,2.89-18.74,5.78-27.77-.62,7.33-.25,14.73,1.15,21.95.43,2.21.95,4.4,1.56,6.56.17.62,1.14.36.96-.27-2.67-9.48-3.54-19.41-2.58-29.22.58.26,1.15.52,1.73.78,1.87,1.82,3.17,4.25,4.16,6.63,1.5,3.61,2.58,7.55,5.04,10.67,1,1.28,2.43,2.39,4.13,2.31-.8,1.47-1.51,2.99-2.11,4.56-.66,1.71-1.17,3.48-1.57,5.27-.58.02-1.15.05-1.73.07-.64.03-.64,1.03,0,1,.51-.02,1.02-.04,1.53-.06,0,.55.85.76.96.16.01-.07.03-.14.05-.21,8.72-.36,17.51-.6,26.16.72.35.05.7.12,1.05.17-.34,2.65-.68,5.29-1.02,7.94-.08.64.92.63,1,0,.33-2.59.66-5.18.99-7.78,1.98.36,3.95.81,5.88,1.36.22.06.45-.04.56-.23.34-.54.06-1.13-.5-1.33ZM46.77,145.38c-1.25,1.24-2.4,2.57-3.46,3.97.13-1.98.02-3.96-.35-5.91,1.26.68,2.52,1.33,3.81,1.95ZM18.37,145.87c-.65,1.65-1.22,3.55-2.52,4.83-1.33,1.31-3.17.89-3.95-.79-.49-1.06-.39-2.22-.09-3.36.18.25.63.35.87,0,2.75-3.94,6-7.51,9.63-10.65-1.31,3.32-2.62,6.64-3.94,9.96ZM23.07,133.96c-2.11,1.71-4.11,3.54-5.96,5.52-1.82,1.95-3.5,4.03-5.04,6.21.24-.67.51-1.32.76-1.92.82-2,1.78-3.94,2.84-5.82.52-.93,1.07-1.84,1.65-2.73.51-.8,1.01-1.68,1.7-2.35.38-.37.83-.57,1.31-.67.99.39,1.99.77,2.97,1.19-.08.19-.15.38-.23.58ZM25.96,132.98c.94-.69,1.91-1.35,2.89-1.99.05,0,.1-.02.16-.03,2.1-.32,4.37-.65,6.25.57,1.61,1.04,2.81,2.79,3.79,4.4,1,1.64,1.79,3.41,2.34,5.25.03.1.05.2.08.3-2.43-1.36-4.84-2.76-7.3-4.06-2.28-1.21-4.62-2.33-6.97-3.4-.39-.37-.81-.72-1.24-1.04ZM37.15,152.14c-1.36-1.42-2.28-3.3-3.06-5.09-1.55-3.55-2.57-7.37-4.81-10.58-.14-.2-.29-.41-.45-.61,1.49.71,2.96,1.44,4.42,2.2,2.89,1.52,5.7,3.18,8.56,4.75.3,1.36.49,2.74.55,4.13.04.95.01,1.9-.07,2.84-.03.33-.06.71-.1,1.1-.57.83-1.13,1.68-1.63,2.55-1.17.31-2.61-.47-3.41-1.3Z"/>
        <path class="cls-5" d="M248.22,84.78s-.05-51.51-57.03-70.36c0,0-24.15-11.71-60.52-2.11,12.39,10.83,17.17,28.37,18.44,44.55,1.38,17.51-.26,35.47-1.03,52.98-.53,12.11-.74,24.23-1.14,36.35-.28,8.58-.73,18.49-2.41,28.1,7.66-3.29,15.97-7.34,24.25-12.28l65.69,13.24s-3.06-45.5,13.75-90.47Z"/>
        <path class="cls-10" d="M259.03,164.82c-.53-2.44-1.42-5-2.13-7.58,2.27-1.1,4.27-2.53,5.53-4.49,1.23-1.89,1.63-4.2,1.02-6.33-6.49-4.53-10.66-12.14-11.04-20.57-.42-9.29,5.41-17.62,13.34-21.88-.42-1.77-.9-3.54-1.47-5.27-.18-.55-1.96-5.05-1.68-4.52-.76-1.72-1.55-3.43-2.33-5.14-2-4.39-3.95-8.82-5.61-13.36-1.97-3.51-4.02-6.98-6.09-10.43-.75,1.33-1.58,2.63-2.46,3.9,2.65,6.49,4.29,13.31,3.96,20.48-.78,16.76-12,30.74-23.58,41.92-9.45,9.12-19.51,17.82-29.99,25.72-10.87,8.19-23.67,15.76-37.22,18.43-4.85,7.2-9.99,14.18-15.26,21.08.66,1.37,2.13,2.28,3.96,1.84,1.75-.42,12.8-3.27,17.55-2.83-1.91,1.91-3.27,4.29-2.87,7.08.6,4.2,4.64,5.88,8.38,6.51,7.05,1.19,14.76-2.85,21.92-3.28.96-.21,1.93-.36,2.91-.45-.24,3.22,2.38,6.8,6.42,7.52,3.99.71,7.64-1.07,11.21-2.57,4.6-1.93,9.42-2.88,14.31-3.57.63,1.15,1.68,2.01,2.96,2.59,5.3,2.4,13.35,1.39,18.98.91,1.78-.15,3.64-1.48,3.5-3.5l-.36-5.26c2.39-2.6,3.07-6.28,2.83-9.78-.12-1.71-.26-3.41-.4-5.11,1.22-.29,2.42-.71,3.43-1.3.88-.24,1.75-.47,2.63-.71,2.31-.62,3.07-3.15,2.09-5.14-2.31-4.72-3.34-9.81-4.45-14.91Z"/>
        <g>
          <path class="cls-1" d="M269.4,113.99c-.12-1.75-.3-3.48-.44-5.23-.09-.74-.14-1.21-.17-1.48-.11-.69-.21-1.37-.32-2.06-.67-3.89-1.51-7.76-2.75-11.51-.18-.55-1.96-5.05-1.68-4.52-.76-1.72-1.55-3.43-2.33-5.14-2-4.39-3.95-8.82-5.61-13.36-2.56-4.56-5.22-9.06-7.94-13.51-3.09-5.06-6.39-9.98-9.83-14.81-1.89-2.65-3.82-5.27-5.78-7.87-.8-1.07-1.62-2.13-2.43-3.2.87,1.15.15.22-.61-.77-6.85-5.35-14.57-9.54-22.83-12.81-12.94-5.11-27.77-9.26-42.09-9.86-2.35-1.06-4.77-1.99-7.23-2.74-2.14-.65-4.55-1.04-6.64,0-.09.05-.18.1-.26.15-1.2.45-2.16,1.57-2.41,2.85-.12.38-.18.78-.19,1.19,2.41,1.57,3.91,4.39,4.98,7.22.31.58.61,1.16.89,1.75,1.76,5.24,3.94,10.37,5.56,15.67,6.48,43.55-.25,88.18-8.35,131.21-.11.58-.12,1.17-.09,1.75-.4,7.53-2.16,14.73-5.38,21.57-1.28,2.73.83,5.9,3.95,5.14,1.75-.42,12.8-3.27,17.55-2.83-1.91,1.91-3.27,4.29-2.87,7.08.6,4.2,4.64,5.88,8.38,6.51,7.05,1.19,14.76-2.85,21.92-3.28.96-.21,1.93-.36,2.91-.45-.24,3.22,2.38,6.8,6.42,7.52,3.99.71,7.64-1.07,11.21-2.57,4.6-1.93,9.42-2.88,14.31-3.57.63,1.15,1.68,2.01,2.96,2.59,5.3,2.4,13.35,1.39,18.98.91,1.78-.15,3.64-1.48,3.5-3.5l-.36-5.26c2.39-2.6,3.07-6.28,2.83-9.78-.12-1.71-.26-3.41-.4-5.11,1.22-.29,2.42-.71,3.43-1.3.88-.24,1.75-.47,2.63-.71,2.31-.62,3.07-3.15,2.09-5.14-2.31-4.72-3.34-9.81-4.45-14.91-.53-2.44-1.42-5-2.13-7.58,2.27-1.1,4.27-2.53,5.53-4.49,1.37-2.11,1.73-4.73.78-7.05-.98-2.4-2.91-2.77-4.65-4.21.77-.41,1.55-.81,2.35-1.16,1.78-.87,3.58-1.7,5.37-2.56.7-.34,1.37-.66,1.99-1.01.03-1.21.08-2.42.09-3.64.04-4.72-.06-9.44-.39-14.15Z"/>
          <path class="cls-1" d="M230.11,31.31c-.08-.1-.16-.21-.27-.35.09.12.18.23.27.35Z"/>
        </g>
        <g>
          <path class="cls-16" d="M214.98,205.81c.53-.28,1.05-.56,1.56-.87.27-.16.55-.32.85-.43-1.63-1.19-3.1-2.69-4.99-3.83-3-1.81-8.64-3.39-11.7-.95,1.46-8.47,3.62-16.8,6.48-24.91.43-1.22-1.5-1.74-1.93-.53-3.39,9.61-5.81,19.54-7.23,29.63.05.08.09.17.08.26,0,.01,0,.13,0,.17,0,0,0,0,0,0,.7.71,1.28,1.53,1.84,2.35.03.04.04.08.05.13,1.01.84,2.27,1.47,3.72,1.72,3.55.63,6.84-.71,10.04-2.07.4-.24.81-.46,1.22-.68Z"/>
          <path class="cls-16" d="M160.3,191.32c.44-.17.88-.32,1.35-.37.12-.01.24-.02.35-.02-.34-.65-.55-1.39-.56-2.21-.07-4.54-7.12-6.01-10.4-4.12-1.41.82-2.79.84-3.95.39-.5,1.31-1.03,2.6-1.64,3.89-1.28,2.73.83,5.9,3.95,5.14,1.01-.24,5.07-1.28,9.24-2.04.56-.19,1.1-.45,1.64-.66Z"/>
          <path class="cls-16" d="M180.85,203.94c-6.63-1.09-14.37-3.51-16.68-8.01-.16.74-.2,1.52-.08,2.34.6,4.2,4.64,5.88,8.38,6.51,2.3.39,4.66.22,7.06-.19.41-.25.85-.49,1.32-.65Z"/>
          <path class="cls-16" d="M264.96,175.28c-.6.73-1.4,1.29-2.38,1.52-2.29.54-4.09,1.31-5.68,2.61-3.65-11.74-7.62-23.59-8.63-35.88-.1-1.27-2.11-1.28-2,0,1.06,12.86,5.24,25.2,9.03,37.46-.13.15-.26.29-.39.45,0,0-.01.01-.02.02.41,4.79,1.85,10.31-.32,14.7-.32.64-.69,1.19-1.1,1.65-.53,1.86-1.98,3.51-4.37,3.79-5.67.65-12.58.56-18.24-1.55-.37.13-.73.24-1.08.33.26-2.65,1.23-5.18,1.96-7.74.88-3.07,1.59-6.18,2.2-9.31,1.2-6.21,1.98-12.48,2.77-18.75.16-1.27-1.84-1.26-2,0-.8,6.41-1.6,12.82-2.88,19.16-.61,3.05-1.34,6.07-2.22,9.06-.86,2.91-1.89,5.77-1.9,8.83,0,.19.05.34.12.47,0,.05-.02.09-.03.14.11-.05.23-.09.34-.12.29-.08.61-.09.87.08.1.07.17.15.24.24,0,0,0,0,0,0,.63,1.14,1.68,2,2.95,2.58,5.3,2.4,13.35,1.39,18.98.91,1.78-.15,3.64-1.48,3.5-3.5l-.36-5.26c2.39-2.6,3.07-6.28,2.83-9.78-.1-1.46-.22-2.91-.34-4.36.48-.07.9-.43.85-.99.9-.27,1.76-.61,2.52-1.06.88-.24,1.75-.47,2.63-.71,2.25-.6,3.01-3.01,2.15-4.98Z"/>
          <path class="cls-16" d="M248.19,97.04s0,0,0,0c0,0,0,0,0,0,.06.02.11.04.17.06.11.04.23.07.35.09.04,0,.27.02.12.02-.15,0,.05,0,.09,0,.12,0,.23,0,.35,0,.05,0,.1,0,.16-.01.01,0,.02,0,.03,0,.11-.03.21-.06.32-.09,0,0,0,0,0,0,.04-.03.09-.05.14-.07.05-.03.09-.06.14-.09,0,0,0,0,0,0,.03-.03.06-.06.08-.09-.58-1.63-1.05-3.29-1.29-5.02-.18-1.27-2.1-.73-1.93.53.22,1.57.63,3.09,1.13,4.57.05.02.09.06.13.08Z"/>
          <path class="cls-16" d="M259.26,134.36c-1.1-6.92-2.32-13.82-3.69-20.69-.75-3.78-1.65-7.44-3.11-11.01-.33-.81-.67-1.62-1.01-2.43-.11,0-.22,0-.33,0-.03,0-.06,0-.09,0,0,0-.11.02-.15.03-.14.03-.27.07-.41.11-.03,0-.09.04-.11.04-.03.01-.06.03-.09.04-.13.07-.24.14-.36.22-.02.01-.02.01-.03.02,0,0,0,0,0,0-.05.06-.12.11-.17.16-.03.03-.07.07-.1.1.28.67.56,1.35.84,2.02,1.51,3.64,2.43,7.36,3.2,11.22,1.51,7.57,2.84,15.18,4.02,22.81.19,5.07,1.18,10.06,1.67,15.1,1.85-1.02,3.46-2.31,4.54-3.97,1.37-2.11,1.73-4.73.78-7.05-.98-2.4-2.91-2.77-4.65-4.21.77-.41,1.55-.81,2.35-1.16,1.78-.87,3.58-1.7,5.37-2.56.7-.34,1.37-.66,1.99-1.01,0-.26.01-.51.02-.77-3.16,1.74-6.87,2.68-10.46,2.98Z"/>
        </g>
        <path class="cls-16" d="M237.23,151.74c-.49-.13-1.13.17-1.23.7-.5,2.56-.75,5.16-.73,7.77.01,1.29,2.01,1.29,2,0-.03-2.43.19-4.85.66-7.23.1-.53-.15-1.08-.7-1.23Z"/>
        <path class="cls-16" d="M217.56,121.65l-.43-16.43c-.16-6.14-.32-12.28-.49-18.42-.03-1.28-2.03-1.29-2,0,.28,10.79.57,21.57.85,32.36.14,5.21.41,10.44.28,15.65-.13,5.33-1.16,10.4-2.62,15.5-1.66,5.76-3.38,11.49-5.08,17.23-.36,1.24,1.56,1.77,1.93.53,1.54-5.21,3.08-10.41,4.61-15.62,1.45-4.93,2.72-9.87,3.05-15.01.34-5.25.04-10.54-.1-15.8Z"/>
        <path class="cls-16" d="M186.25,122.77c-.1-1.27-2.11-1.28-2,0,.76,9.26-3.75,17.62-7.93,25.54-2.12,4.02-4.2,8.07-5.66,12.39-1.44,4.25-2.29,8.68-2.85,13.12-.65,5.16-.87,10.36-1.09,15.55-.05,1.29,1.95,1.28,2,0,.38-9.16.78-18.46,3.58-27.26,2.78-8.73,8.25-16.25,11.51-24.78,1.77-4.64,2.85-9.57,2.44-14.55Z"/>
        <path class="cls-16" d="M186.6,119.07c-.34-2.2-.47-4.43-.43-6.65.01-.54-.47-1-1-1s-.99.46-1,1c-.05,2.41.13,4.81.5,7.19.08.53.75.83,1.23.7.57-.16.78-.69.7-1.23Z"/>
        <path class="cls-5" d="M166.66,190.41c0-.19.04-.37.04-.56,0-.04.01-.08.02-.12.07-3.95-2.46-7.82-5.66-9.99-1.94-1.32-4.38-1.14-6.62-1.16-1.84-.02-3.68.05-5.51.27-.04.28-.17.57-.26.79,0,.02-.02.05-.03.07-.01.07-.03.15-.04.22-.07.36-.17.7-.32,1.04,1.8-.29,3.62-.39,5.44-.39,1.92,0,4.37-.32,6.08.73,2.89,1.77,5.06,5.32,4.92,8.74,0,0,0,.01-.01.02,0,.03.02.05.02.08,0,.22.02.44.03.66.11,0,.22,0,.33-.02.23-.04.46-.08.7-.08.09,0,.16.03.23.07.12,0,.24-.02.35-.02.12,0,.24-.05.34-.14-.02-.03-.04-.06-.05-.09,0-.04-.01-.09-.02-.13Z"/>
        <path class="cls-5" d="M196.62,200.57c-2.78-1.09-5.74-.95-8.67-.95-2.68,0-5.33-.29-7.92-.95-4.6-1.16-8.94-3.5-12.06-7.1-.03-.01-.07-.01-.09-.03-.19-.12-.37-.27-.53-.43-.09-.09-.16-.19-.24-.29-.01,0-.03,0-.04,0-.05.01-.1.03-.14.05-.08.05-.15.11-.23.16-.28.22-.56.47-.79.75-.04.05-.07.11-.1.16.04.06.08.12.12.19.06.1.13.21.2.31.02.02.03.04.05.07,0,0,0,0,0,0,.04.05.08.1.13.15.03.03.04.07.06.1,3.16,3.65,7.37,6.16,12.02,7.53,2.64.78,5.4,1.2,8.14,1.3,1.47.05,2.95,0,4.41.04.06-.02.13-.04.2-.04,1.12,0,2.18-.03,3.27-.3.53-.13,1.06-.27,1.6-.35.32-.05.64-.08.95-.15-.09-.09-.21-.17-.35-.23Z"/>
        <path class="cls-5" d="M213.65,195.86c-3.87-1.67-7.9-1.68-11.97-1.3-.07.55-.2,1.09-.35,1.63-.04.14-.07.27-.11.41,3.99-.42,8-.54,11.77,1.14,3.06,1.36,5.67,3.5,7.98,5.9.13-.04.26-.06.39-.1.52-.18,1.05-.29,1.6-.34,0,0,0,0,0,0,.08-.04.16-.07.25-.1-2.72-2.95-5.84-5.64-9.55-7.24Z"/>
        <path class="cls-5" d="M231.58,193.2c-.02.16-.06.32-.12.47-.03.07-.05.13-.08.2-.02.04-.03.07-.05.11,0,0,0,0,0,.01,0,0-.01.03-.01.03,0,.02-.02.04-.03.06-.02.04-.03.08-.04.12-.06.18-.14.35-.2.53-.03.09-.06.17-.08.26,0,.01,0,.03,0,.04,0,.02,0,.04,0,.06,8.26,2.51,16.66.5,24.59-2.44.03-.73.14-1.45.17-2.18-7.77,2.97-16.03,5.13-24.15,2.71Z"/>
        <path class="cls-5" d="M263.91,172.53c-.02-.07-.05-.14-.07-.21-.08-.17-.17-.35-.2-.54-.04-.09-.09-.19-.13-.28-.05-.11-.07-.23-.09-.34-.05-.09-.11-.19-.15-.29-2.05-.01-4.14.18-6.13.68-.81.21-1.67.55-2.36,1.06,0,.02,0,.03,0,.05h0s.02.05.03.08c0,0,0,0,0,0,0,.01,0,.02,0,.03.03.09.08.17.1.26.03.12.07.23.11.35.05.15.08.3.11.45.06.21.13.43.21.64.04.11.08.23.12.34.14-.33.38-.56.76-.78.55-.32,1.17-.5,1.81-.64,1.81-.39,3.65-.55,5.5-.52.19,0,.33-.05.47-.12-.04-.07-.07-.13-.1-.21Z"/>
        <path class="cls-5" d="M269.75,121.83c0-.14.05-.16.02-.85,0-.15-.05-.31-.03-.46-.33.01-.64.19-.86.48-1.42,1.84-3.07,3.51-4.88,4.98-.87.71-1.79,1.3-2.92,1.5-.99.17-1.98-.04-2.98-.14.05.24.09.54.14.82.09.56.08.61.22,1.34.98.08,2.06.1,3.04-.07,1.36-.23,2.5-.93,3.57-1.77,1.7-1.33,3.31-2.89,4.69-4.54-.02-.44-.01-.71-.02-1.29Z"/>
        <path class="cls-2" d="M260.44,73.34c-.04-.07-.08-.14-.12-.22-2.09-3.23-7.29-.23-5.18,3.03-.23-.35-.48-.84-.8-1.14.24-.5.39-1.03.43-1.61.18-3.16-3.04-5.22-5.38-6.7-1.25-.8-2.57-1.46-3.91-2.05.7-1.1.77-2.54-.45-3.53-.98-.8-1.97-1.41-2.99-1.89-.18-.61-.56-1.18-1.22-1.63-1.72-1.16-3.42-2.23-5.21-3.14.02-.93-.39-1.88-1.42-2.53-3.32-2.09-6.42-4.38-9.41-6.9-.11-.54-.36-1.04-.8-1.41-2.59-2.12-5.27-4.07-8.05-5.86.04-1.01-.39-2.01-1.45-2.55-8.87-4.52-17.08-10.1-25.23-15.79-2.88-3.19-8.47-5.56-10.76-7.56-1.09-.96-2.4-1-3.41-.49.02-.29.04-.58.05-.87.24-3.86-5.76-3.84-6,0l-.55,8.9c-.13,2.19,2.68,3.85,4.51,2.59,1.18-.81,2.43-1.12,3.86-.72.79.22,3.76,1.71,3.48,2.76-.14.51-2.54,1.54-3.04,2.17-1.81,2.31-.87,4.67.71,6.81,4.46,6.02,11.67,8.02,18.84,7.84,3.01-.08,14.55-1.08,11.44,4.54-1.32,2.38-3.78,3.04-2.88,6.42.89,3.34,4.91,3.82,7.76,4.59,3.26.89,8.4.94,11.96,2.41-.79,1-1.57,2-2.36,3-1.59,2.02-.65,4.99,2.12,5.12,6.55.3,13.49.75,19.44,3.79.83.42,2.94,1.39,3.9,2.28-.21.08-.46.44-.82.74-1.19.99-1.41,3.01-.96,4.36.89,2.68,4.13,3.57,7.34,3.19,1.73-3.09,4.33-5.35,6.58-7.99Z"/>
        <path class="cls-7" d="M194.4,24.32c9.3,5.94,18.45,12,27.1,18.86,8.45,6.7,16.64,13.76,24.1,21.57,3.95,4.14,8.36,8.07,11.74,12.67,9.43-7.75,12.91-19.09,9.63-30.3-3.85-13.2-15.44-24.49-29.63-32.83-14.35-8.44-34.09-17.62-51.16-11.96-1.15.38-2.26.82-3.33,1.31-4.28.78-8.38,2.1-12.14,4-.61.31-1.13.65-1.6,1.01,8.88,4.37,16.96,10.36,25.27,15.67Z"/>
        <path class="cls-9" d="M178.51,16.11c-.27.01-.5.22-.5.5v3.13c0,.26.23.51.5.5.27-.01.5-.22.5-.5v-3.13c0-.26-.23-.51-.5-.5Z"/>
        <path class="cls-9" d="M207,39.01c-.55-.74-1.14-1.79-1.04-2.75.09-.94.75-1.85.15-2.76-.35-.53-1.22-.03-.86.5.23.34.08.75-.03,1.11-.15.49-.3.99-.26,1.51.08,1.04.57,2.06,1.18,2.89.16.22.43.33.68.18.21-.12.34-.47.18-.68Z"/>
        <path class="cls-9" d="M225.18,49.09v8.29c0,.64,1,.64,1,0v-8.29c0-.64-1-.64-1,0Z"/>
        <path class="cls-9" d="M249.46,68.71c-.27,0-.5.23-.5.5v3.4c0,.27.23.5.5.5s.5-.23.5-.5v-3.4c0-.27-.23-.5-.5-.5Z"/>
        <path class="cls-14" d="M191.68,38.56c-2.99-.6-5.78-1.69-8.15-3.8-2.8-2.51-4.55-5.67-4.99-9.36-.51.3-.97.6-1.16.84-1.81,2.31-.87,4.67.71,6.81,4.43,5.97,11.55,7.99,18.65,7.84-1.76-.63-3.47-1.4-5.07-2.33Z"/>
        <path class="cls-14" d="M178.38,21.95c.01-.48.04-.95.11-1.41-.2,0-.4,0-.59-.01-3.51-.21-6.7-1.09-9.18-3.46l-.14,2.36c-.13,2.19,2.68,3.85,4.51,2.59,1.18-.81,2.43-1.12,3.86-.72.28.08.85.32,1.44.65Z"/>
        <path class="cls-14" d="M207.64,50.65c-.35-1.15-.57-2.29-.64-3.44-1.12,1.23-2.15,2.26-1.52,4.63.66,2.47,3.04,3.38,5.39,3.99-1.46-1.39-2.6-3.13-3.23-5.19Z"/>
        <path class="cls-14" d="M247.96,76.72c-.1-.08-.18-.17-.26-.27-.36-.47-.72-.94-1.09-1.41-.39.99-.4,2.19-.1,3.1.89,2.68,4.13,3.57,7.34,3.19.3-.54.64-1.05,1-1.55-2.58-.15-5.03-1.3-6.89-3.06Z"/>
        <path class="cls-14" d="M223.61,60.87c-.26.33-.51.65-.77.98-1.59,2.02-.65,4.99,2.12,5.12,1.08.05,2.16.1,3.25.17-2.15-1.65-3.72-3.81-4.61-6.27Z"/>
        <path class="cls-3" d="M150.72,29.31c.86-2.94-3.31-4.62-4.59-2.21-.47.26-.87.7-1.1,1.36-3.47,10.08-11.75,16.87-19.78,23.36-2.09,1.69-.27,4.74,2.13,4.44,1.27-.16,2.5-.53,3.68-1.03-.38,1.1-.78,2.19-1.2,3.28-.77,1.99,1.57,4.21,3.5,3.14,5.08-2.83,7.56-7.96,9.99-13.01,3-6.22,5.42-12.69,7.36-19.31Z"/>
        <path class="cls-3" d="M145.55,27.87c-.86-2.94,3.31-4.62,4.59-2.21.47.26.87.7,1.1,1.36,3.47,10.08,11.75,16.87,19.78,23.36,2.09,1.69.27,4.74-2.13,4.44-1.27-.16-2.5-.53-3.68-1.03.38,1.1.78,2.19,1.2,3.28.77,1.99-1.57,4.21-3.5,3.14-5.08-2.83-7.56-7.96-9.99-13.01-3-6.22-5.42-12.69-7.36-19.31Z"/>
        <path class="cls-6" d="M171.62,1.22c-.55-1.31-2.39-1.48-3.48-.91-8.83,4.57-16.11,11.5-21.17,20.05-.73,1.24-.3,2.43.56,3.13-.08.19-.15.38-.21.57-.96,3.32,3.92,6.46,5.95,8.41,2.99,2.88,6.08,5.99,9.95,7.64,2.81,1.2,6.89,2.11,8.53-1.22,1.73-3.51.84-7.98.32-11.65-.69-4.93,0-9.27.7-14.15.6-4.15.49-7.98-1.16-11.87Z"/>
        <path class="cls-6" d="M124.97,2.05c.55-1.31,2.39-1.48,3.48-.91,8.83,4.57,16.11,11.5,21.17,20.05.73,1.24.3,2.43-.56,3.13.08.19.15.38.21.57.96,3.32-3.92,6.46-5.95,8.41-2.99,2.88-6.08,5.99-9.95,7.64-2.81,1.2-6.89,2.11-8.53-1.22-1.73-3.51-.84-7.98-.32-11.65.69-4.93,0-9.27-.7-14.15-.6-4.15-.49-7.98,1.16-11.87Z"/>
        <path class="cls-4" d="M165.42,17.96c-4.72-.53-9.12,1.7-12.75,4.51-.32.25.13.7.45.45.04-.03.08-.06.12-.09-.02.19.14.42.4.39,1.39-.2,2.84.15,3.99.97.61.43,1.13.97,1.71,1.44.56.45,1.14.86,1.75,1.23.35.21.67-.34.32-.55-.7-.43-1.36-.9-1.99-1.44-.58-.5-1.13-1.04-1.79-1.44-1.22-.75-2.66-1.01-4.08-.83,3.42-2.55,7.5-4.48,11.87-3.99.41.05.4-.59,0-.64Z"/>
        <path class="cls-4" d="M142.77,19.89c-1.56-1.96-4.14-2.42-6.49-2.64-2.5-.24-5.09-.42-7.45.59-.38.16-.05.71.32.55,2.19-.94,4.66-.73,6.98-.52,2.24.21,4.7.59,6.19,2.47.25.32.7-.13.45-.45Z"/>
        <path class="cls-4" d="M142.14,22.57c-1.24,0-2.47.28-3.59.81-.55.26-1.06.58-1.54.95-.54.42-.96.97-1.51,1.38-.32.24,0,.8.32.55.5-.37.89-.86,1.36-1.25.46-.39.97-.71,1.5-.98,1.07-.54,2.26-.81,3.46-.81.41,0,.41-.64,0-.64Z"/>
        <path class="cls-15" d="M153.2,23.43c-.06-1.65-.02-3.86-.95-5.28-1.08-1.65-3.11-1.44-4.83-1.45-1.5,0-2.99.26-3.65,1.54-.99.27-1.85,1.04-1.93,2.33-.12,1.81-.05,3.67.34,5.45.49,2.25,1.93,2.9,4.08,2.9,1.65,0,3.91.4,5.39-.45,1.8-1.03,1.63-3.25,1.56-5.05Z"/>
        <path class="cls-3" d="M249.97,11.86c-.03-.6-.91-.64-.99-.12-.07.08-.12.18-.12.32,0,2.09-1.1,3.87-2.17,5.58-.28.45.25.89.68.69.23-.11.43-.26.62-.42,0,.23,0,.45-.01.68-.02.42.56.68.85.36.76-.85.89-1.95,1.02-3.04.16-1.34.19-2.69.13-4.04Z"/>
        <path class="cls-3" d="M248.92,11.92c-.35-.49.32-1.07.71-.7.1.02.2.07.29.18,1.28,1.64,3.25,2.37,5.15,3.06.49.18.35.86-.11.96-.25.05-.5.06-.75.04.14.18.28.36.43.53.27.32-.02.88-.45.8-1.12-.2-1.91-.99-2.68-1.77-.95-.96-1.81-2-2.59-3.1Z"/>
        <path class="cls-6" d="M252.05,5.33c-.19-.21-.54-.12-.7.05-1.34,1.41-2.25,3.15-2.64,5.06-.06.28.1.47.3.54,0,.04,0,.08,0,.12.03.68,1.14.94,1.64,1.18.74.34,1.51.72,2.33.78.6.04,1.41-.05,1.5-.77.1-.76-.35-1.53-.68-2.18-.44-.87-.59-1.71-.77-2.66-.15-.81-.42-1.51-.97-2.12Z"/>
        <path class="cls-6" d="M243.47,8.46c.02-.28.35-.43.59-.39,1.93.28,3.71,1.1,5.19,2.36.21.18.21.43.1.62.03.03.05.06.08.09.39.55-.31,1.44-.56,1.93-.37.72-.74,1.5-1.35,2.05-.44.4-1.14.83-1.66.32-.54-.54-.66-1.42-.8-2.14-.19-.96-.59-1.72-1.03-2.57-.37-.73-.6-1.44-.54-2.27Z"/>
        <path class="cls-4" d="M251.97,8.82c-.91.2-1.58.9-2.07,1.65-.04.07.07.12.11.05,0,0,.01-.02.02-.02,0,.04.05.07.1.05.25-.13.54-.15.8-.08.14.04.27.11.41.16.13.05.27.09.4.12.08.02.1-.1.02-.12-.16-.03-.31-.08-.46-.14-.14-.06-.28-.12-.42-.15-.27-.06-.56-.02-.81.11.47-.69,1.1-1.31,1.94-1.5.08-.02.04-.13-.04-.12Z"/>
        <path class="cls-4" d="M247.9,10.63c-.41-.26-.92-.18-1.37-.07-.48.12-.97.25-1.34.58-.06.05.04.13.09.08.35-.31.82-.43,1.26-.54.43-.1.91-.19,1.3.06.07.04.12-.07.05-.11Z"/>
        <path class="cls-4" d="M247.95,11.16c-.23.08-.44.21-.61.38-.09.08-.16.17-.22.27-.07.11-.12.24-.19.35-.04.07.05.15.09.08.07-.1.11-.21.17-.32.06-.1.13-.19.22-.28.16-.17.37-.29.59-.37.08-.03.04-.14-.04-.12Z"/>
        <path class="cls-15" d="M250.05,10.62c-.12-.3-.25-.71-.51-.92-.31-.24-.67-.07-.99.04-.28.09-.54.24-.58.52-.17.11-.28.31-.21.55.09.34.23.68.41.99.23.38.54.41.94.28.31-.11.75-.17.97-.43.27-.31.09-.71-.03-1.03Z"/>
      </g>
    </g>
  </g>
</svg>