<?xml version="1.0" encoding="UTF-8"?>
<svg id="Layer_2" data-name="Layer 2" xmlns="http://www.w3.org/2000/svg" viewBox="0 0 142.78 63.29">
  <defs>
    <style>
      .cls-1 {
        fill: #003aba;
      }

      .cls-2 {
        fill: #00c545;
      }

      .cls-3 {
        fill: #ffc545;
      }

      .cls-4 {
        fill: #ffd261;
      }

      .cls-5 {
        fill: #1f7537;
      }

      .cls-6 {
        fill: #00091e;
      }

      .cls-7 {
        fill: #fff6e1;
      }

      .cls-8 {
        fill: #002d9e;
      }
    </style>
  </defs>
  <g id="flower_crown" data-name="flower crown">
    <g>
      <g>
        <path class="cls-2" d="M94.21,42.87c.92.76,2.04,1.27,3.15,1.71.49.19,1.2-.05,1.35-.6.3-1.09.51-2.19.41-3.33-.11-1.19-.66-2.27-1.38-3.21-1.22-1.6-3.06-2.82-5.14-2.62-.1,0-.19.03-.27.06-.36.03-.7.19-.93.53-.37.52-.24,1.15-.15,1.73.16,1.01.43,2.03.86,2.96.49,1.07,1.2,2.02,2.11,2.77Z"/>
        <path class="cls-5" d="M93.85,40.57c.14.05.27-.02.34-.15.23-.46.35-.96.39-1.48.42.63.82,1.27,1.21,1.91,0,0,0,.02.02.03,0,0,0,0,0,0,.55.92,1.07,1.85,1.55,2.81.15.3.63.1.48-.2-.33-.66-.68-1.31-1.05-1.96.47.18.98.23,1.48.12.14-.03.24-.15.22-.3-.02-.13-.16-.25-.3-.22-.18.04-.38.06-.54.05-.09,0-.19-.01-.28-.03-.05,0-.1-.02-.15-.03.02,0-.01,0-.02,0-.03,0-.05-.02-.08-.02-.09-.03-.18-.06-.27-.1-.1-.04-.14-.07-.22-.11-.08-.05-.17-.11-.24-.17-.04-.03-.07-.06-.11-.09,0,0-.02-.02-.03-.03,0,0-.02-.02-.03-.03-1.07-1.79-2.26-3.51-3.57-5.14-.21-.26-.62.06-.41.33.62.77,1.21,1.57,1.77,2.38,0,0,0,.01,0,.02.01.09.03.19.03.28,0,.04,0,.09,0,.13,0,.03,0,.05,0,.08,0-.04,0,0,0,.02,0,.18-.02.37-.04.55-.01.09-.03.18-.05.26,0,.03,0-.02,0,.02,0,.02-.01.05-.02.07-.01.04-.02.08-.04.12-.06.18-.13.35-.21.52-.06.12.02.3.15.34Z"/>
      </g>
      <g>
        <path class="cls-2" d="M64.4,2.87c-1.44-1.21-3.2-2.04-4.93-2.76-.76-.32-1.9.06-2.15.91-.5,1.71-.85,3.45-.71,5.24.15,1.88,1,3.59,2.11,5.09,1.9,2.55,4.77,4.52,8.06,4.24.16-.01.3-.05.43-.09.57-.04,1.11-.29,1.49-.81.59-.81.4-1.81.27-2.73-.23-1.6-.63-3.21-1.29-4.69-.76-1.7-1.85-3.21-3.27-4.41Z"/>
        <path class="cls-5" d="M64.92,6.5c-.23-.08-.43.02-.54.23-.37.72-.58,1.51-.64,2.32-.65-1-1.27-2.02-1.87-3.05,0-.01-.01-.03-.02-.05,0,0,0,0,0,0-.85-1.46-1.65-2.94-2.39-4.46-.23-.48-1-.16-.76.31.51,1.05,1.05,2.08,1.61,3.11-.73-.29-1.54-.39-2.33-.22-.22.05-.39.23-.36.46.03.21.24.4.46.36.29-.06.6-.09.85-.07.15,0,.3.03.44.05.08.01.16.03.24.05-.04,0,.02,0,.03,0,.04.01.09.02.13.04.14.05.28.1.42.16.15.07.22.11.34.18.13.08.26.17.38.27.06.05.11.1.17.15,0,0,.04.03.04.04.02.02.03.03.04.05,1.65,2.85,3.49,5.58,5.52,8.18.33.42.98-.09.65-.5-.96-1.23-1.87-2.49-2.75-3.78,0,0,0-.02,0-.03-.02-.15-.04-.29-.05-.44,0-.07,0-.13,0-.2,0-.04,0-.08,0-.12,0,.06,0-.02,0-.04,0-.29.03-.58.08-.87.02-.14.05-.28.09-.42,0-.04,0,.03,0-.04.01-.04.02-.08.03-.12.02-.06.04-.13.06-.19.09-.28.21-.56.35-.82.1-.19-.03-.47-.23-.54Z"/>
      </g>
      <g>
        <path class="cls-2" d="M128.6,31.22c1.72-1.5,3.03-3.45,4.21-5.39.52-.86.28-2.29-.7-2.74-1.96-.91-3.97-1.66-6.15-1.82-2.28-.17-4.49.53-6.49,1.59-3.4,1.8-6.29,4.88-6.56,8.87-.01.19,0,.36.03.53-.05.7.15,1.38.7,1.93.86.85,2.1.81,3.22.82,1.95.02,3.96-.17,5.85-.68,2.17-.6,4.18-1.62,5.88-3.11Z"/>
        <path class="cls-5" d="M124.16,31.18c.14-.26.05-.52-.17-.69-.79-.58-1.71-.97-2.66-1.19,1.32-.59,2.65-1.14,3.99-1.67.02,0,.04,0,.06-.02,0,0,0,0,0,0,1.9-.75,3.83-1.43,5.79-2.04.61-.19.38-1.16-.23-.97-1.35.42-2.69.87-4.02,1.36.49-.82.75-1.78.7-2.75-.01-.27-.2-.5-.49-.51-.25,0-.53.22-.51.49.02.36,0,.73-.07,1.03-.04.18-.09.35-.14.52-.03.09-.07.19-.1.28.02-.05,0,.02-.01.03-.02.05-.05.1-.07.15-.08.16-.17.32-.27.47-.11.17-.17.25-.28.37-.12.14-.26.28-.4.41-.07.06-.14.12-.21.17-.01,0-.05.04-.06.04-.02.02-.04.03-.06.04-3.71,1.45-7.33,3.16-10.81,5.1-.56.31-.08,1.19.48.87,1.65-.92,3.33-1.78,5.04-2.6.01,0,.02,0,.03,0,.18,0,.36,0,.54.02.08,0,.16.02.24.03.05,0,.1.01.15.02-.07,0,.02,0,.04,0,.35.06.69.14,1.02.26.16.05.32.12.48.18.05.02-.04-.02.04.02.04.02.09.04.13.06.07.03.15.07.22.11.32.17.63.36.92.57.21.16.57.05.69-.17Z"/>
      </g>
      <g>
        <path class="cls-2" d="M18.84,30.58c-1.48.12-2.91.63-4.27,1.19-.6.25-1.03,1.08-.69,1.7.67,1.23,1.43,2.39,2.51,3.32,1.13.97,2.55,1.45,4,1.67,2.47.37,5.16-.13,6.84-2.1.08-.09.14-.19.19-.29.3-.34.45-.78.38-1.28-.12-.77-.78-1.23-1.36-1.67-1.01-.76-2.13-1.44-3.32-1.9-1.36-.53-2.81-.76-4.26-.64Z"/>
        <path class="cls-5" d="M21.14,32.32c-.17.08-.23.25-.17.42.19.61.52,1.16.93,1.65-.91-.2-1.82-.42-2.73-.66-.01,0-.02-.01-.04-.01,0,0,0,0,0,0-1.28-.34-2.55-.73-3.8-1.16-.39-.14-.65.46-.25.6.87.3,1.74.58,2.62.84-.57.24-1.07.64-1.42,1.17-.1.15-.09.34.06.45.13.1.36.09.45-.06.13-.19.28-.38.43-.51.09-.08.18-.15.28-.22.05-.04.11-.07.16-.1-.03.02.01,0,.02-.01.03-.02.06-.03.09-.05.1-.05.21-.1.32-.14.12-.04.18-.06.29-.09.12-.03.24-.05.36-.06.06,0,.12,0,.17-.01,0,0,.04,0,.05,0,.02,0,.03,0,.05,0,2.5.67,5.04,1.18,7.61,1.5.41.05.5-.59.08-.64-1.22-.15-2.43-.35-3.63-.58,0,0,0-.01-.01-.02-.09-.07-.18-.14-.27-.22-.04-.04-.08-.07-.12-.11-.02-.02-.05-.04-.07-.07.03.03,0,0-.02-.02-.16-.16-.3-.34-.44-.53-.06-.09-.12-.18-.18-.28-.02-.03.01.02-.01-.02-.02-.03-.03-.06-.05-.08-.03-.05-.05-.09-.07-.14-.1-.21-.19-.43-.26-.65-.05-.16-.28-.24-.42-.17Z"/>
      </g>
      <g>
        <g>
          <circle class="cls-8" cx="50.91" cy="9.72" r="4.74"/>
          <circle class="cls-8" cx="59.26" cy="17.19" r="4.74"/>
          <circle class="cls-8" cx="52.97" cy="21.01" r="4.74"/>
          <circle class="cls-8" cx="58.02" cy="10.46" r="4.74"/>
          <circle class="cls-8" cx="47.81" cy="15.84" r="4.74"/>
          <circle class="cls-1" cx="54.72" cy="10.79" r="2.98"/>
          <circle class="cls-1" cx="49.91" cy="13.39" r="2.98"/>
          <circle class="cls-1" cx="51.55" cy="18.19" r="2.98"/>
          <circle class="cls-1" cx="56.07" cy="18.12" r="2.98"/>
          <circle class="cls-1" cx="57.68" cy="14.45" r="2.98"/>
          <circle class="cls-6" cx="53.94" cy="14.72" r="3.73"/>
        </g>
        <g>
          <circle class="cls-4" cx="33.79" cy="17.85" r="5.79"/>
          <circle class="cls-4" cx="44" cy="26.99" r="5.79"/>
          <circle class="cls-4" cx="36.32" cy="31.66" r="5.79"/>
          <circle class="cls-4" cx="42.49" cy="18.76" r="5.79"/>
          <circle class="cls-4" cx="30.01" cy="25.34" r="5.79"/>
          <circle class="cls-3" cx="38.46" cy="19.17" r="3.64"/>
          <circle class="cls-3" cx="32.57" cy="22.34" r="3.64"/>
          <circle class="cls-3" cx="34.58" cy="28.2" r="3.64"/>
          <circle class="cls-3" cx="40.1" cy="28.12" r="3.64"/>
          <circle class="cls-3" cx="42.07" cy="23.64" r="3.64"/>
          <circle class="cls-7" cx="37.5" cy="23.97" r="4.55"/>
        </g>
        <g>
          <circle class="cls-4" cx="70.78" cy="10.44" r="5.79"/>
          <circle class="cls-4" cx="80.98" cy="19.57" r="5.79"/>
          <circle class="cls-4" cx="73.3" cy="24.25" r="5.79"/>
          <circle class="cls-4" cx="79.48" cy="11.35" r="5.79"/>
          <circle class="cls-4" cx="66.99" cy="17.93" r="5.79"/>
          <circle class="cls-3" cx="75.44" cy="11.75" r="3.64"/>
          <circle class="cls-3" cx="69.56" cy="14.93" r="3.64"/>
          <circle class="cls-3" cx="71.56" cy="20.79" r="3.64"/>
          <circle class="cls-3" cx="77.09" cy="20.71" r="3.64"/>
          <circle class="cls-3" cx="79.05" cy="16.23" r="3.64"/>
          <circle class="cls-7" cx="74.48" cy="16.56" r="4.55"/>
        </g>
        <g>
          <circle class="cls-8" cx="54.63" cy="17.92" r="7.53"/>
          <circle class="cls-8" cx="67.91" cy="29.8" r="7.53"/>
          <circle class="cls-8" cx="57.92" cy="35.88" r="7.53"/>
          <circle class="cls-8" cx="65.95" cy="19.1" r="7.53"/>
          <circle class="cls-8" cx="49.71" cy="27.66" r="7.53"/>
          <circle class="cls-1" cx="60.71" cy="19.63" r="4.73"/>
          <circle class="cls-1" cx="53.05" cy="23.76" r="4.73"/>
          <circle class="cls-1" cx="55.65" cy="31.38" r="4.73"/>
          <circle class="cls-1" cx="62.84" cy="31.28" r="4.73"/>
          <circle class="cls-1" cx="65.4" cy="25.45" r="4.73"/>
          <circle class="cls-6" cx="59.46" cy="25.88" r="5.92"/>
        </g>
        <g>
          <circle class="cls-8" cx="29.92" cy="35.32" r="4.74"/>
          <circle class="cls-8" cx="38.27" cy="42.79" r="4.74"/>
          <circle class="cls-8" cx="31.99" cy="46.61" r="4.74"/>
          <circle class="cls-8" cx="37.04" cy="36.06" r="4.74"/>
          <circle class="cls-8" cx="26.83" cy="41.44" r="4.74"/>
          <circle class="cls-1" cx="33.74" cy="36.39" r="2.98"/>
          <circle class="cls-1" cx="28.93" cy="38.99" r="2.98"/>
          <circle class="cls-1" cx="30.57" cy="43.79" r="2.98"/>
          <circle class="cls-1" cx="35.09" cy="43.72" r="2.98"/>
          <circle class="cls-1" cx="36.7" cy="40.05" r="2.98"/>
          <circle class="cls-6" cx="32.96" cy="40.32" r="3.73"/>
        </g>
        <g>
          <circle class="cls-4" cx="10.89" cy="41" r="6.58"/>
          <circle class="cls-4" cx="22.49" cy="51.39" r="6.58"/>
          <circle class="cls-4" cx="13.76" cy="56.71" r="6.58"/>
          <circle class="cls-4" cx="20.78" cy="42.04" r="6.58"/>
          <circle class="cls-4" cx="6.58" cy="49.52" r="6.58"/>
          <circle class="cls-3" cx="16.2" cy="42.5" r="4.14"/>
          <circle class="cls-3" cx="9.5" cy="46.11" r="4.14"/>
          <circle class="cls-3" cx="11.78" cy="52.78" r="4.14"/>
          <circle class="cls-3" cx="18.06" cy="52.68" r="4.14"/>
          <circle class="cls-3" cx="20.3" cy="47.59" r="4.14"/>
          <circle class="cls-7" cx="15.1" cy="47.96" r="5.18"/>
        </g>
        <g>
          <circle class="cls-8" cx="106.67" cy="17.34" r="5.79"/>
          <circle class="cls-8" cx="97.19" cy="27.22" r="5.79"/>
          <circle class="cls-8" cx="105.19" cy="31.3" r="5.79"/>
          <circle class="cls-8" cx="98.07" cy="18.9" r="5.79"/>
          <circle class="cls-8" cx="111.01" cy="24.52" r="5.79"/>
          <circle class="cls-1" cx="102.12" cy="19" r="3.64"/>
          <circle class="cls-1" cx="108.23" cy="21.73" r="3.64"/>
          <circle class="cls-1" cx="106.67" cy="27.72" r="3.64"/>
          <circle class="cls-1" cx="101.16" cy="28.06" r="3.64"/>
          <circle class="cls-1" cx="98.86" cy="23.74" r="3.64"/>
          <circle class="cls-6" cx="103.44" cy="23.72" r="4.55"/>
        </g>
        <g>
          <circle class="cls-4" cx="85.89" cy="18.98" r="7.53"/>
          <circle class="cls-4" cx="73.55" cy="31.83" r="7.53"/>
          <circle class="cls-4" cx="83.97" cy="37.13" r="7.53"/>
          <circle class="cls-4" cx="74.7" cy="21.01" r="7.53"/>
          <circle class="cls-4" cx="91.54" cy="28.32" r="7.53"/>
          <circle class="cls-3" cx="79.97" cy="21.14" r="4.73"/>
          <circle class="cls-3" cx="87.92" cy="24.68" r="4.73"/>
          <circle class="cls-3" cx="85.89" cy="32.48" r="4.73"/>
          <circle class="cls-3" cx="78.72" cy="32.92" r="4.73"/>
          <circle class="cls-3" cx="75.73" cy="27.3" r="4.73"/>
          <circle class="cls-7" cx="81.69" cy="27.28" r="5.92"/>
        </g>
        <g>
          <circle class="cls-4" cx="111.85" cy="34.46" r="4.74"/>
          <circle class="cls-4" cx="104.08" cy="42.55" r="4.74"/>
          <circle class="cls-4" cx="110.64" cy="45.88" r="4.74"/>
          <circle class="cls-4" cx="104.81" cy="35.74" r="4.74"/>
          <circle class="cls-4" cx="115.4" cy="40.34" r="4.74"/>
          <circle class="cls-3" cx="108.12" cy="35.82" r="2.98"/>
          <circle class="cls-3" cx="113.12" cy="38.05" r="2.98"/>
          <circle class="cls-3" cx="111.85" cy="42.96" r="2.98"/>
          <circle class="cls-3" cx="107.33" cy="43.23" r="2.98"/>
          <circle class="cls-3" cx="105.45" cy="39.7" r="2.98"/>
          <circle class="cls-7" cx="109.2" cy="39.68" r="3.73"/>
        </g>
        <g>
          <circle class="cls-8" cx="131.26" cy="38.7" r="6.58"/>
          <circle class="cls-8" cx="120.47" cy="49.93" r="6.58"/>
          <circle class="cls-8" cx="129.58" cy="54.57" r="6.58"/>
          <circle class="cls-8" cx="121.47" cy="40.48" r="6.58"/>
          <circle class="cls-8" cx="136.19" cy="46.87" r="6.58"/>
          <circle class="cls-1" cx="126.08" cy="40.59" r="4.14"/>
          <circle class="cls-1" cx="133.03" cy="43.69" r="4.14"/>
          <circle class="cls-1" cx="131.26" cy="50.51" r="4.14"/>
          <circle class="cls-1" cx="124.99" cy="50.89" r="4.14"/>
          <circle class="cls-1" cx="122.37" cy="45.97" r="4.14"/>
          <circle class="cls-6" cx="127.58" cy="45.95" r="5.18"/>
        </g>
      </g>
    </g>
  </g>
</svg>