<?xml version="1.0" encoding="UTF-8"?>
<svg id="Layer_2" data-name="Layer 2" xmlns="http://www.w3.org/2000/svg" viewBox="0 0 95.69 125.18">
  <defs>
    <style>
      .cls-1 {
        fill: #ad855e;
      }

      .cls-2 {
        fill: #ffe780;
      }

      .cls-3 {
        fill: #e8afc6;
      }

      .cls-4 {
        fill: #bde0f9;
      }

      .cls-5 {
        fill: #c9a279;
      }

      .cls-6 {
        fill: #fff;
      }

      .cls-7 {
        fill: #f4c9e4;
      }
    </style>
  </defs>
  <g id="ice_cream_hat" data-name="ice cream hat">
    <g id="Layer_4" data-name="Layer 4">
      <g>
        <path class="cls-5" d="M82.36,49.18c-.16-.55-.38-1.1-.68-1.67-.16-.3-.34-.59-.53-.87.75-3.26.04-6.53-3.08-9.17-.57-.48-1.18-.94-1.82-1.37.1-.82.11-1.67.17-2.39.8-10.55.99-21.13.59-31.7C76.97.92,76.12,0,75.01,0c-3.1-.01-5.4,2.03-7.21,4.34-2.2,2.82-4.24,5.77-6.45,8.59-4.05,5.18-8.3,10.18-12.73,15.03-2.02-.1-3.98,0-5.75.47-3.88,1.02-5.86,3.81-6.69,7.17-7.3,2.4-8.89,10.04-9.63,17.46-.38,3.79,3.38,5.05,6.16,3.86.72.71,1.59,1.31,2.55,1.82,1.76,2.1,5.16,2.87,9.14,2.88,7.2,3.8,17.22,4.61,24.37,4.77,9.85.22,13.99-5.36,14.32-14.81.03-.89-.25-1.71-.71-2.41Z"/>
        <path class="cls-1" d="M56.9,37.51c-2.94-1.21-6.76-1.41-9.89-1.85-3.21-.45-6.46-.2-9.69-.1-.62.02-.62.98,0,.96,3.22-.09,6.46-.36,9.66.1,3.05.44,6.55.98,9.58,1.64.69.15.9-.51.34-.74Z"/>
        <path class="cls-1" d="M64.93,39.64c-1.57-.71-3.23-1.17-4.94-1.38-.26-.03-.85-.01-.85.23,0,.28.22.37.48.4,1.54.18,3.59.83,4.99,1.47.24.11.67.22.81-.02.12-.21-.25-.59-.49-.7Z"/>
        <path class="cls-1" d="M79.67,45.45c-3.51-2.09-7.48-3.91-11.48-4.69-.6-.12-.79.71-.19.83,3.93.76,7.75,2.64,11.19,4.69.53.32,1.01-.51.48-.83Z"/>
        <path class="cls-1" d="M74.91,35.25c-1.86-1.32-3.73-2.53-5.81-3.47-1.98-.89-4-1.81-6.09-2.42-2.17-.63-4.44-1-6.67-1.36-2.28-.37-4.59-.6-6.9-.42-.64.05-.64,1.05,0,1,2.31-.18,4.6.05,6.88.42,2.14.36,4.34.71,6.42,1.32,2.08.61,4.1,1.51,6.06,2.42,2,.92,3.8,2.1,5.59,3.37.53.37,1.03-.49.5-.86Z"/>
        <path class="cls-1" d="M75.22,22.73c-1.77,2.3-3.84,4.89-6.56,6.02-1.1-1.69-2.11-3.45-2.95-5.28.73-.28,1.45-.61,2.12-1.02,1.8-1.07,3.29-2.56,4.85-3.94.53.83,1.06,1.65,1.57,2.48.34.55,1.2.04.86-.5-.55-.88-1.11-1.75-1.67-2.63.74-.62,1.51-1.2,2.35-1.68.56-.32.05-1.19-.5-.86-.85.49-1.63,1.08-2.37,1.71-.74-1.19-1.44-2.4-2.03-3.66-.21-.45-.39-.92-.56-1.38.98-.84,1.96-1.68,2.92-2.53.99-.88,1.9-1.83,2.36-3.1.22-.6-.74-.87-.96-.27-.42,1.16-1.35,2-2.25,2.79-.79.7-1.59,1.39-2.39,2.07-.38-1.35-.57-2.74-.59-4.14.27-.2.54-.39.81-.59.98-.73,1.94-1.48,2.89-2.26.21-.17.18-.53,0-.71-.21-.21-.5-.17-.71,0-.85.7-1.72,1.38-2.6,2.04-.12.09-.23.17-.35.26,0-.07,0-.15,0-.22.05-.64-.95-.64-1,0-.03.32-.02.65-.03.97-.37.27-.77.6-1.25.55-.27-.03-.5.25-.5.5,0,.29.23.47.5.5.46.05.88-.13,1.26-.36.07,1.42.3,2.82.73,4.18-.04.03-.08.07-.12.11-.98.83-2.01,1.69-3.26,2.08-.81.25-1.64.31-2.48.31-.11-.5-.86-.5-.96-.02-.19,0-.39-.02-.58-.03-.64-.03-.64.97,0,1,.2.01.41.02.62.03.21,2.69.94,5.27,1.97,7.74-1.93.57-3.98.7-5.97.35-.27-.05-.47.11-.56.31-.27-.88-.4-1.81-.38-2.74.01-.64-.99-.64-1,0-.05,2.32.76,4.58,2.23,6.37.17.21.53.18.71,0,.21-.21.17-.5,0-.71-.57-.69-1.01-1.48-1.33-2.3.03.01.05.03.08.03,2.21.38,4.49.24,6.62-.4.84,1.83,1.84,3.6,2.93,5.29-.57.15-1.15.24-1.78.25-.64,0-.64,1.01,0,1,.83-.01,1.61-.15,2.35-.38.21.31.41.61.63.92.36.52,1.23.03.86-.5-.18-.26-.35-.52-.53-.78,2.83-1.26,4.99-3.92,6.87-6.36.39-.51-.48-1.01-.86-.5ZM63.4,15.15c.9,0,1.8-.07,2.67-.34,1.32-.41,2.42-1.26,3.46-2.14.1.26.2.53.32.78.65,1.46,1.46,2.86,2.32,4.23-1.4,1.24-2.74,2.55-4.3,3.58-.8.53-1.66.95-2.55,1.29-1-2.36-1.7-4.83-1.91-7.4Z"/>
        <path class="cls-7" d="M86.78,68.45c-5.07-14.82-22.29-23.8-37.35-23.9-15.36-.09-34.39,10.03-38.96,25.39-1.61-.73-3.35-1.05-5.21-.64C2.35,69.94.08,72.45,0,75.47c-.04,1.75.61,3.5,1.73,4.86.03.32.07.64.15.96.49,2.16,2.14,3.73,4.37,4,1.62.2,2.94-.55,4.26-1.24-.03.78-.06,1.56-.09,2.34-.44.86-.88,1.76-1.1,2.68-.23.95-.03,1.99.84,2.49.11.24.3.45.55.57.79.38,1.62-.31,1.84-1.05.07-.24.08-.49.07-.74.08-.33.1-.7.11-1.04.02-.74.03-1.49.1-2.22.07-.77.2-1.55.47-2.28.07-.19.16-.36.25-.53.91,1.85,2.46,3.27,4.93,3.75,5.24,1.02,9.38-2.96,14.8-1.43,4.77,1.35,9.02,4.22,14.04,4.72,2.69.27,5.04-.23,7.55-1.17,3.63-1.36,5.28-1.68,9.09.15,4.1,1.98,9.01,2.3,13.05-.08,1.59-.94,2.3-3.21,3.54-3.98,1.18-.73,3.9.12,5.87.13.24.95.46,1.91.66,2.87.06,1.71.39,3.45.77,5.13.14,1.38.24,2.76.27,4.15.08,3.05-.09,6.11-.51,9.14-.14,1.03-.31,2.06-.47,3.1-.08.44-.14.89-.21,1.33-.18,1.38-.23,2.78-.56,4.14-.02.15-.04.3-.05.45-.15,1.55-.21,3.11-.12,4.67.06,1.05,0,2.71.83,3.51.53.51,1.23.42,1.71-.01.06-.03.13-.05.19-.11.12-.12.19-.31.24-.51.18-.41.26-.85.28-1.31.07-.3.14-.6.21-.9.4-1.88.71-3.77.92-5.68.43-3.8.48-7.64.16-11.45-.29-3.41-.99-6.7-1.73-10.02-.09-1.12-.2-2.24-.38-3.36-.21-1.32-.49-2.84-.43-4.28.06-.42.14-.83.25-1.24,1.9-.7,3.3-1.87,4.24-3.27,1.24-.86,2.23-2.17,2.71-3.93,1.61-5.82-3.26-10.15-8.6-10.31Z"/>
        <path class="cls-7" d="M11.38,95.93c-.05-.09-.12-.16-.19-.24-.05-.07-.08-.15-.13-.22-.1-.12-.24-.23-.38-.3-.14-.07-.31-.07-.45-.02-.2-.03-.41-.02-.61.05-.33.12-.62.36-.77.68-.02.03-.02.07-.03.11-.31.16-.48.54-.44.88.04.37.22.72.55.92.25.15.54.18.83.15.23.05.47.05.69-.01.33-.09.58-.31.74-.59.02-.02.05-.04.07-.07.33-.38.34-.91.11-1.34Z"/>
        <path class="cls-3" d="M25.54,74.44c-1.18-.54-2.38-1.09-3.65-1.41-.61-.15-1.24-.23-1.87-.27-.67-.04-1.33-.06-1.93-.41-.44-.26-.82-.61-1.28-.84-.51-.25-1.04-.3-1.61-.24-.61.07-1.23.26-1.84.06-.59-.2-1.04-.65-1.25-1.23-.21-.6-1.18-.34-.96.27.35,1.02,1.2,1.82,2.28,2.01.64.11,1.24-.06,1.87-.12.75-.08,1.24.23,1.83.65.49.35.99.62,1.59.73.64.12,1.3.09,1.94.17,1.54.19,2.98.85,4.37,1.49.58.27,1.09-.6.5-.86Z"/>
        <path class="cls-3" d="M81.85,71.34c-2.72.83-5.46,1.67-8.21,2.41-1.36.37-2.63.53-3.89-.19-1.03-.59-1.97-.73-3.08-.26-1.13.48-2.1,1.26-3.22,1.77-1.23.56-2.56.93-3.9,1.11-2.75.35-5.38-.41-8.09-.75-3.11-.39-6.27-.2-9.33.51-.63.15-.36,1.11.27.96,2.78-.65,5.64-.84,8.47-.54,2.73.28,5.37,1.11,8.14.87,2.55-.22,4.83-1.11,7-2.44.48-.3.99-.62,1.55-.74.77-.18,1.29.18,1.94.53,1.07.58,2.25.6,3.42.38,1.53-.29,3.04-.82,4.54-1.26,1.55-.45,3.1-.91,4.65-1.38.61-.19.35-1.15-.27-.96Z"/>
        <path class="cls-4" d="M27.27,59.28c-1.48.12-2.86.68-4,1.62-.21.17-.18.53,0,.71.21.21.5.17.71,0,.92-.76,2.12-1.23,3.29-1.33.27-.02.5-.21.5-.5,0-.25-.23-.52-.5-.5Z"/>
        <path class="cls-4" d="M39.38,68.5c-1.42-.25-2.87-.32-4.31-.17-.27.03-.5.21-.5.5,0,.25.23.53.5.5,1.35-.13,2.71-.1,4.04.14.27.05.54-.07.62-.35.07-.24-.08-.57-.35-.62Z"/>
        <path class="cls-4" d="M52.25,53.52c-1.29.72-2.58,1.43-3.87,2.15-.56.31-.06,1.18.5.86,1.29-.72,2.58-1.43,3.87-2.15.56-.31.06-1.18-.5-.86Z"/>
        <path class="cls-4" d="M72.28,62.84c-.27,0-.5.23-.5.5v3.38c0,.27.23.5.5.5s.5-.23.5-.5v-3.38c0-.27-.23-.5-.5-.5Z"/>
        <path class="cls-4" d="M60.96,72.22c-1.02-.43-2.15-.61-3.25-.54-.26.02-.51.22-.5.5.01.26.22.52.5.5.27-.02.53-.02.8,0,.13,0,.27.02.4.03.11.01.15.02.29.04.52.09,1.02.24,1.5.44.24.1.56-.11.62-.35.07-.29-.09-.51-.35-.62Z"/>
        <path class="cls-2" d="M53.03,62.31c-.27.01-.5.22-.5.5v2.6c0,.26.23.51.5.5.27-.01.5-.22.5-.5v-2.6c0-.26-.23-.51-.5-.5Z"/>
        <path class="cls-2" d="M38.56,54.64c-.9-.75-2.19-.9-3.23-.34-.23.13-.32.46-.18.68.15.23.44.31.68.18.05-.02.09-.05.14-.07,0,0,0,0,0,0,.02,0,.05-.02.07-.03.1-.03.2-.06.3-.08.03,0,.05,0,.08-.01,0,0,0,0,0,0,.02,0,.13-.01.15-.01.11,0,.22,0,.33,0,0,0,.01,0,.02,0,.01,0,.03,0,.04,0,.05,0,.1.02.15.03.11.03.21.06.31.1.02,0,.04.02.06.03.05.02.09.05.14.07.05.03.1.06.15.09,0,0,0,0,.02.01.01.01.05.04.05.04.2.17.51.21.71,0,.17-.19.21-.53,0-.71Z"/>
        <path class="cls-2" d="M65.26,56.33h-3.9c-.64,0-.64,1,0,1h3.9c.64,0,.64-1,0-1Z"/>
        <path class="cls-2" d="M83.56,66.63s-.08-.09-.12-.14c-.07-.09-.12-.19-.17-.29-.04-.11-.07-.22-.09-.33-.01-.13-.02-.26,0-.38v.04c.01-.12,0-.24-.06-.36-.06-.1-.18-.2-.3-.23-.24-.06-.57.07-.62.35-.07.37-.06.75.06,1.11.12.35.31.68.58.94.19.18.52.2.71,0,.18-.19.2-.52,0-.71Z"/>
        <path class="cls-2" d="M21.8,68.84c-1.09-.14-2.2-.05-3.26.23-.25.07-.43.36-.35.62.08.26.34.42.62.35.98-.26,1.96-.33,3-.19.26.03.51-.25.5-.5-.01-.3-.22-.46-.5-.5Z"/>
        <path class="cls-6" d="M49.33,47.51c-.27.01-.5.22-.5.5v3.24c0,.26.23.51.5.5.27-.01.5-.22.5-.5v-3.24c0-.26-.23-.51-.5-.5Z"/>
        <path class="cls-6" d="M45.84,64.85s-.05-.07-.08-.1c-.06-.06-.14-.1-.22-.13-.39-.15-.77-.3-1.16-.45-.11-.04-.28,0-.39.05-.1.06-.2.18-.23.3-.03.13-.02.27.05.39.03.03.05.07.08.1.06.06.14.1.22.13.39.15.77.3,1.16.45.11.04.28,0,.39-.05.1-.06.2-.18.23-.3.03-.13.02-.27-.05-.39Z"/>
        <path class="cls-6" d="M31.04,71.35h-6.25c-.64,0-.64,1,0,1h6.25c.64,0,.64-1,0-1Z"/>
        <path class="cls-6" d="M73.17,56.08c-.27.01-.5.22-.5.5v2.55c0,.26.23.51.5.5.27-.01.5-.22.5-.5v-2.55c0-.26-.23-.51-.5-.5Z"/>
        <path class="cls-6" d="M18.33,62.69c-.02-.08-.07-.16-.13-.22l-.23-.23s-.1-.08-.16-.1c-.06-.03-.12-.05-.19-.04-.07,0-.13.01-.19.04-.06.02-.12.05-.16.1-.03.03-.05.07-.08.1-.05.08-.07.16-.07.25,0,.04.01.09.02.13.02.08.07.16.13.22l.23.23s.1.08.16.1c.06.03.12.05.19.04.07,0,.13-.01.19-.04.06-.02.12-.05.16-.1.03-.03.05-.07.08-.1.05-.08.07-.16.07-.25,0-.04-.01-.09-.02-.13Z"/>
      </g>
    </g>
  </g>
</svg>