<?xml version="1.0" encoding="UTF-8"?>
<svg id="Layer_2" data-name="Layer 2" xmlns="http://www.w3.org/2000/svg" viewBox="0 0 277.46 208.75">
  <defs>
    <style>
      .cls-1 {
        fill: #3f3f3f;
      }

      .cls-2 {
        fill: #2b2b2b;
      }

      .cls-3 {
        fill: #42180b;
      }

      .cls-4 {
        fill: #b5b5b5;
      }

      .cls-5 {
        fill: #efefef;
      }

      .cls-6 {
        fill: #576570;
      }

      .cls-7 {
        fill: #cecece;
      }

      .cls-8 {
        fill: #3d3d3d;
      }

      .cls-9 {
        fill: #fff;
      }

      .cls-10 {
        fill: #59200c;
      }

      .cls-11 {
        fill: #8c8c8c;
      }

      .cls-12 {
        fill: #4c4c4c;
      }
    </style>
  </defs>
  <g id="dapper_suit" data-name="dapper suit">
    <g>
      <path class="cls-8" d="M277.46,76.26s-.05-51.51-57.03-70.36c0,0-35.64-17.3-85.54,7.35,0,0-6.66,2.32-14.94,1.7.14,2.59-.1,5.26-.69,8.02-2.72,12.72-10.13,23.67-18,33.73-7.36,9.4-16.18,17.3-25.96,24.14-7.56,5.28-16.23,9.12-25.35,10.54-2.14.76-4.34.67-6.6.59-.19,0-.38.02-.57.02-5.82.06-11.62-1.16-16.87-3.6,2.31,23.79,9.24,49.7,27.26,62.04,0,0,17.05,11.71,49.13,16.8,32.08,5.09,37.17,10.18,37.17,10.18,0,0,29.53-6.62,58.56-23.93l65.69,13.24s-3.06-45.5,13.75-90.47Z"/>
      <g>
        <path class="cls-8" d="M200.85,186.37c3.07.03,6.11.1,9.14.22,1.91-13.78,4.41-31.08,4.41-31.08l-38.52-16.1s2.56,26.17,7.05,46.21c5.96.41,11.93.7,17.92.75Z"/>
        <path class="cls-8" d="M87.27,176.09c1.46-10.3,2.78-19.46,2.78-19.46l-38.52-16.1s1.55,15.83,4.35,32.3c10.49.74,20.95,1.91,31.39,3.27Z"/>
        <path class="cls-8" d="M105.17,178.55c3.71.47,7.43.88,11.15,1.26,7.87.8,15.76,1.45,23.65,2.09,4.5-11.04,9.08-21.56,9.08-21.56l-49.67-17.3s1.75,17.87,4.89,35.38c.34.05.66.1.91.13Z"/>
        <path class="cls-8" d="M233.5,185.84s0,.07,0,.16c1.27-.34,2.56-.59,3.87-.75.08-.03.15-.06.24-.1.02,0,.04-.01.05-.02-1.13.3-1.39.03,1.69-.69,1.02-.52,2.03-1.07,3.02-1.64,1.59-.92,3.11-1.95,4.67-2.91,1.84-1.79,2.19-1.86,1.84-1.43,4.98-4.26,9.84-7.96,15.08-10.77-4.04-15.08-71.67-23.63-71.67-23.63,0,0,10.16,44.98,41.22,41.78Z"/>
      </g>
      <path class="cls-12" d="M125.93,191.72c-6.64-.34-12.87-.55-18.98-2.1,2.84,11.49,6.36,20.03,10.43,18.63,0,0,3.09.64,4.29-6.75,0,0,.4,7.31,3.79,6.9,0,0,4.89.99,5.59-5.8.18-1.74,1.43-5.6,3.19-10.37-2.75-.06-5.47-.37-8.31-.51Z"/>
      <path class="cls-12" d="M239.03,191.59c-1.75.15-3.5.25-5.25.32.82,7.47,2.65,16.78,6.7,16.78,6.78,0,5.46-6.4,5.46-6.4,0,0,2.26,6.4,6.4,6.4s7.72-3.58,8.66-9.04c0,0,1.18-3.9,2.2-9.58-7.99,2.47-15.81,2.47-24.17,1.52Z"/>
      <path class="cls-1" d="M77,188.57c-4.67.22-9.33-.3-13.89-1.34-1.53-.35-3.12-.72-4.61-1.21,2.98,13.38,6.83,24.08,11.34,22.53,0,0,3.09.64,4.29-6.75,0,0,.4,7.31,3.79,6.9,0,0,4.89.99,5.59-5.8.23-2.26,1.03-8.22,1.99-15.16-2.82.4-5.66.7-8.51.83Z"/>
      <path class="cls-1" d="M198.83,192.4c-4.84.11-9.83-.63-14.5-1.91,2.74,10.36,6.06,17.74,9.87,16.44,0,0,3.09.64,4.29-6.75,0,0,.4,7.31,3.79,6.9,0,0,4.89.99,5.59-5.8.18-1.72.68-5.55,1.33-10.33-3.34.86-6.79,1.37-10.37,1.46Z"/>
      <path class="cls-2" d="M111.46,141.08c-6.23-2.9-12.63-5.39-19.18-7.48,3.64-11.41,8.12-22.54,13.43-33.28.38-.78.16-1.55-.54-2.05-9.29-6.62-19.18-12.34-29.55-17.09,0,0-3.27,1.79-1.51,2.59,9.94,4.56,19.45,10.02,28.4,16.29-5.37,11.01-9.91,22.4-13.57,34.09-.25.79.29,1.61,1.05,1.85,6.29,1.94,12.44,4.28,18.44,6.99-2.47,3.52-4.95,7.03-7.42,10.55-1.11,1.58,1.49,3.08,2.59,1.51,2.8-3.98,5.59-7.95,8.39-11.93.44-.62.15-1.73-.54-2.05Z"/>
      <path class="cls-5" d="M94.79,144.48c-9.41-19.84-18.36-41.32-19.65-63.53-7.52,5.22-16.13,9.02-25.18,10.43-2.14.76-4.34.67-6.61.59-.19,0-.38.02-.57.02-5.82.06-11.62-1.16-16.87-3.6,2.31,23.79,9.24,49.7,27.26,62.04,0,0,17.05,11.71,49.13,16.8,3.65.58,6.93,1.16,9.91,1.73-6.95-7.2-13.01-15.2-17.42-24.49Z"/>
      <path class="cls-7" d="M76.3,91.46c-3.88,3.67-7.54,7.55-11,11.62-5.21-4.91-13.28-5.7-19.33-1.78-.36-3.09-.48-6.19-.2-9.29-.98.01-1.96-.03-2.97-.05-.25,3.23-.14,6.44.22,9.63-1.74-.62-3.68-.62-5.48-.04-2.36.75-4.29,2.31-6.05,4-.81-.8-1.81-1.39-2.93-1.71-.11-.03-.22-.05-.32-.06,0,0,0,0,0,.01,0,1.2.34,2.39.77,3.57.41.32.75.72,1.02,1.21.46.85,1.69.98,2.36.3,1.61-1.63,3.32-3.41,5.5-4.28,1.72-.68,3.96-.78,5.42.52.08.07.16.12.23.17,1.14,6.64,3.19,13.19,5.15,19.61,3.09,10.13,6.42,20.32,11.58,29.62.04.08.09.15.13.23,0,0,0,0,0,0,1.41.47,2.99,1.23,4.38,1.78-2.99-4.81-5.51-10.44-7.57-15.71-1.84-4.72-3.42-9.53-4.92-14.37-1.69-5.47-3.42-10.95-4.76-16.52-.43-1.77-.8-3.55-1.11-5.35.08-.04.17-.09.25-.15,5.56-4.11,13.1-3.3,17.61,1.95.49.58,1.63.59,2.12,0,3.32-4,6.86-7.8,10.59-11.42-.29-1.16-.55-2.31-.71-3.49Z"/>
      <path class="cls-3" d="M55.65,155.57c-.56-2.71-1.06-5.46-1.5-8.24-1.88-11.64-2.88-23.66-4.03-35.58-.22-2.25-1.5-3.14-2.71-2.85-1.4-1.05-3.58-.05-3.82,3.2-.44,5.87-1.45,11.57-2.53,17.28-1.12,5.95-2.18,11.9-3.02,17.94-.42,2.99-.79,5.99-1.16,8.99-.31,2.59-1.12,5.92-.29,8.31.78,2.25,2.72,4,3.99,5.56,1.5,1.84,3.04,3.59,4.62,5.29.83.89,2.28.81,3.06-.42,1.29-2.03,2.66-3.92,4.14-5.62,1.3-1.5,3.2-2.61,3.94-4.95.92-2.9-.13-6.21-.69-8.92Z"/>
      <path class="cls-10" d="M53.55,108.06c-.04-1.44-.21-2.88-.45-4.3-.09-.53-.33-1.34-.58-1.8-.67-.01-1.25.25-1.91.32-.73.07-1.43.31-2.12.51-.67.2-1.43.32-2.06.6-.59.26-1.05.64-1.73.67-.38.02-.74-.07-1.09-.16-.95-.08-1.9-.1-2.84-.02-.5.04-1,.11-1.49.23-.51.13-.98.37-1.49.49,0,0-.01,0-.02,0-.16.32-.28.66-.29,1.05-.05,1.3-.04,2.59.03,3.89.05.82.1,1.66.56,2.37.57.87,1.44,1.34,2.45,1.5,2.68.44,5.39.7,8.1.75,1.69.03,3.34-.14,4.36-1.67.79-1.19.63-3.07.58-4.45Z"/>
      <path class="cls-4" d="M127.3,193.17c-.54-.54-1.5-.49-2.21-.56-.88-.09-1.77-.15-2.65-.18-3.4-.14-6.81.11-10.16.69-.52.09-.72.47-.71.87-.12.15-.22.34-.22.59-.03,1.4.28,3.31,1.34,4.33.52.51,1.22.52,1.88.33.79-.23,1.57-.45,2.38-.6,3.2-.58,6.51-.3,9.73-.05.54.04,1-.49,1-1,0-.82.01-1.64.02-2.46,0-.65.11-1.45-.39-1.96ZM118.36,196.43c-1.35.13-2.69.37-3.99.76-.12.04-.25.08-.38.12-.1-.26-.28-.53-.37-.79-.18-.51-.24-1.03-.26-1.56,2.58-.41,5.2-.6,7.82-.57,1.4.02,2.8.1,4.19.25.11.01.21.02.32.04,0,.3,0,.67,0,.73,0,.37,0,.74,0,1.11-2.44-.18-4.89-.32-7.32-.08Z"/>
      <path class="cls-4" d="M250.7,194.71c-1.12-.3-2.28-.45-3.43-.53-2.7-.19-5.42.05-8.12-.1-.26-.01-.45.07-.6.19-.45.06-.88.36-.92.94-.08,1.13-.03,2.57.51,3.59.61,1.15,1.9.63,2.91.48,2.59-.37,5.11-.07,7.67.29.6.08,1.2.16,1.81.21.58.04,1.27.15,1.8-.14.54-.29.66-.81.73-1.38.07-.57.21-1.2.19-1.78-.05-1.22-1.6-1.51-2.54-1.76ZM247.97,197.45c-1.3-.19-2.6-.34-3.91-.36-1.32-.01-2.63.1-3.93.31-.03,0-.18.02-.33.04-.02-.09-.05-.19-.07-.28-.08-.36-.11-.72-.12-1.08,2.27.09,4.55-.05,6.82.04,1.18.05,2.36.17,3.51.45.13.03.83.29,1.26.42-.01.13-.03.25-.04.38-.02.14-.03.29-.05.43-1.05-.02-2.11-.21-3.13-.36Z"/>
      <path class="cls-11" d="M200.12,194.4c-.26-.49-.72-.67-1.24-.73-1.07-.12-2.15-.16-3.23-.19-2.44-.08-4.88-.04-7.31,0-.3,0-.52.12-.68.29-.2.11-.38.28-.47.56-.32.95-.32,2.01.04,2.94.17.44.4.88.81,1.15.49.32,1.04.25,1.58.14,2.05-.44,4.12-.65,6.21-.59.53.02,1.07.05,1.6.1.47.04.96.16,1.43.14,1.28-.06,1.35-1.41,1.41-2.4.03-.46.08-.99-.15-1.41ZM197.32,196.06c-.5-.04-1-.07-1.49-.09-1.07-.03-2.14,0-3.2.1-1.08.1-2.16.26-3.22.49-.09.02-.18.04-.27.06-.06-.17-.13-.41-.14-.42-.05-.25-.05-.49-.02-.73,1.57-.03,3.15-.05,4.72-.04.87,0,1.75.03,2.62.07.44.02.87.04,1.31.07.22.01.44.03.65.05,0,0,0,0,0,0,0,.1,0,.2-.01.3,0,.08-.01.16-.02.24-.02,0-.05,0-.06-.01-.28-.03-.57-.06-.85-.09Z"/>
      <path class="cls-11" d="M79.38,191.85c-.03-.39-.29-.9-.73-.96-4.99-.7-10.02-.62-15.04-.5-.48.01-.78.3-.91.66-.23.16-.39.41-.39.77.01,1.65-.18,4.4,2.18,4.24,1.01-.07,2.02-.31,3.02-.43,1.09-.13,2.18-.22,3.27-.26,2.14-.08,4.27.03,6.37.46.86.18,1.78.19,2.14-.8.33-.92.13-2.2.07-3.16ZM77.14,193.77c-.37-.07-.75-.13-1.12-.18-1.64-.23-3.29-.3-4.94-.25-1.61.05-3.22.22-4.82.44-.38.05-.75.11-1.13.16-.13.02-.57.01-.69.1-.02-.56-.07-1.12-.1-1.68,4.36-.1,8.74-.17,13.07.36,0,.12.01.24.02.36,0,.16-.04.46-.05.71-.08-.01-.17-.02-.24-.03Z"/>
      <path class="cls-4" d="M51.38,124.54c-.02-.6-.17-1.2-.21-1.82-2.7,1.33-5.98.29-8.88-.24-.07.27-.04.29-.11.66-.09.45-.31,1.35-.38,1.8-.06.39-.1.78-.15,1.17,3.19.94,6.65.91,9.84-.08-.02-.5-.09-1-.11-1.5Z"/>
      <circle class="cls-6" cx="9.54" cy="37.27" r="9.54"/>
      <circle class="cls-6" cx="73.81" cy="38.42" r="9.54"/>
      <circle class="cls-9" cx="13" cy="34.63" r="2.98"/>
      <circle class="cls-9" cx="4.97" cy="40.93" r="1.63"/>
      <circle class="cls-9" cx="77.15" cy="34.79" r="2.98"/>
      <circle class="cls-9" cx="69.13" cy="41.09" r="1.63"/>
    </g>
  </g>
</svg>